<?xml version="1.0" standalone="no"?>
<!DOCTYPE svg PUBLIC "-//W3C//DTD SVG 1.1//EN" "http://www.w3.org/Graphics/SVG/1.1/DTD/svg11.dtd" >
<svg xmlns="http://www.w3.org/2000/svg" xmlns:xlink="http://www.w3.org/1999/xlink" version="1.1">
<metadata>
Created by FontForge 20170731 at Thu Jan  8 16:44:26 2009
 By Aleksey,,,
Copyright (c) The digitally encoded machine readable outline data for producing the typefaces licensed to you is copyrighted (c), 2009 by The Foundry, London. All rights reserved.
</metadata>
<defs>
<font id="FoundrySterling-Light" horiz-adv-x="580" >
  <font-face 
    font-family="Foundry Sterling Light"
    font-weight="300"
    font-stretch="normal"
    units-per-em="1000"
    panose-1="2 0 5 0 4 0 0 2 0 4"
    ascent="800"
    descent="-200"
    x-height="477"
    cap-height="667"
    bbox="-275 -242 1153 914"
    underline-thickness="50"
    underline-position="-200"
    unicode-range="U+0020-FFF3"
  />
<missing-glyph horiz-adv-x="536" 
d="M448 667v-788h-360v788h360zM131 629v-712h274v712h-274z" />
    <glyph glyph-name="IJ" unicode="IJ" horiz-adv-x="563" 
d="M131 0h-43v667h43v-667zM483 193v-11q0 -38 -1 -58.5t-10.5 -49t-28.5 -47.5q-38 -38 -94 -38q-67 0 -120 35l19 34l6 -4q7 -4 15 -8t19 -8.5t25 -7t28 -2.5q45 0 69 24q30 30 30 106v509h43v-474z" />
    <glyph glyph-name="ij" unicode="ij" horiz-adv-x="369" 
d="M123 646q0 -13 -8.5 -22t-21.5 -9t-22 9t-9 22t9 21.5t22 8.5t21.5 -8.5t8.5 -21.5zM113 0h-41v477h41v-477zM307 645q0 -13 -8.5 -21.5t-21.5 -8.5t-22 8.5t-9 21.5t9 21.5t22 8.5t21.5 -8.5t8.5 -21.5zM297 -64q0 -90 -36 -126q-35 -35 -89 -35q-30 0 -63 11l10 34
q24 -9 47 -9q42 0 67 25q23 23 23 93v548h41v-541z" />
    <glyph glyph-name="f_j" unicode="fj" horiz-adv-x="477" 
d="M405 -64q0 -90 -36 -126q-35 -35 -89 -35q-30 0 -63 11l10 34q24 -9 47 -9q42 0 67 25q23 23 23 93v513h-211v-442h-41v442h-87v35h87v99q0 79 41 120q35 35 96 35q62 0 90 -25l-17 -32q-33 19 -71 19q-44 0 -68 -24q-30 -30 -30 -102v-90h252v-541z" />
    <glyph glyph-name="IJsmall" unicode="&#xf769;&#xf76a;" horiz-adv-x="485" 
d="M120 0h-42v514h42v-514zM415 154q0 -39 -1 -57t-8 -39t-21 -35q-32 -32 -77 -32q-37 0 -63.5 11.5t-36.5 21.5l19 32q43 -26 78 -26q31 0 48 17q5 5 8.5 10t5.5 12.5t3.5 11.5t2 13.5t0.5 12.5v14v13v380h42v-360z" />
    <glyph glyph-name="f_f" unicode="ff" horiz-adv-x="584" 
d="M587 706l-17 -32q-33 19 -71 19q-44 0 -68 -24q-30 -30 -30 -102v-90h155v-35h-155v-442h-41v442h-207v-442h-41v442h-87v35h87v99q0 79 41 120q35 35 96 35q42 0 76 -17l-16 -34q-26 13 -58 13q-44 0 -68 -24q-30 -30 -30 -102v-90h207v99q0 79 41 120q35 35 96 35
q62 0 90 -25z" />
    <glyph glyph-name="fi" unicode="fi" horiz-adv-x="477" 
d="M405 0h-41v442h-211v-442h-41v442h-87v35h87v99q0 79 41 120q35 35 96 35q62 0 90 -25l-17 -32q-33 19 -71 19q-44 0 -68 -24q-30 -30 -30 -102v-90h252v-477z" />
    <glyph glyph-name="fl" unicode="fl" horiz-adv-x="477" 
d="M405 0h-41v442h-211v-442h-41v442h-87v35h87v99q0 79 41 120q35 35 96 35q42 0 76 -17l-16 -34q-26 13 -58 13q-44 0 -68 -24q-30 -30 -30 -102v-90h211v242h41v-719z" />
    <glyph glyph-name="f_f_i" unicode="ffi" horiz-adv-x="729" 
d="M657 0h-41v442h-211v-442h-41v442h-211v-442h-41v442h-87v35h87v99q0 79 41 120q35 35 96 35q42 0 76 -17l-16 -34q-26 13 -58 13q-44 0 -68 -24q-30 -30 -30 -102v-90h211v99q0 79 41 120q35 35 96 35q62 0 90 -25l-17 -32q-33 19 -71 19q-44 0 -68 -24
q-30 -30 -30 -102v-90h252v-477z" />
    <glyph glyph-name="f_f_l" unicode="ffl" horiz-adv-x="729" 
d="M657 0h-41v442h-211v-442h-41v442h-211v-442h-41v442h-87v35h87v99q0 79 41 120q35 35 96 35q42 0 76 -17l-16 -34q-26 13 -58 13q-44 0 -68 -24q-30 -30 -30 -102v-90h211v99q0 79 41 120q35 35 96 35q42 0 76 -17l-16 -34q-26 13 -58 13q-44 0 -68 -24
q-30 -30 -30 -102v-90h211v242h41v-719z" />
    <glyph glyph-name="f_t" unicode="ft" horiz-adv-x="607" 
d="M563 10q-45 -20 -87 -20q-60 0 -91 31q-6 6 -10.5 13t-7 17t-4.5 17t-2.5 20.5t-0.5 19v22v19.5v293h-207v-442h-41v442h-87v35h87v99q0 79 41 120q35 35 96 35q62 0 90 -25l-17 -32q-33 19 -71 19q-44 0 -68 -24q-30 -30 -30 -102v-90h207v136h41v-136h157v-35h-157
v-291v-9q0 -26 0.5 -38.5t4.5 -30t12 -25.5t23.5 -14t38.5 -6q30 0 70 15z" />
    <glyph glyph-name=".notdef" horiz-adv-x="536" 
d="M448 667v-788h-360v788h360zM131 629v-712h274v712h-274z" />
    <glyph glyph-name=".notdef" horiz-adv-x="536" 
d="M448 667v-788h-360v788h360zM131 629v-712h274v712h-274z" />
    <glyph glyph-name=".null" horiz-adv-x="0" 
 />
    <glyph glyph-name="nonmarkingreturn" horiz-adv-x="333" 
 />
    <glyph glyph-name="space" unicode=" " horiz-adv-x="242" 
 />
    <glyph glyph-name="exclam" unicode="!" horiz-adv-x="272" 
d="M164 667l-9 -516h-39l-9 516h57zM170 26q0 -14 -10 -24t-24 -10t-24 10t-10 24t10 24.5t24 10.5t24 -10.5t10 -24.5z" />
    <glyph glyph-name="quotedbl" unicode="&#x22;" horiz-adv-x="269" 
d="M212 667l-3 -223h-40l-3 223h46zM103 667l-3 -223h-40l-3 223h46z" />
    <glyph glyph-name="numbersign" unicode="#" horiz-adv-x="558" 
d="M486 511l-5 -38h-96l-19 -134h96l-5 -38h-96l-24 -165h-40l24 165h-116l-24 -165h-40l24 165h-93l5 38h92l20 134h-93l5 38h92l22 156h40l-22 -156h117l22 156h40l-22 -156h96zM345 473h-116l-20 -134h117z" />
    <glyph glyph-name="dollar" unicode="$" 
d="M483 182q0 -76 -46 -127t-131 -58v-91h-38v89q-17 0 -33 2t-29.5 5t-26.5 7t-23 8.5t-20 9.5t-17 9t-14 9l-10.5 7.5t-7.5 5.5l-4 4l25 33l6 -4q5 -4 10.5 -8t15 -9.5t19 -10.5t23 -10t26.5 -9t28.5 -6.5t31.5 -2.5v299q-94 40 -127 72q-41 39 -41 104q0 64 46 108.5
t122 51.5v68h38v-67q104 -4 168 -68l-27 -27q-62 55 -141 58v-268q89 -34 126 -69q51 -48 51 -115zM268 380v252q-57 -7 -91.5 -41.5t-34.5 -82.5q0 -41 31 -72q27 -27 95 -56zM436 179q0 48 -39 85q-31 29 -91 55v-283q63 10 96.5 48t33.5 95z" />
    <glyph glyph-name="percent" unicode="%" horiz-adv-x="721" 
d="M326 502q0 -83 -37 -129.5t-105 -46.5q-64 0 -101.5 43.5t-37.5 118.5q0 87 37.5 135t106.5 48q63 0 100 -45.5t37 -123.5zM282 503q0 62 -24 98t-69 36q-49 0 -74.5 -38.5t-25.5 -107.5q0 -61 24.5 -96t70.5 -35t72 36.5t26 106.5zM611 674l-480 -707l-33 21l480 710z
M676 172q0 -83 -37 -129.5t-105 -46.5q-64 0 -101.5 43.5t-37.5 118.5q0 87 37.5 135t106.5 48q63 0 100 -45.5t37 -123.5zM632 173q0 62 -24 98t-69 36q-49 0 -74.5 -38.5t-25.5 -107.5q0 -61 24.5 -96t70.5 -35t72 36.5t26 106.5z" />
    <glyph glyph-name="ampersand" unicode="&#x26;" horiz-adv-x="659" 
d="M609 0q-58 0 -92 18t-68 58q-86 -88 -198 -88q-84 0 -139 55t-55 137q0 81 53 134q34 34 92 62q-1 2 -10 13.5t-11.5 14.5t-10.5 14.5t-10.5 16t-9 15t-9 16.5t-7 16t-6 17.5t-3 17t-1.5 18.5q0 62 44.5 103t114.5 41q66 0 106.5 -36t40.5 -94q0 -18 -3.5 -35
t-11.5 -31.5t-15 -26t-20.5 -22.5t-22 -18.5t-25 -16.5t-23.5 -13t-23.5 -12t-19.5 -10l184 -222q10 12 22 32.5t28 73.5t16 110h43q0 -77 -25.5 -146.5t-54.5 -103.5q38 -45 65.5 -58t64.5 -14v-36zM385 544q0 44 -29 71t-74 27q-48 0 -80.5 -30t-32.5 -76
q0 -29 15.5 -58.5t58.5 -84.5q76 35 109 68t33 83zM421 107l-196 239q-123 -58 -123 -163q0 -66 45 -109t112 -43q89 0 162 76z" />
    <glyph glyph-name="quotesingle" unicode="'" horiz-adv-x="160" 
d="M103 667l-3 -223h-40l-3 223h46z" />
    <glyph glyph-name="parenleft" unicode="(" horiz-adv-x="354" 
d="M302 701q-105 -84 -140.5 -183.5t-35.5 -225.5q0 -122 36.5 -219t135.5 -182l-25 -29q-61 44 -102 98.5t-60.5 114t-26.5 111.5t-7 112q0 301 201 433z" />
    <glyph glyph-name="parenright" unicode=")" horiz-adv-x="354" 
d="M277 298q0 -60 -7 -112t-26.5 -111.5t-60.5 -114t-102 -98.5l-25 29q99 85 135.5 182t36.5 219q0 126 -35.5 225.5t-140.5 183.5l24 30q201 -132 201 -433z" />
    <glyph glyph-name="asterisk" unicode="*" horiz-adv-x="448" 
d="M391 551l-137 -42l88 -118l-37 -25l-81 125l-81 -125l-37 25l88 118l-137 42l13 40l132 -53v129h44v-129l131 53z" />
    <glyph glyph-name="plus" unicode="+" 
d="M503 232h-194v-194h-38v194h-194v38h194v194h38v-194h194v-38z" />
    <glyph glyph-name="comma" unicode="," horiz-adv-x="218" 
d="M146 54q0 -103 -73 -176l-31 22q14 14 31 55.5t17 94.5v11h56v-7z" />
    <glyph glyph-name="hyphen" unicode="-" horiz-adv-x="486" 
d="M399 232h-312v38h312v-38z" />
    <glyph glyph-name="period" unicode="." horiz-adv-x="200" 
d="M135 27q0 -14 -10.5 -24.5t-24.5 -10.5t-24.5 10.5t-10.5 24.5t10.5 24.5t24.5 10.5t24.5 -10.5t10.5 -24.5z" />
    <glyph glyph-name="slash" unicode="/" horiz-adv-x="418" 
d="M379 667l-302 -803l-38 15l302 803z" />
    <glyph glyph-name="zero" unicode="0" 
d="M527 333q0 -163 -61.5 -253.5t-176.5 -90.5q-116 0 -176 90.5t-60 258.5q0 160 61 250.5t172 90.5q117 0 179 -91t62 -255zM480 333q0 147 -48 227.5t-142 80.5q-190 0 -190 -313q0 -144 48 -222.5t141 -78.5q95 0 143 79t48 227z" />
    <glyph glyph-name="one" unicode="1" 
d="M339 0h-42v616l-170 -115l-25 33l199 133h38v-667z" />
    <glyph glyph-name="two" unicode="2" 
d="M480 0h-388v40q63 62 112 111q127 127 176 198t49 139q0 72 -39.5 111t-111.5 39q-39 0 -78 -15t-55 -26.5t-22 -17.5l-26 28q4 7 25.5 22.5t67.5 32.5t95 17q89 0 140 -49.5t51 -135.5q0 -43 -15.5 -84.5t-50 -86.5t-61.5 -74.5t-76 -78.5l-130 -130h337v-40z" />
    <glyph glyph-name="three" unicode="3" 
d="M475 181q0 -88 -61 -140t-151 -52q-121 0 -189 68l26 29l4 -4l10 -7.5t15.5 -10.5t22.5 -12t27.5 -11t34 -8t39.5 -3q80 0 128.5 39t48.5 107q0 59 -41 100q-26 26 -64.5 36.5t-111.5 10.5h-15v40h18q61 0 100.5 9.5t70.5 40.5q35 35 35 91q0 60 -41.5 97t-111.5 37
q-84 0 -156 -62l-27 28q4 7 24 23t65.5 34t94.5 18q91 0 143.5 -48t52.5 -127q0 -61 -36.5 -107.5t-101.5 -54.5q67 -5 107 -50t40 -111z" />
    <glyph glyph-name="four" unicode="4" 
d="M515 171h-94v-171h-42v171h-321v38l319 458h44v-458h94v-38zM379 209v390l-274 -390h274z" />
    <glyph glyph-name="five" unicode="5" 
d="M485 206q0 -99 -61.5 -158t-156.5 -59q-53 0 -98 16t-60.5 28t-21.5 19l23 31q5 -5 20.5 -15.5t53.5 -24t76 -13.5q83 0 131.5 46.5t48.5 126.5q0 73 -45.5 123t-130.5 50q-72 0 -124 -35l-27 17v309h345v-39h-302v-238q39 29 113 29q103 0 159.5 -59t56.5 -154z" />
    <glyph glyph-name="six" unicode="6" 
d="M512 215q0 -96 -58 -161t-151 -65q-66 0 -113 30t-70 81.5t-32.5 102.5t-9.5 108q0 53 5.5 100t22 98t42.5 87t70.5 59.5t103.5 23.5q49 0 91 -15.5t58.5 -28.5t21.5 -21l-26 -29q-67 55 -138 55q-62 0 -106 -30t-65.5 -82t-30 -106.5t-7.5 -118.5q0 -15 0.5 -20t0.5 -9
q11 71 66 111.5t129 40.5q93 0 144.5 -59t51.5 -152zM469 212q0 77 -39.5 127.5t-115.5 50.5t-124 -56t-48 -134q0 -73 46 -124t118 -51q76 0 119.5 55.5t43.5 131.5z" />
    <glyph glyph-name="seven" unicode="7" 
d="M508 632l-279 -632h-52l285 626h-381v41h427v-35z" />
    <glyph glyph-name="eight" unicode="8" 
d="M510 172q0 -82 -59 -132.5t-156 -50.5q-104 0 -164.5 48.5t-60.5 131.5q0 75 44.5 126t114.5 50q-66 11 -103.5 54.5t-37.5 105.5q0 77 56 125.5t144 48.5q91 0 147 -46.5t56 -122.5q0 -63 -35.5 -108t-99.5 -57q74 -6 114 -52t40 -121zM445 505q0 64 -43.5 102
t-110.5 38q-70 0 -113.5 -37.5t-43.5 -101.5q0 -63 45.5 -103.5t111.5 -40.5q67 0 110.5 39.5t43.5 103.5zM463 175q0 72 -47.5 112.5t-125.5 40.5q-76 0 -124.5 -41.5t-48.5 -110.5q0 -73 47.5 -113t131.5 -40q76 0 121.5 40t45.5 112z" />
    <glyph glyph-name="nine" unicode="9" 
d="M502 357q0 -53 -5.5 -100t-22 -98t-42.5 -87t-70.5 -59.5t-103.5 -23.5q-49 0 -91 15.5t-58.5 28.5t-21.5 21l26 29q67 -55 138 -55q62 0 106 30t65.5 82t30 106.5t7.5 118.5q0 15 -0.5 20t-0.5 9q-11 -71 -66 -111.5t-129 -40.5q-93 0 -144.5 59t-51.5 152q0 96 58 161
t151 65q66 0 113 -30t70 -81.5t32.5 -102.5t9.5 -108zM438 468q0 73 -46 124t-118 51q-76 0 -119.5 -55.5t-43.5 -131.5q0 -77 39.5 -127.5t115.5 -50.5t124 56t48 134z" />
    <glyph glyph-name="colon" unicode=":" horiz-adv-x="200" 
d="M135 456q0 -14 -10.5 -24.5t-24.5 -10.5t-24.5 10.5t-10.5 24.5t10.5 24.5t24.5 10.5t24.5 -10.5t10.5 -24.5zM135 27q0 -14 -10.5 -24.5t-24.5 -10.5t-24.5 10.5t-10.5 24.5t10.5 24.5t24.5 10.5t24.5 -10.5t10.5 -24.5z" />
    <glyph glyph-name="semicolon" unicode=";" horiz-adv-x="218" 
d="M155 456q0 -14 -10.5 -24.5t-24.5 -10.5t-24.5 10.5t-10.5 24.5t10.5 24.5t24.5 10.5t24.5 -10.5t10.5 -24.5zM146 54q0 -103 -73 -176l-31 22q14 14 31 55.5t17 94.5v11h56v-7z" />
    <glyph glyph-name="less" unicode="&#x3c;" horiz-adv-x="584" 
d="M522 54l-16 -34l-444 218v27l443 218l17 -33l-412 -200z" />
    <glyph glyph-name="equal" unicode="=" 
d="M520 289h-460v38h460v-38zM520 175h-460v38h460v-38z" />
    <glyph glyph-name="greater" unicode="&#x3e;" horiz-adv-x="584" 
d="M522 238l-444 -218l-16 34l412 196l-412 200l17 33l443 -218v-27z" />
    <glyph glyph-name="question" unicode="?" horiz-adv-x="479" 
d="M405 497q0 -35 -10 -63t-19.5 -40t-25.5 -28q-23 -23 -63 -48t-52 -37q-16 -16 -19 -31t-3 -66v-33h-38q-2 44 -2 59q0 39 3.5 56t17.5 31q12 13 55 42t59 44q28 28 38.5 53.5t10.5 60.5q0 62 -40 101.5t-102 39.5q-69 0 -136 -45l-22 31q6 6 23.5 17t60 24.5t88.5 13.5
q80 0 128 -49.5t48 -132.5zM228 26q0 -14 -10 -24t-24 -10t-24 10t-10 24t10 24.5t24 10.5t24 -10.5t10 -24.5z" />
    <glyph glyph-name="at" unicode="@" horiz-adv-x="770" 
d="M720 415q0 -108 -70.5 -173.5t-185.5 -65.5q-8 0 -16 1l10 57q-6 -6 -17 -16t-44 -26t-64 -16q-47 0 -75.5 32.5t-28.5 85.5q0 91 62.5 153t153.5 62q57 0 97 -18l-53 -281q86 6 138 58q24 24 40 64.5t16 81.5q0 99 -74 161.5t-189 62.5q-142 0 -235 -94.5t-93 -238.5
q0 -125 80 -202t203 -77q117 0 207 60l22 -31q-92 -69 -234 -69q-140 0 -230 89.5t-90 231.5q0 158 105.5 262.5t265.5 104.5q131 0 215 -73t84 -186zM494 467q-6 1 -13.5 3.5t-10.5 2.5q-14 2 -25 2q-71 0 -122.5 -52.5t-51.5 -124.5q0 -36 21 -60t54 -24q53 0 112 59z" />
    <glyph glyph-name="A" unicode="A" horiz-adv-x="567" 
d="M554 0h-48l-74 205h-302l-74 -205h-43l243 667h53zM418 245l-137 377l-136 -377h273z" />
    <glyph glyph-name="B" unicode="B" horiz-adv-x="543" 
d="M486 186q0 -76 -50 -126q-40 -40 -92 -50t-158 -10h-98v667h145q69 0 109.5 -9t72.5 -41q48 -47 48 -125q0 -55 -30 -97t-88 -53q141 -20 141 -156zM419 496q0 56 -35 91q-27 27 -61.5 35t-99.5 8h-92v-274h85q117 0 169 52q34 34 34 88zM442 184q0 55 -38 93
q-20 20 -58 30t-62 11t-75 1h-78v-282h75q81 0 123.5 9t77.5 44t35 94z" />
    <glyph glyph-name="C" unicode="C" horiz-adv-x="597" 
d="M571 48q-8 -8 -29 -20t-70.5 -25.5t-105.5 -13.5q-133 0 -221 91t-88 248q0 162 91.5 256.5t225.5 94.5q52 0 97.5 -12.5t62.5 -22t27 -17.5l-21 -35q-70 44 -161 44q-117 0 -197 -81.5t-80 -218.5q0 -139 73 -222t197 -83q93 0 176 50z" />
    <glyph glyph-name="D" unicode="D" horiz-adv-x="666" 
d="M609 336q0 -158 -97 -255q-49 -49 -109.5 -65t-159.5 -16h-155v667h113q121 0 190.5 -15t118.5 -64q99 -99 99 -252zM562 338q0 138 -83 221q-44 44 -101.5 57.5t-174.5 13.5h-72v-593h96q65 0 97 2t78 18.5t80 50.5q80 79 80 230z" />
    <glyph glyph-name="E" unicode="E" horiz-adv-x="488" 
d="M434 0h-346v667h338v-39h-295v-258h277v-37h-277v-293h303v-40z" />
    <glyph glyph-name="F" unicode="F" horiz-adv-x="458" 
d="M416 628h-285v-258h266v-37h-266v-333h-43v667h328v-39z" />
    <glyph glyph-name="G" unicode="G" horiz-adv-x="647" 
d="M577 44q-9 -8 -28 -18.5t-70 -23.5t-112 -13q-134 0 -222 90.5t-88 248.5q0 162 91.5 256.5t225.5 94.5q52 0 97 -11.5t63.5 -21t26.5 -16.5l-21 -35q-66 41 -161 41q-117 0 -197 -81.5t-80 -218.5q0 -141 73 -223t198 -82q20 0 38.5 1.5t32.5 3.5t27 5.5t21.5 6.5
t17 6.5t12.5 5.5l8 4l4 3v216h-162v37h205v-276z" />
    <glyph glyph-name="H" unicode="H" horiz-adv-x="624" 
d="M536 0h-43v332h-362v-332h-43v667h43v-296h362v296h43v-667z" />
    <glyph glyph-name="I" unicode="I" horiz-adv-x="219" 
d="M131 0h-43v667h43v-667z" />
    <glyph glyph-name="J" unicode="J" horiz-adv-x="344" 
d="M264 193v-11q0 -38 -1 -58.5t-10.5 -49t-28.5 -47.5q-38 -38 -94 -38q-68 0 -120 35l19 34l7 -4q6 -4 14 -8t19 -8.5t25 -7t28 -2.5q45 0 69 24q30 30 30 106v509h43v-474z" />
    <glyph glyph-name="K" unicode="K" horiz-adv-x="520" 
d="M508 0h-60l-317 323v-323h-43v667h43v-317l308 317h53l-318 -328z" />
    <glyph glyph-name="L" unicode="L" horiz-adv-x="461" 
d="M426 0h-338v667h43v-627h295v-40z" />
    <glyph glyph-name="M" unicode="M" horiz-adv-x="864" 
d="M784 0h-49l-67 602l-221 -602h-36l-222 602l-66 -602h-43l78 667h51l224 -599l219 599h53z" />
    <glyph glyph-name="N" unicode="N" horiz-adv-x="620" 
d="M532 0h-60l-344 608l1 -608h-41v667h55l349 -617l-1 617h41v-667z" />
    <glyph glyph-name="O" unicode="O" horiz-adv-x="690" 
d="M633 335q0 -152 -81.5 -249t-211.5 -97q-121 0 -202 95.5t-81 240.5q0 155 82.5 254.5t211.5 99.5q122 0 202 -96.5t80 -247.5zM586 340q0 133 -68.5 216t-174.5 83q-109 0 -174 -82.5t-65 -218.5q0 -134 68.5 -221.5t172.5 -87.5q108 0 174.5 82.5t66.5 228.5z" />
    <glyph glyph-name="P" unicode="P" horiz-adv-x="526" 
d="M473 478q0 -87 -57 -144q-50 -50 -164 -50h-121v-284h-43v667h142q69 0 113 -9t76 -41q54 -54 54 -139zM429 481q0 68 -44 112q-25 25 -59 31t-106 6h-89v-309h116q97 0 136 39q46 46 46 121z" />
    <glyph glyph-name="Q" unicode="Q" horiz-adv-x="690" 
d="M633 335q0 -150 -78 -244.5t-200 -101.5q69 -90 219 -90q13 0 25 1t19 2t8 1l4 -36q-35 -7 -76 -7q-170 0 -252 132q-100 12 -172.5 102.5t-72.5 230.5q0 155 82.5 254.5t211.5 99.5q122 0 202 -96.5t80 -247.5zM586 340q0 133 -68.5 216t-174.5 83q-109 0 -174 -82.5
t-65 -218.5q0 -134 68.5 -221.5t172.5 -87.5q108 0 174.5 82.5t66.5 228.5z" />
    <glyph glyph-name="R" unicode="R" horiz-adv-x="537" 
d="M509 0h-45l-74 168q-37 84 -57 104t-44.5 27t-74.5 7h-83v-306h-43v667h132q51 0 74 -1t59 -12t58 -33q53 -53 53 -133q0 -73 -43 -117q-44 -44 -106 -51q16 -1 30.5 -10t23 -16t19 -25.5t12.5 -23.5t11 -25zM420 492q0 59 -41 100q-25 25 -56 31.5t-91 6.5h-101v-287h48
q54 0 80 1.5t62.5 13t60.5 35.5q38 38 38 99z" />
    <glyph glyph-name="S" unicode="S" horiz-adv-x="503" 
d="M440 180q0 -85 -52.5 -138t-151.5 -53q-106 0 -185 69l25 33l6 -4l10 -8t14.5 -10t19 -11t22.5 -10.5t26 -9.5t28.5 -6.5t30.5 -2.5q78 0 120 40.5t42 107.5q0 49 -38 87q-32 32 -124.5 72t-124.5 72q-40 40 -40 105q0 73 51.5 119.5t136.5 46.5q106 0 176 -70l-27 -27
l-5 5q-5 5 -10.5 9.5t-14.5 11t-20.5 12t-25.5 10.5t-32 8t-37 3q-66 0 -108.5 -36t-42.5 -91q0 -45 32 -77q30 -30 123 -68t127 -72q49 -49 49 -117z" />
    <glyph glyph-name="T" unicode="T" horiz-adv-x="526" 
d="M492 628h-208v-628h-43v628h-207v39h458v-39z" />
    <glyph glyph-name="U" unicode="U" horiz-adv-x="605" 
d="M527 291q0 -110 -9 -150q-13 -56 -49 -92q-60 -60 -166 -60t-168 62q-9 9 -16.5 20t-13.5 20t-10 22.5t-7 22t-5 25.5t-3 25t-1.5 28.5t-0.5 28v31.5v32v361h43v-430q0 -37 2 -59.5t12 -50.5t30 -48q51 -51 141 -51q83 0 129 46q24 24 35 56.5t12.5 60t1.5 95.5v381h43
v-376z" />
    <glyph glyph-name="V" unicode="V" horiz-adv-x="582" 
d="M556 667l-236 -667h-62l-232 667h49l216 -637l221 637h44z" />
    <glyph glyph-name="W" unicode="W" horiz-adv-x="880" 
d="M839 667l-167 -667h-71l-159 642l-162 -642h-71l-168 667h50l154 -642l160 642h76l159 -642l155 642h44z" />
    <glyph glyph-name="X" unicode="X" horiz-adv-x="543" 
d="M514 0h-53l-193 312l-191 -312h-48l212 348l-198 319h54l172 -284l169 284h50l-195 -320z" />
    <glyph glyph-name="Y" unicode="Y" horiz-adv-x="527" 
d="M499 667l-214 -404v-263h-43v263l-214 404h50l188 -359l185 359h48z" />
    <glyph glyph-name="Z" unicode="Z" horiz-adv-x="538" 
d="M489 0h-441v35l384 593h-363v39h412v-35l-381 -592h389v-40z" />
    <glyph glyph-name="bracketleft" unicode="[" horiz-adv-x="307" 
d="M268 -121h-180v788h180v-38h-137v-712h137v-38z" />
    <glyph glyph-name="backslash" unicode="\" horiz-adv-x="418" 
d="M379 -121l-38 -15l-302 803l38 15z" />
    <glyph glyph-name="bracketright" unicode="]" horiz-adv-x="307" 
d="M219 -121h-180v38h137v712h-137v38h180v-788z" />
    <glyph glyph-name="asciicircum" unicode="^" 
d="M500 256h-50l-162 351l-161 -351h-47l193 411h33z" />
    <glyph glyph-name="underscore" unicode="_" horiz-adv-x="457" 
d="M459 -121h-461v38h461v-38z" />
    <glyph glyph-name="grave" unicode="`" horiz-adv-x="370" 
d="M297 576l-15 -31l-209 77l21 48z" />
    <glyph glyph-name="a" unicode="a" horiz-adv-x="454" 
d="M389 0h-41v36q-1 0 -8 -4.5t-13.5 -8t-17.5 -8.5t-23 -9t-26.5 -8t-31.5 -6t-34 -2q-69 0 -111 38.5t-42 101.5q0 36 14 64t40 44t52 26.5t62.5 14.5t58 5t51.5 1h29v26v14.5v17t-0.5 15.5t-2.5 16.5t-4.5 14.5t-7 15.5t-10.5 12.5q-34 34 -100 34q-34 0 -67 -10
t-47.5 -18.5t-17.5 -11.5l-21 30q3 4 20.5 14.5t56.5 22t82 11.5q78 0 122 -44q22 -22 30 -50t8 -83v-312zM348 72v177h-35q-109 0 -169 -26.5t-60 -93.5q0 -42 29.5 -71.5t90.5 -29.5q13 0 27.5 2t26.5 4.5t23.5 6.5t21 8t18 8t14 7t9.5 6z" />
    <glyph glyph-name="b" unicode="b" horiz-adv-x="506" 
d="M461 245q0 -112 -67 -183t-172 -71q-19 0 -38.5 2t-34 5t-29.5 7t-23 7t-17 6l-8 3v698h41v-280q61 49 138 49q98 0 154 -66t56 -177zM418 243q0 92 -45.5 149.5t-122.5 57.5q-73 0 -137 -51v-351q66 -19 112 -19q88 0 140.5 58.5t52.5 155.5z" />
    <glyph glyph-name="c" unicode="c" horiz-adv-x="453" 
d="M421 36q-8 -7 -25.5 -16t-55 -19t-75.5 -10q-97 0 -158.5 63t-61.5 173q0 116 64 188.5t169 72.5q37 0 71 -10.5t47 -19t19 -14.5l-21 -31q-56 35 -119 35q-85 0 -136 -59t-51 -153q0 -93 50 -148.5t129 -55.5q70 0 135 37z" />
    <glyph glyph-name="d" unicode="d" horiz-adv-x="506" 
d="M434 0h-41v40q-73 -49 -142 -49q-92 0 -149 65.5t-57 173.5q0 114 63.5 186t164.5 72q54 0 120 -33v264h41v-719zM393 80v335q-63 36 -119 36q-84 0 -135 -61.5t-51 -161.5q0 -88 45.5 -143.5t121.5 -55.5q15 0 29.5 2t26 5t22.5 7.5t19 8.5t16 9t12 8.5t8 6.5z" />
    <glyph glyph-name="e" unicode="e" horiz-adv-x="485" 
d="M440 266q0 -8 -2 -30h-350q0 -94 46.5 -149t129.5 -55q37 0 72.5 10t52.5 20l17 11l20 -34q-5 -5 -23.5 -15t-59 -21.5t-82.5 -11.5q-100 0 -158 66.5t-58 177.5q0 117 58 185t156 68q79 0 130 -59t51 -163zM398 274q0 71 -35.5 124.5t-103.5 53.5q-67 0 -116 -48.5
t-53 -129.5h308z" />
    <glyph glyph-name="f" unicode="f" horiz-adv-x="336" 
d="M339 706l-17 -32q-33 19 -71 19q-44 0 -68 -24q-30 -30 -30 -102v-90h155v-35h-155v-442h-41v442h-87v35h87v99q0 79 41 120q35 35 96 35q62 0 90 -25z" />
    <glyph glyph-name="g" unicode="g" horiz-adv-x="506" 
d="M434 -10q0 -68 -9.5 -104.5t-33.5 -60.5q-50 -50 -149 -50q-46 0 -87.5 13.5t-58 24.5t-22.5 17l21 31l5 -3q6 -4 12.5 -8t16.5 -9.5t22 -10t26 -8.5t30.5 -6.5t33.5 -2.5q80 0 121 41q20 20 25 49t5 102v43l-5 -4l-10 -6t-13.5 -7.5t-17 -8.5t-20.5 -8.5t-24 -7.5
t-26.5 -5t-29.5 -2q-88 0 -144.5 64.5t-56.5 170.5q0 111 65.5 182.5t166.5 71.5q87 0 157 -39v-459zM392 88v337q-58 25 -118 25q-85 0 -136 -60t-51 -156q0 -87 44 -142t117 -55q22 0 43.5 5t38.5 12t29.5 14t22 13.5t10.5 6.5z" />
    <glyph glyph-name="h" unicode="h" horiz-adv-x="490" 
d="M425 0h-41v286q0 40 -1 58.5t-8 41t-21 36.5q-28 28 -85 28q-70 0 -156 -53v-397h-41v719h41v-283q9 7 26.5 17t57 22.5t76.5 12.5q73 0 111 -38q26 -26 33.5 -56.5t7.5 -88.5v-305z" />
    <glyph glyph-name="i" unicode="i" horiz-adv-x="185" 
d="M123 646q0 -13 -8.5 -22t-21.5 -9t-22 9t-9 22t9 21.5t22 8.5t21.5 -8.5t8.5 -21.5zM113 0h-41v477h41v-477z" />
    <glyph glyph-name="j" unicode="j" horiz-adv-x="184" 
d="M122 645q0 -13 -8.5 -21.5t-21.5 -8.5t-22 8.5t-9 21.5t9 21.5t22 8.5t21.5 -8.5t8.5 -21.5zM112 -64q0 -90 -36 -126q-35 -35 -89 -35q-30 0 -63 11l10 34q24 -9 47 -9q42 0 67 25q23 23 23 93v548h41v-541z" />
    <glyph glyph-name="k" unicode="k" horiz-adv-x="441" 
d="M424 0h-58l-253 252v-252h-41v719h41v-458l228 216h56l-237 -219z" />
    <glyph glyph-name="l" unicode="l" horiz-adv-x="185" 
d="M113 0h-41v719h41v-719z" />
    <glyph glyph-name="m" unicode="m" horiz-adv-x="779" 
d="M714 0h-41v301q0 90 -32 122q-26 26 -78 26q-72 0 -158 -50q9 -22 9 -112v-287h-41v271q0 74 -5 105t-22 47q-29 27 -78 27q-72 0 -155 -53v-397h-41v477h41v-41q78 52 157 52q17 0 32.5 -2.5t27 -7t20.5 -9t16.5 -11.5t11 -11t8.5 -11l5 -6q93 58 176 58q66 0 103 -37
q29 -29 36.5 -66.5t7.5 -108.5v-276z" />
    <glyph glyph-name="n" unicode="n" horiz-adv-x="490" 
d="M425 0h-41v286q0 40 -1 58.5t-8 41t-21 36.5q-28 28 -85 28q-70 0 -156 -53v-397h-41v477h41v-41q9 7 26.5 17t57 22.5t76.5 12.5q73 0 111 -38q26 -26 33.5 -56.5t7.5 -88.5v-305z" />
    <glyph glyph-name="o" unicode="o" horiz-adv-x="510" 
d="M465 232q0 -112 -57 -177.5t-154 -65.5q-96 0 -152.5 67t-56.5 183q0 115 56.5 182t156.5 67q96 0 151.5 -67.5t55.5 -188.5zM422 236q0 96 -47.5 156t-119.5 60q-77 0 -122 -58t-45 -154q0 -95 47.5 -154.5t119.5 -59.5q79 0 123 56.5t44 153.5z" />
    <glyph glyph-name="p" unicode="p" horiz-adv-x="506" 
d="M461 249q0 -114 -64.5 -186t-167.5 -72q-69 0 -116 33v-236h-41v689h41v-38q57 49 142 49q92 0 149 -65.5t57 -173.5zM418 252q0 88 -45.5 143.5t-121.5 55.5q-15 0 -29.5 -2t-26 -5t-22.5 -7.5t-19 -8.5t-16 -9t-12 -8.5t-8 -6.5l-5 -4v-336q61 -35 119 -35
q84 0 135 61.5t51 161.5z" />
    <glyph glyph-name="q" unicode="q" horiz-adv-x="506" 
d="M434 -212h-41v252q-61 -49 -138 -49q-98 0 -154 66t-56 177q0 112 67 183t172 71q19 0 38.5 -2t34 -5t29.5 -7t23 -7t17 -6l8 -3v-670zM393 80v351q-1 0 -6.5 2l-11 4t-16 4.5t-21.5 4t-26 3t-31 1.5q-88 0 -140.5 -58.5t-52.5 -155.5q0 -92 45.5 -149.5t122.5 -57.5
q73 0 137 51z" />
    <glyph glyph-name="r" unicode="r" horiz-adv-x="332" 
d="M312 483l-10 -36q-24 3 -41 3q-21 0 -40 -5t-33.5 -13.5t-26 -17.5t-20.5 -20t-14.5 -18.5t-9.5 -15.5l-4 -7v-353h-41v477h41v-73q60 86 150 86q28 0 49 -7z" />
    <glyph glyph-name="s" unicode="s" horiz-adv-x="406" 
d="M354 127q0 -65 -45.5 -101.5t-122.5 -36.5q-41 0 -78.5 10.5t-54 20t-19.5 13.5l19 33q60 -40 129 -40q60 0 94.5 25.5t34.5 71.5q0 35 -27 62q-22 22 -98 48.5t-103 53.5q-31 31 -31 81q0 55 43.5 87.5t107.5 32.5q84 0 135 -38l-19 -32q-51 34 -112 34q-47 0 -80 -22.5
t-33 -60.5q0 -32 22 -54q21 -21 98 -48.5t105 -55.5q35 -35 35 -84z" />
    <glyph glyph-name="t" unicode="t" horiz-adv-x="354" 
d="M310 10q-45 -20 -87 -20q-60 0 -91 31q-6 6 -10.5 13t-7 17t-4.5 17t-2.5 20.5t-0.5 19v22v19.5v293h-83v35h83v136h41v-136h157v-35h-157v-291v-9q0 -26 0.5 -38.5t4.5 -30t12 -25.5t23.5 -14t38.5 -6q30 0 70 15z" />
    <glyph glyph-name="u" unicode="u" horiz-adv-x="490" 
d="M418 0h-41v41q-1 0 -7 -4t-11 -7t-14.5 -8.5t-18.5 -9t-22 -8t-26 -7.5t-29 -5t-33 -2q-67 0 -110 43q-27 27 -34 60.5t-7 94.5v289h41v-293v-8q0 -30 1 -45.5t7.5 -36t20.5 -34.5q33 -33 86 -33q15 0 30 2t28 5.5t25.5 8t22.5 9t19.5 9.5t15 8.5t10.5 6.5l5 3v398h41
v-477z" />
    <glyph glyph-name="v" unicode="v" horiz-adv-x="482" 
d="M452 477l-189 -477h-53l-188 477h47l169 -437l169 437h45z" />
    <glyph glyph-name="w" unicode="w" horiz-adv-x="730" 
d="M689 477l-141 -477h-56l-130 451l-134 -451h-57l-135 477h44l121 -439l131 439h65l126 -439l124 439h42z" />
    <glyph glyph-name="x" unicode="x" horiz-adv-x="457" 
d="M423 0h-52l-149 216l-149 -216h-49l175 246l-162 231h53l136 -202l139 202h49l-163 -231z" />
    <glyph glyph-name="y" unicode="y" horiz-adv-x="468" 
d="M441 477l-188 -519q-37 -100 -71 -134q-49 -49 -121 -49q-51 0 -79 14l12 36q38 -11 66 -11q54 0 87 33q9 9 17.5 21t17.5 30.5t12.5 26t13.5 33.5t11 28l-196 491h47l172 -434l154 434h45z" />
    <glyph glyph-name="z" unicode="z" horiz-adv-x="452" 
d="M395 0h-351v34l292 408h-276v35h324v-33l-288 -407h299v-37z" />
    <glyph glyph-name="braceleft" unicode="{" horiz-adv-x="317" 
d="M278 -121h-44q-32 0 -46.5 1t-31.5 7t-30 19q-9 9 -14 18.5t-9.5 34t-4.5 64.5v165q0 56 -10 66q-11 11 -35 11v38q23 0 35 12q10 10 10 65v143q0 57 7 80t21 37q18 18 40 22.5t68 4.5h44v-38h-35q-45 0 -59 -2.5t-24 -12.5q-18 -18 -18 -78v-153q0 -72 -13 -85
q-8 -8 -20 -14q12 -6 20 -14q13 -13 13 -64v-196q0 -60 18 -78q10 -10 24 -12.5t59 -2.5h35v-38z" />
    <glyph glyph-name="bar" unicode="|" horiz-adv-x="237" 
d="M141 -121h-45v788h45v-788z" />
    <glyph glyph-name="braceright" unicode="}" horiz-adv-x="317" 
d="M264 265q-24 0 -35 -11q-10 -10 -10 -66v-165q0 -57 -7 -80t-21 -37q-18 -18 -40 -22.5t-68 -4.5h-44v38h35q45 0 59 2.5t24 12.5q18 18 18 78v196q0 51 13 64q8 8 20 14q-12 6 -20 14q-13 13 -13 85v153q0 60 -18 78q-10 10 -24 12.5t-59 2.5h-35v38h44q32 0 46.5 -1
t31.5 -7t30 -19q9 -9 14 -18.5t9.5 -34t4.5 -64.5v-143q0 -55 10 -65q12 -12 35 -12v-38z" />
    <glyph glyph-name="asciitilde" unicode="~" 
d="M502 259q-47 -60 -108 -60q-39 0 -105 28.5t-98 28.5q-9 0 -17.5 -1t-15.5 -4t-11.5 -5t-10.5 -7t-8 -7l-7.5 -7.5l-6.5 -6.5l-36 26q43 60 113 60q40 0 105 -28.5t98 -28.5q37 0 73 40z" />
    <glyph glyph-name="exclamdown" unicode="&#xa1;" horiz-adv-x="272" 
d="M170 454q0 -14 -10 -24.5t-24 -10.5t-24 10.5t-10 24.5t10 24t24 10t24 -10t10 -24zM165 -187h-57l9 516h39z" />
    <glyph glyph-name="cent" unicode="&#xa2;" 
d="M486 45q-12 -11 -50 -26t-85 -18v-95h-38v95q-91 6 -147 68t-56 167q0 107 55 178t148 81v80h38v-78q35 -1 67 -11.5t45 -19t17 -13.5l-21 -31q-52 32 -108 35v-415q70 5 116 36zM313 42v413q-74 -10 -117 -67t-43 -143q0 -87 44.5 -141.5t115.5 -61.5z" />
    <glyph glyph-name="sterling" unicode="&#xa3;" 
d="M524 625l-24 -27q-56 42 -127 42q-78 0 -121.5 -49.5t-43.5 -142.5q0 -20 8 -108h195v-39h-191q0 -3 2.5 -29t2.5 -42q0 -145 -73 -192h365v-38h-432v36q48 18 72 51t24 115q0 29 -5 99h-89v39h85q-9 59 -9 108q0 107 55.5 168.5t150.5 61.5q43 0 80 -11.5t52.5 -22.5
t22.5 -19z" />
    <glyph glyph-name="currency" unicode="&#xa4;" horiz-adv-x="593" 
d="M544 117l-26 -26l-56 55q-65 -65 -168 -65q-99 0 -164 67l-57 -57l-25 26l59 59q-44 64 -44 153q0 106 46 170l-61 62l25 26l60 -60q61 59 163 59q96 0 161 -60l61 61l26 -26l-62 -63q50 -66 50 -161q0 -96 -47 -162zM486 342q0 98 -53.5 152.5t-137.5 54.5
q-87 0 -136.5 -54t-49.5 -155q0 -100 53 -160.5t135 -60.5q86 0 137.5 58t51.5 165z" />
    <glyph glyph-name="yen" unicode="&#xa5;" 
d="M518 667l-195 -329h132v-38h-146v-53h146v-38h-146v-209h-42v209h-144v38h144v53h-144v38h129l-190 329h51l174 -319l182 319h49z" />
    <glyph glyph-name="brokenbar" unicode="&#xa6;" horiz-adv-x="237" 
d="M141 364h-45v303h45v-303zM141 -121h-45v303h45v-303z" />
    <glyph glyph-name="section" unicode="&#xa7;" 
d="M472 276q0 -49 -27.5 -82.5t-89.5 -56.5q56 -29 77.5 -58.5t21.5 -71.5q0 -64 -46.5 -108t-124.5 -44q-100 0 -175 56l23 34q78 -48 147 -48q63 0 96.5 29.5t33.5 72.5q0 39 -24 63q-27 27 -111.5 63.5t-116.5 68.5q-37 37 -37 82q0 90 128 137q-103 49 -103 133
q0 61 44 97t115 36q42 0 78 -12.5t47 -20.5t17 -14l-22 -30q-56 39 -121 39q-52 0 -82 -24.5t-30 -62.5t21 -59q23 -23 106.5 -61t113.5 -68q41 -41 41 -90zM426 266q0 38 -26 64q-30 30 -112 67q-62 -19 -92.5 -49.5t-30.5 -65.5q0 -33 25 -58q10 -9 29 -20.5t32.5 -18
t39.5 -18t31 -13.5q104 39 104 112z" />
    <glyph glyph-name="dieresis" unicode="&#xa8;" horiz-adv-x="370" 
d="M290 609q0 -15 -10 -25.5t-25 -10.5t-25.5 10.5t-10.5 25.5t10.5 25t25.5 10t25 -10t10 -25zM150 609q0 -15 -10 -25.5t-25 -10.5t-25.5 10.5t-10.5 25.5t10.5 25t25.5 10t25 -10t10 -25z" />
    <glyph glyph-name="copyright" unicode="&#xa9;" horiz-adv-x="791" 
d="M741 333q0 -143 -101.5 -244t-243.5 -101q-143 0 -244.5 101.5t-101.5 243.5q0 143 102 244.5t244 101.5q143 0 244 -103t101 -243zM697 333q0 128 -88.5 215t-212.5 87q-125 0 -214 -90.5t-89 -211.5q0 -124 89.5 -212.5t213.5 -88.5t212.5 88.5t88.5 212.5zM513 185
q-13 -12 -46 -25t-73 -13q-72 0 -119 49t-47 132q0 89 48 144.5t127 55.5q27 0 52.5 -9t37 -16t16.5 -12l-21 -30q-1 1 -6.5 4.5t-8.5 5.5t-10 5.5t-13 5.5t-14.5 4.5t-18 3.5t-20.5 1q-57 0 -91.5 -43.5t-34.5 -112.5q0 -68 35 -108t89 -40q49 0 99 28z" />
    <glyph glyph-name="ordfeminine" unicode="&#xaa;" horiz-adv-x="404" 
d="M324 313h-35v25q-54 -32 -110 -32q-51 0 -83 28.5t-32 76.5q0 27 10.5 48t30 33t38.5 20t46.5 11t43 3.5t37.5 0.5h19v17v8.5v9.5v8.5t-0.5 9.5t-1.5 8.5t-2.5 9t-3 8t-4.5 8t-6 6.5q-25 25 -71 25q-54 0 -97 -31l-18 26q3 4 17 12t42.5 16.5t59.5 8.5q58 0 91 -33
q17 -17 23 -38t6 -61v-232zM289 370v126h-23q-79 0 -122 -19t-43 -67q0 -30 20.5 -51t64.5 -21q51 0 103 32z" />
    <glyph glyph-name="guillemotleft" unicode="&#xab;" horiz-adv-x="447" 
d="M382 81l-34 -23l-137 190l137 186l34 -24l-107 -162zM236 81l-34 -23l-137 190l137 186l34 -24l-107 -162z" />
    <glyph glyph-name="logicalnot" unicode="&#xac;" horiz-adv-x="582" 
d="M521 136h-41v134h-419v38h460v-172z" />
    <glyph glyph-name="registered" unicode="&#xae;" horiz-adv-x="537" 
d="M487 459q0 -91 -64 -154.5t-155 -63.5t-154.5 63.5t-63.5 154.5t63.5 155t154.5 64t155 -64t64 -155zM450 459q0 76 -52.5 128.5t-129.5 52.5q-76 0 -128.5 -52t-52.5 -129q0 -76 52 -128t129 -52t129.5 52t52.5 128zM371 341h-38l-30 62q-14 28 -22.5 34t-36.5 6h-16
v-102h-35v241h57q59 0 81 -22q18 -18 18 -47q0 -21 -14 -38t-46 -18q13 0 21.5 -6t12.5 -12t10 -19zM315 515q0 36 -63 36h-24v-78h11h13t12.5 0.5t13 1.5t11.5 3t10.5 5t8 7.5t6 10.5t1.5 14z" />
    <glyph glyph-name="macron" unicode="&#xaf;" horiz-adv-x="370" 
d="M328 590h-285v38h285v-38z" />
    <glyph glyph-name="degree" unicode="&#xb0;" horiz-adv-x="591" 
d="M437 536q0 -58 -41.5 -100t-100.5 -42q-58 0 -99.5 41.5t-41.5 100.5q0 58 41 99.5t100 41.5t100.5 -41.5t41.5 -99.5zM402 536q0 44 -31 75t-75 31t-75 -31t-31 -75t31 -75t75 -31t75 31t31 75z" />
    <glyph glyph-name="plusminus" unicode="&#xb1;" 
d="M503 296h-194v-211h-38v211h-194v38h194v216h38v-216h194v-38zM503 0h-426v38h426v-38z" />
    <glyph glyph-name="twosuperior" unicode="&#xb2;" horiz-adv-x="371" 
d="M279 330h-197v31l37.5 37.5l38.5 38.5t31 34t28 36t16 31.5t7 32.5q0 30 -16.5 47t-46.5 17q-35 0 -73 -32l-22 22q38 46 99 46q45 0 73 -27t28 -71q0 -29 -17 -60.5t-33.5 -50t-47.5 -49.5l-51 -49h146v-34z" />
    <glyph glyph-name="threesuperior" unicode="&#xb3;" horiz-adv-x="371" 
d="M285 426q0 -47 -31.5 -73.5t-76.5 -26.5q-65 0 -99 43l24 24q33 -33 70 -33q33 0 52 15.5t19 45.5q0 22 -8.5 36t-25.5 19.5t-28.5 6.5t-31.5 1h-12v36h18q16 0 27 1.5t26 6t23 17.5t8 33q0 25 -16.5 42t-44.5 17q-35 0 -68 -33l-25 23q2 5 12 14.5t33 19.5t50 10
q45 0 73 -25.5t28 -66.5q0 -60 -62 -75q66 -13 66 -78z" />
    <glyph glyph-name="acute" unicode="&#xb4;" horiz-adv-x="370" 
d="M297 622l-209 -77l-15 31l203 94z" />
    <glyph glyph-name="uni00B5" unicode="&#xb5;" horiz-adv-x="497" 
d="M425 0h-41v38q-1 -1 -12 -7t-19 -10t-24 -10.5t-30.5 -10.5t-35 -7t-41.5 -3q-66 0 -109 43v-154h-41v598h41v-293v-8q0 -30 1 -45.5t7.5 -36t20.5 -34.5q33 -33 86 -33q15 0 30 2t28 5.5t25.5 8t22.5 9t19.5 9.5t15 8.5t10.5 6.5l5 3v398h41v-477z" />
    <glyph glyph-name="paragraph" unicode="&#xb6;" horiz-adv-x="570" 
d="M508 629h-56v-750h-39v750h-50v-750h-39v411q-26 1 -61 -0.5t-82 12t-76 42.5q-52 52 -52 141q0 76 51 127q35 35 86.5 45t152.5 10h165v-38z" />
    <glyph glyph-name="periodcentered" unicode="&#xb7;" horiz-adv-x="200" 
d="M135 254q0 -14 -10.5 -24.5t-24.5 -10.5t-24.5 10.5t-10.5 24.5t10.5 24.5t24.5 10.5t24.5 -10.5t10.5 -24.5z" />
    <glyph glyph-name="cedilla" unicode="&#xb8;" horiz-adv-x="370" 
d="M264 -132q0 -38 -27.5 -61.5t-62.5 -23.5q-37 0 -67 16l12 28q28 -12 47 -12q31 0 44.5 16t13.5 35q0 22 -14 35.5t-36 13.5q-25 0 -42 -13l-21 12l18 86h32l-11 -61q15 9 35 9q36 0 57.5 -22t21.5 -58z" />
    <glyph glyph-name="onesuperior" unicode="&#xb9;" horiz-adv-x="371" 
d="M225 330h-38v292l-88 -54l-21 29l114 70h33v-337z" />
    <glyph glyph-name="ordmasculine" unicode="&#xba;" horiz-adv-x="404" 
d="M358 487q0 -83 -42 -132t-115 -49q-71 0 -113 50t-42 136q0 85 42 135t116 50q72 0 113 -50.5t41 -139.5zM322 490q0 70 -34 113t-86 43q-55 0 -87.5 -41.5t-32.5 -111.5q0 -69 34 -112t86 -43q57 0 88.5 41t31.5 111z" />
    <glyph glyph-name="guillemotright" unicode="&#xbb;" horiz-adv-x="447" 
d="M382 248l-137 -190l-34 23l107 167l-107 162l34 24zM236 248l-137 -190l-34 23l107 167l-107 162l34 24z" />
    <glyph glyph-name="onequarter" unicode="&#xbc;" horiz-adv-x="721" 
d="M611 674l-480 -707l-33 21l480 710zM225 330h-38v292l-88 -54l-21 29l114 70h33v-337zM657 83h-48v-83h-36v83h-168v28l171 226h33v-223h48v-31zM573 114v170l-128 -170h128z" />
    <glyph glyph-name="onehalf" unicode="&#xbd;" horiz-adv-x="721" 
d="M611 674l-480 -707l-33 21l480 710zM225 330h-38v292l-88 -54l-21 29l114 70h33v-337zM629 0h-197v31l37.5 37.5l38.5 38.5t31 34t28 36t16 31.5t7 32.5q0 30 -16.5 47t-46.5 17q-35 0 -73 -32l-22 22q38 46 99 46q45 0 73 -27t28 -71q0 -29 -17 -60.5t-33.5 -50
t-47.5 -49.5l-51 -49h146v-34z" />
    <glyph glyph-name="threequarters" unicode="&#xbe;" horiz-adv-x="721" 
d="M611 674l-480 -707l-33 21l480 710zM657 83h-48v-83h-36v83h-168v28l171 226h33v-223h48v-31zM573 114v170l-128 -170h128zM285 426q0 -47 -31.5 -73.5t-76.5 -26.5q-65 0 -99 43l24 24q33 -33 70 -33q33 0 52 15.5t19 45.5q0 22 -8.5 36t-25.5 19.5t-28.5 6.5t-31.5 1
h-12v36h18q16 0 27 1.5t26 6t23 17.5t8 33q0 25 -16.5 42t-44.5 17q-35 0 -68 -33l-25 23q2 5 12 14.5t33 19.5t50 10q45 0 73 -25.5t28 -66.5q0 -60 -62 -75q66 -13 66 -78z" />
    <glyph glyph-name="questiondown" unicode="&#xbf;" horiz-adv-x="479" 
d="M319 454q0 -14 -10 -24.5t-24 -10.5t-24 10.5t-10 24.5t10 24t24 10t24 -10t10 -24zM422 -144q-6 -6 -23.5 -17t-60 -24.5t-88.5 -13.5q-80 0 -128 49.5t-48 132.5q0 35 10 63t19.5 40t25.5 28q23 23 63 48t52 37q16 16 19 31t3 66v33h38q2 -44 2 -59q0 -39 -3.5 -56
t-17.5 -31q-13 -13 -56 -41.5t-58 -44.5q-28 -28 -38.5 -53.5t-10.5 -60.5q0 -62 40 -101.5t102 -39.5q68 0 136 45z" />
    <glyph glyph-name="Agrave" unicode="&#xc0;" horiz-adv-x="567" 
d="M554 0h-48l-74 205h-302l-74 -205h-43l243 667h53zM418 245l-137 377l-136 -377h273zM404 746l-15 -31l-209 77l21 48z" />
    <glyph glyph-name="Aacute" unicode="&#xc1;" horiz-adv-x="567" 
d="M554 0h-48l-74 205h-302l-74 -205h-43l243 667h53zM418 245l-137 377l-136 -377h273zM396 791l-209 -77l-15 31l203 94z" />
    <glyph glyph-name="Acircumflex" unicode="&#xc2;" horiz-adv-x="567" 
d="M554 0h-48l-74 205h-302l-74 -205h-43l243 667h53zM418 245l-137 377l-136 -377h273zM428 745l-19 -30l-127 67l-127 -67l-21 30l148 90z" />
    <glyph glyph-name="Atilde" unicode="&#xc3;" horiz-adv-x="567" 
d="M554 0h-48l-74 205h-302l-74 -205h-43l243 667h53zM418 245l-137 377l-136 -377h273zM435 759q-40 -40 -93 -40q-18 0 -55 11t-57 11q-32 0 -64 -22l-25 29q16 14 25 20t26.5 12.5t37.5 6.5q18 0 56 -12t57 -12q10 0 19.5 1.5t15.5 3.5t12.5 5.5t9 5.5t6.5 5t5 4z" />
    <glyph glyph-name="Adieresis" unicode="&#xc4;" horiz-adv-x="567" 
d="M554 0h-48l-74 205h-302l-74 -205h-43l243 667h53zM418 245l-137 377l-136 -377h273zM387 767q0 -15 -10 -25.5t-25 -10.5t-25.5 10.5t-10.5 25.5t10.5 25t25.5 10t25 -10t10 -25zM247 767q0 -15 -10 -25.5t-25 -10.5t-25.5 10.5t-10.5 25.5t10.5 25t25.5 10t25 -10
t10 -25z" />
    <glyph glyph-name="Aring" unicode="&#xc5;" horiz-adv-x="567" 
d="M554 0h-48l-74 205h-302l-74 -205h-43l243 667h53zM418 245l-137 377l-136 -377h273zM377 813q0 -39 -28 -67t-67 -28t-67 28t-28 67q0 41 28 68t67 27q40 0 67.5 -28t27.5 -67zM342 813q0 26 -17.5 43t-42.5 17q-24 0 -41.5 -18t-17.5 -42t17.5 -41.5t41.5 -17.5
q25 0 42.5 17.5t17.5 41.5z" />
    <glyph glyph-name="AE" unicode="&#xc6;" horiz-adv-x="829" 
d="M770 0h-346v204h-241l-112 -204h-49l376 667h364v-39h-295v-258h277v-37h-277v-293h303v-40zM424 243v388l-221 -388h221z" />
    <glyph glyph-name="Ccedilla" unicode="&#xc7;" horiz-adv-x="597" 
d="M571 48q-8 -8 -29.5 -20t-72.5 -25.5t-110 -13.5l-10 -52q14 8 36 8q37 0 59.5 -22.5t22.5 -59.5q0 -40 -28.5 -64t-64.5 -24q-42 0 -70 16l12 29q29 -12 49 -12q33 0 46.5 16.5t13.5 36.5q0 23 -14 37t-37 14q-24 0 -44 -14l-22 13l17 80q-111 13 -189.5 99.5
t-78.5 237.5q0 162 91.5 256.5t225.5 94.5q52 0 97 -11.5t63.5 -21t26.5 -16.5l-21 -35q-66 41 -161 41q-117 0 -197 -81.5t-80 -218.5q0 -139 73 -222t197 -83q99 0 175 49l1 1z" />
    <glyph glyph-name="Egrave" unicode="&#xc8;" horiz-adv-x="488" 
d="M434 0h-346v667h338v-39h-295v-258h277v-37h-277v-293h303v-40zM370 746l-15 -31l-209 77l21 48z" />
    <glyph glyph-name="Eacute" unicode="&#xc9;" horiz-adv-x="488" 
d="M434 0h-346v667h338v-39h-295v-258h277v-37h-277v-293h303v-40zM368 792l-209 -77l-15 31l203 94z" />
    <glyph glyph-name="Ecircumflex" unicode="&#xca;" horiz-adv-x="488" 
d="M434 0h-346v667h338v-39h-295v-258h277v-37h-277v-293h303v-40zM400 745l-19 -30l-127 67l-127 -67l-21 30l148 90z" />
    <glyph glyph-name="Edieresis" unicode="&#xcb;" horiz-adv-x="488" 
d="M434 0h-346v667h338v-39h-295v-258h277v-37h-277v-293h303v-40zM366 767q0 -15 -10 -25.5t-25 -10.5t-25.5 10.5t-10.5 25.5t10.5 25t25.5 10t25 -10t10 -25zM226 767q0 -15 -10 -25.5t-25 -10.5t-25.5 10.5t-10.5 25.5t10.5 25t25.5 10t25 -10t10 -25z" />
    <glyph glyph-name="Igrave" unicode="&#xcc;" horiz-adv-x="219" 
d="M222 746l-15 -31l-209 77l21 48zM129 0h-43v667h43v-667z" />
    <glyph glyph-name="Iacute" unicode="&#xcd;" horiz-adv-x="219" 
d="M130 0h-43v667h43v-667zM221 792l-209 -77l-15 31l203 94z" />
    <glyph glyph-name="Icircumflex" unicode="&#xce;" horiz-adv-x="219" 
d="M129 0h-43v667h43v-667zM256 745l-19 -30l-127 67l-127 -67l-21 30l148 90z" />
    <glyph glyph-name="Idieresis" unicode="&#xcf;" horiz-adv-x="219" 
d="M129 0h-43v667h43v-667zM215 767q0 -15 -10 -25.5t-25 -10.5t-25.5 10.5t-10.5 25.5t10.5 25t25.5 10t25 -10t10 -25zM75 767q0 -15 -10 -25.5t-25 -10.5t-25.5 10.5t-10.5 25.5t10.5 25t25.5 10t25 -10t10 -25z" />
    <glyph glyph-name="Eth" unicode="&#xd0;" horiz-adv-x="676" 
d="M619 336q0 -158 -97 -255q-49 -49 -109.5 -65t-159.5 -16h-155v333h-100v37h100v297h113q121 0 190.5 -15t118.5 -64q99 -99 99 -252zM572 338q0 138 -83 221q-44 44 -101.5 57.5t-174.5 13.5h-72v-260h210v-37h-210v-296h96q65 0 97 2t78 18.5t80 50.5q80 79 80 230z
" />
    <glyph glyph-name="Ntilde" unicode="&#xd1;" horiz-adv-x="620" 
d="M532 0h-60l-344 608l1 -608h-41v667h55l349 -617l-1 617h41v-667zM456 759q-40 -40 -93 -40q-18 0 -55 11t-57 11q-32 0 -64 -22l-25 29q16 14 25 20t26.5 12.5t37.5 6.5q19 0 57 -12t56 -12q10 0 19.5 1.5t15.5 3.5t12.5 5.5t9 5.5t6.5 5t5 4z" />
    <glyph glyph-name="Ograve" unicode="&#xd2;" horiz-adv-x="690" 
d="M633 335q0 -152 -81.5 -249t-211.5 -97q-121 0 -202 95.5t-81 240.5q0 155 82.5 254.5t211.5 99.5q122 0 202 -96.5t80 -247.5zM586 340q0 133 -68.5 216t-174.5 83q-109 0 -174 -82.5t-65 -218.5q0 -134 68.5 -221.5t172.5 -87.5q108 0 174.5 82.5t66.5 228.5zM461 746
l-15 -31l-209 77l21 48z" />
    <glyph glyph-name="Oacute" unicode="&#xd3;" horiz-adv-x="690" 
d="M633 335q0 -152 -81.5 -249t-211.5 -97q-121 0 -202 95.5t-81 240.5q0 155 82.5 254.5t211.5 99.5q122 0 202 -96.5t80 -247.5zM586 340q0 133 -68.5 216t-174.5 83q-109 0 -174 -82.5t-65 -218.5q0 -134 68.5 -221.5t172.5 -87.5q108 0 174.5 82.5t66.5 228.5zM462 793
l-209 -77l-15 31l203 94z" />
    <glyph glyph-name="Ocircumflex" unicode="&#xd4;" horiz-adv-x="690" 
d="M633 335q0 -152 -81.5 -249t-211.5 -97q-121 0 -202 95.5t-81 240.5q0 155 82.5 254.5t211.5 99.5q122 0 202 -96.5t80 -247.5zM586 340q0 133 -68.5 216t-174.5 83q-109 0 -174 -82.5t-65 -218.5q0 -134 68.5 -221.5t172.5 -87.5q108 0 174.5 82.5t66.5 228.5zM496 745
l-19 -30l-127 67l-127 -67l-21 30l148 90z" />
    <glyph glyph-name="Otilde" unicode="&#xd5;" horiz-adv-x="690" 
d="M633 335q0 -152 -81.5 -249t-211.5 -97q-121 0 -202 95.5t-81 240.5q0 155 82.5 254.5t211.5 99.5q122 0 202 -96.5t80 -247.5zM586 340q0 133 -68.5 216t-174.5 83q-109 0 -174 -82.5t-65 -218.5q0 -134 68.5 -221.5t172.5 -87.5q108 0 174.5 82.5t66.5 228.5zM494 759
q-40 -40 -93 -40q-18 0 -55 11t-57 11q-32 0 -64 -22l-25 29q16 14 25 20t26.5 12.5t37.5 6.5q19 0 57 -12t56 -12q10 0 19.5 1.5t15.5 3.5t12.5 5.5t9 5.5t6.5 5t5 4z" />
    <glyph glyph-name="Odieresis" unicode="&#xd6;" horiz-adv-x="690" 
d="M633 335q0 -152 -81.5 -249t-211.5 -97q-121 0 -202 95.5t-81 240.5q0 155 82.5 254.5t211.5 99.5q122 0 202 -96.5t80 -247.5zM586 340q0 133 -68.5 216t-174.5 83q-109 0 -174 -82.5t-65 -218.5q0 -134 68.5 -221.5t172.5 -87.5q108 0 174.5 82.5t66.5 228.5zM455 767
q0 -15 -10 -25.5t-25 -10.5t-25.5 10.5t-10.5 25.5t10.5 25t25.5 10t25 -10t10 -25zM315 767q0 -15 -10 -25.5t-25 -10.5t-25.5 10.5t-10.5 25.5t10.5 25t25.5 10t25 -10t10 -25z" />
    <glyph glyph-name="multiply" unicode="&#xd7;" 
d="M508 59l-26 -26l-193 191l-192 -191l-25 26l191 191l-191 193l25 26l192 -192l193 192l26 -26l-192 -193z" />
    <glyph glyph-name="Oslash" unicode="&#xd8;" horiz-adv-x="690" 
d="M633 335q0 -152 -81.5 -249t-211.5 -97q-34 0 -68 9.5t-50 18t-20 12.5l-54 -94l-35 20l56 100q-11 8 -24 23t-36 47.5t-37.5 85t-14.5 114.5q0 155 82.5 254.5t211.5 99.5q40 0 77 -11.5t52 -20.5t21 -15l55 98l34 -21l-58 -103q4 -3 11 -10t24.5 -31t30.5 -52.5
t24 -76.5t11 -101zM586 340q0 67 -20 124t-34.5 76.5t-23.5 27.5l-285 -501l7 -5q6 -4 16.5 -9.5t24.5 -11t34 -9.5t40 -4q108 0 174.5 83t66.5 229zM478 595q-19 17 -56.5 30.5t-78.5 13.5q-109 0 -174 -82.5t-65 -218.5q0 -80 25 -144t62 -100z" />
    <glyph glyph-name="Ugrave" unicode="&#xd9;" horiz-adv-x="605" 
d="M527 291q0 -110 -9 -150q-13 -56 -49 -92q-60 -60 -166 -60t-168 62q-9 9 -16.5 20t-13.5 20t-10 22.5t-7 22t-5 25.5t-3 25t-1.5 28.5t-0.5 28v31.5v32v361h43v-430q0 -37 2 -59.5t12 -50.5t30 -48q51 -51 141 -51q83 0 129 46q24 24 35 56.5t12.5 60t1.5 95.5v381h43
v-376zM409 746l-15 -31l-209 77l21 48z" />
    <glyph glyph-name="Uacute" unicode="&#xda;" horiz-adv-x="605" 
d="M527 291q0 -110 -9 -150q-13 -56 -49 -92q-60 -60 -166 -60t-168 62q-9 9 -16.5 20t-13.5 20t-10 22.5t-7 22t-5 25.5t-3 25t-1.5 28.5t-0.5 28v31.5v32v361h43v-430q0 -37 2 -59.5t12 -50.5t30 -48q51 -51 141 -51q83 0 129 46q24 24 35 56.5t12.5 60t1.5 95.5v381h43
v-376zM417 792l-209 -77l-15 31l203 94z" />
    <glyph glyph-name="Ucircumflex" unicode="&#xdb;" horiz-adv-x="605" 
d="M527 291q0 -110 -9 -150q-13 -56 -49 -92q-60 -60 -166 -60t-168 62q-9 9 -16.5 20t-13.5 20t-10 22.5t-7 22t-5 25.5t-3 25t-1.5 28.5t-0.5 28v31.5v32v361h43v-430q0 -37 2 -59.5t12 -50.5t30 -48q51 -51 141 -51q83 0 129 46q24 24 35 56.5t12.5 60t1.5 95.5v381h43
v-376zM445 745l-19 -30l-127 67l-127 -67l-21 30l148 90z" />
    <glyph glyph-name="Udieresis" unicode="&#xdc;" horiz-adv-x="605" 
d="M527 291q0 -110 -9 -150q-13 -56 -49 -92q-60 -60 -166 -60t-168 62q-9 9 -16.5 20t-13.5 20t-10 22.5t-7 22t-5 25.5t-3 25t-1.5 28.5t-0.5 28v31.5v32v361h43v-430q0 -37 2 -59.5t12 -50.5t30 -48q51 -51 141 -51q83 0 129 46q24 24 35 56.5t12.5 60t1.5 95.5v381h43
v-376zM408 767q0 -15 -10 -25.5t-25 -10.5t-25.5 10.5t-10.5 25.5t10.5 25t25.5 10t25 -10t10 -25zM268 767q0 -15 -10 -25.5t-25 -10.5t-25.5 10.5t-10.5 25.5t10.5 25t25.5 10t25 -10t10 -25z" />
    <glyph glyph-name="Yacute" unicode="&#xdd;" horiz-adv-x="527" 
d="M499 667l-214 -404v-263h-43v263l-214 404h50l188 -359l185 359h48zM376 792l-209 -77l-15 31l203 94z" />
    <glyph glyph-name="Thorn" unicode="&#xde;" horiz-adv-x="530" 
d="M473 345q0 -87 -57 -144q-50 -50 -164 -50h-121v-151h-43v667h43v-133h99q69 0 113 -9t76 -41q54 -54 54 -139zM429 348q0 68 -44 112q-25 25 -59 31t-106 6h-89v-309h116q97 0 136 39q46 46 46 121z" />
    <glyph glyph-name="germandbls" unicode="&#xdf;" horiz-adv-x="514" 
d="M469 151q0 -76 -52 -119t-126 -43q-33 0 -63.5 9t-43 15.5t-18.5 11.5l19 33q52 -29 104 -29q59 0 97 31t38 86q0 47 -44 91q-10 11 -48.5 40t-54.5 45q-24 24 -24 49q0 21 17.5 45t39 43t39 47.5t17.5 58.5q0 57 -34 92.5t-88 35.5q-52 0 -88 -36q-23 -23 -33 -58
t-10 -113v-486h-41v445v19q0 60 1.5 89t13.5 66t36 61q51 51 124 51q71 0 117.5 -46.5t46.5 -117.5q0 -36 -16.5 -69t-36.5 -52t-36.5 -38.5t-16.5 -32.5q0 -5 0.5 -8.5t3 -7t4 -5t5.5 -6t6 -6.5q7 -7 53 -42t69 -69t23 -80z" />
    <glyph glyph-name="agrave" unicode="&#xe0;" horiz-adv-x="454" 
d="M389 0h-41v36q-1 0 -8 -4.5t-13.5 -8t-17.5 -8.5t-23 -9t-26.5 -8t-31.5 -6t-34 -2q-69 0 -111 38.5t-42 101.5q0 36 14 64t40 44t52 26.5t62.5 14.5t58 5t51.5 1h29v26v14.5v17t-0.5 15.5t-2.5 16.5t-4.5 14.5t-7 15.5t-10.5 12.5q-34 34 -100 34q-34 0 -67 -10
t-47.5 -18.5t-17.5 -11.5l-21 30q3 4 20.5 14.5t56.5 22t82 11.5q78 0 122 -44q22 -22 30 -50t8 -83v-312zM348 72v177h-35q-109 0 -169 -26.5t-60 -93.5q0 -42 29.5 -71.5t90.5 -29.5q13 0 27.5 2t26.5 4.5t23.5 6.5t21 8t18 8t14 7t9.5 6zM345 576l-15 -31l-209 77l21 48z
" />
    <glyph glyph-name="aacute" unicode="&#xe1;" horiz-adv-x="454" 
d="M389 0h-41v36q-1 0 -8 -4.5t-13.5 -8t-17.5 -8.5t-23 -9t-26.5 -8t-31.5 -6t-34 -2q-69 0 -111 38.5t-42 101.5q0 36 14 64t40 44t52 26.5t62.5 14.5t58 5t51.5 1h29v26v14.5v17t-0.5 15.5t-2.5 16.5t-4.5 14.5t-7 15.5t-10.5 12.5q-34 34 -100 34q-34 0 -67 -10
t-47.5 -18.5t-17.5 -11.5l-21 30q3 4 20.5 14.5t56.5 22t82 11.5q78 0 122 -44q22 -22 30 -50t8 -83v-312zM348 72v177h-35q-109 0 -169 -26.5t-60 -93.5q0 -42 29.5 -71.5t90.5 -29.5q13 0 27.5 2t26.5 4.5t23.5 6.5t21 8t18 8t14 7t9.5 6zM339 622l-209 -77l-15 31l203 94
z" />
    <glyph glyph-name="acircumflex" unicode="&#xe2;" horiz-adv-x="454" 
d="M389 0h-41v36q-1 0 -8 -4.5t-13.5 -8t-17.5 -8.5t-23 -9t-26.5 -8t-31.5 -6t-34 -2q-69 0 -111 38.5t-42 101.5q0 36 14 64t40 44t52 26.5t62.5 14.5t58 5t51.5 1h29v26v14.5v17t-0.5 15.5t-2.5 16.5t-4.5 14.5t-7 15.5t-10.5 12.5q-34 34 -100 34q-34 0 -67 -10
t-47.5 -18.5t-17.5 -11.5l-21 30q3 4 20.5 14.5t56.5 22t82 11.5q78 0 122 -44q22 -22 30 -50t8 -83v-312zM348 72v177h-35q-109 0 -169 -26.5t-60 -93.5q0 -42 29.5 -71.5t90.5 -29.5q13 0 27.5 2t26.5 4.5t23.5 6.5t21 8t18 8t14 7t9.5 6zM370 580l-19 -30l-127 67
l-127 -67l-21 30l148 90z" />
    <glyph glyph-name="atilde" unicode="&#xe3;" horiz-adv-x="454" 
d="M389 0h-41v36q-1 0 -8 -4.5t-13.5 -8t-17.5 -8.5t-23 -9t-26.5 -8t-31.5 -6t-34 -2q-69 0 -111 38.5t-42 101.5q0 36 14 64t40 44t52 26.5t62.5 14.5t58 5t51.5 1h29v26v14.5v17t-0.5 15.5t-2.5 16.5t-4.5 14.5t-7 15.5t-10.5 12.5q-34 34 -100 34q-34 0 -67 -10
t-47.5 -18.5t-17.5 -11.5l-21 30q3 4 20.5 14.5t56.5 22t82 11.5q78 0 122 -44q22 -22 30 -50t8 -83v-312zM348 72v177h-35q-109 0 -169 -26.5t-60 -93.5q0 -42 29.5 -71.5t90.5 -29.5q13 0 27.5 2t26.5 4.5t23.5 6.5t21 8t18 8t14 7t9.5 6zM373 615q-40 -40 -93 -40
q-18 0 -55 11t-57 11q-32 0 -64 -22l-25 29q16 14 25 20t26.5 12.5t37.5 6.5q18 0 56 -12t57 -12q10 0 19.5 1.5t15.5 3.5t12.5 5.5t9 5.5t6.5 5t5 4z" />
    <glyph glyph-name="adieresis" unicode="&#xe4;" horiz-adv-x="454" 
d="M389 0h-41v36q-1 0 -8 -4.5t-13.5 -8t-17.5 -8.5t-23 -9t-26.5 -8t-31.5 -6t-34 -2q-69 0 -111 38.5t-42 101.5q0 36 14 64t40 44t52 26.5t62.5 14.5t58 5t51.5 1h29v26v14.5v17t-0.5 15.5t-2.5 16.5t-4.5 14.5t-7 15.5t-10.5 12.5q-34 34 -100 34q-34 0 -67 -10
t-47.5 -18.5t-17.5 -11.5l-21 30q3 4 20.5 14.5t56.5 22t82 11.5q78 0 122 -44q22 -22 30 -50t8 -83v-312zM348 72v177h-35q-109 0 -169 -26.5t-60 -93.5q0 -42 29.5 -71.5t90.5 -29.5q13 0 27.5 2t26.5 4.5t23.5 6.5t21 8t18 8t14 7t9.5 6zM334 609q0 -15 -10 -25.5
t-25 -10.5t-25.5 10.5t-10.5 25.5t10.5 25t25.5 10t25 -10t10 -25zM194 609q0 -15 -10 -25.5t-25 -10.5t-25.5 10.5t-10.5 25.5t10.5 25t25.5 10t25 -10t10 -25z" />
    <glyph glyph-name="aring" unicode="&#xe5;" horiz-adv-x="454" 
d="M389 0h-41v36q-1 0 -8 -4.5t-13.5 -8t-17.5 -8.5t-23 -9t-26.5 -8t-31.5 -6t-34 -2q-69 0 -111 38.5t-42 101.5q0 36 14 64t40 44t52 26.5t62.5 14.5t58 5t51.5 1h29v26v14.5v17t-0.5 15.5t-2.5 16.5t-4.5 14.5t-7 15.5t-10.5 12.5q-34 34 -100 34q-34 0 -67 -10
t-47.5 -18.5t-17.5 -11.5l-21 30q3 4 20.5 14.5t56.5 22t82 11.5q78 0 122 -44q22 -22 30 -50t8 -83v-312zM348 72v177h-35q-109 0 -169 -26.5t-60 -93.5q0 -42 29.5 -71.5t90.5 -29.5q13 0 27.5 2t26.5 4.5t23.5 6.5t21 8t18 8t14 7t9.5 6zM324 625q0 -39 -28 -67t-67 -28
t-67 28t-28 67q0 41 28 68t67 27q40 0 67.5 -28t27.5 -67zM289 625q0 26 -17.5 43t-42.5 17q-24 0 -41.5 -18t-17.5 -42t17.5 -41.5t41.5 -17.5q25 0 42.5 17.5t17.5 41.5z" />
    <glyph glyph-name="ae" unicode="&#xe6;" horiz-adv-x="774" 
d="M729 266q0 -8 -2 -30h-350q0 -94 46.5 -149t129.5 -55q37 0 72.5 10t52.5 20l17 11l20 -34q-5 -5 -22.5 -15t-58.5 -21.5t-84 -11.5q-102 0 -157 66q-21 -21 -71 -43t-113 -22q-76 0 -120 37.5t-44 96.5q0 39 16 67t39.5 43.5t61 24t69 11t74.5 2.5h31v37v14.5v17
t-0.5 15.5t-2.5 16.5t-4.5 14.5t-7 15.5t-10.5 12.5q-34 34 -100 34q-34 0 -67 -10t-47.5 -18.5t-17.5 -11.5l-21 30q3 4 20.5 14.5t56.5 22t82 11.5q78 0 122 -44q24 -24 32 -55q7 12 17 24.5t30.5 31.5t54.5 30.5t75 11.5q79 0 130 -59t51 -163zM687 274q0 71 -35.5 124.5
t-103.5 53.5t-116.5 -48.5t-52.5 -129.5h308zM370 88q-35 62 -35 148h-32q-33 0 -56.5 -1.5t-55 -7.5t-51 -17t-33.5 -32.5t-14 -51.5q0 -43 30.5 -68t82.5 -25q21 0 41 3t36 7.5t29.5 10t23.5 11.5t17 10.5t12 8.5z" />
    <glyph glyph-name="ccedilla" unicode="&#xe7;" horiz-adv-x="453" 
d="M421 36q-3 -5 -23 -15t-57.5 -20t-75.5 -10h-6l-9 -52q15 9 35 9q36 0 57.5 -22t21.5 -58q0 -38 -27.5 -61.5t-62.5 -23.5q-37 0 -67 16l12 28q28 -12 47 -12q31 0 44.5 16t13.5 35q0 22 -14 35.5t-36 13.5q-25 0 -42 -13l-21 12l17 80q-83 12 -133 73t-50 160
q0 116 64 188.5t169 72.5q37 0 71 -10.5t47 -19t19 -14.5l-21 -31q-56 35 -119 35q-85 0 -136 -59t-51 -153q0 -93 50 -148.5t126 -55.5q19 0 37 2.5t31.5 6t26.5 8.5t20.5 8.5t14.5 7.5t8 4z" />
    <glyph glyph-name="egrave" unicode="&#xe8;" horiz-adv-x="485" 
d="M440 266q0 -8 -2 -30h-350q0 -94 46.5 -149t129.5 -55q37 0 72.5 10t52.5 20l17 11l20 -34q-5 -5 -23.5 -15t-59 -21.5t-82.5 -11.5q-100 0 -158 66.5t-58 177.5q0 117 58 185t156 68q79 0 130 -59t51 -163zM398 274q0 71 -35.5 124.5t-103.5 53.5q-67 0 -116 -48.5
t-53 -129.5h308zM360 576l-15 -31l-209 77l21 48z" />
    <glyph glyph-name="eacute" unicode="&#xe9;" horiz-adv-x="485" 
d="M440 266q0 -8 -2 -30h-350q0 -94 46.5 -149t129.5 -55q37 0 72.5 10t52.5 20l17 11l20 -34q-5 -5 -23.5 -15t-59 -21.5t-82.5 -11.5q-100 0 -158 66.5t-58 177.5q0 117 58 185t156 68q79 0 130 -59t51 -163zM398 274q0 71 -35.5 124.5t-103.5 53.5q-67 0 -116 -48.5
t-53 -129.5h308zM372 622l-209 -77l-15 31l203 94z" />
    <glyph glyph-name="ecircumflex" unicode="&#xea;" horiz-adv-x="485" 
d="M440 266q0 -8 -2 -30h-350q0 -94 46.5 -149t129.5 -55q37 0 72.5 10t52.5 20l17 11l20 -34q-5 -5 -23.5 -15t-59 -21.5t-82.5 -11.5q-100 0 -158 66.5t-58 177.5q0 117 58 185t156 68q79 0 130 -59t51 -163zM398 274q0 71 -35.5 124.5t-103.5 53.5q-67 0 -116 -48.5
t-53 -129.5h308zM399 580l-19 -30l-127 67l-127 -67l-21 30l148 90z" />
    <glyph glyph-name="edieresis" unicode="&#xeb;" horiz-adv-x="485" 
d="M440 266q0 -8 -2 -30h-350q0 -94 46.5 -149t129.5 -55q37 0 72.5 10t52.5 20l17 11l20 -34q-5 -5 -23.5 -15t-59 -21.5t-82.5 -11.5q-100 0 -158 66.5t-58 177.5q0 117 58 185t156 68q79 0 130 -59t51 -163zM398 274q0 71 -35.5 124.5t-103.5 53.5q-67 0 -116 -48.5
t-53 -129.5h308zM358 609q0 -15 -10 -25.5t-25 -10.5t-25.5 10.5t-10.5 25.5t10.5 25t25.5 10t25 -10t10 -25zM218 609q0 -15 -10 -25.5t-25 -10.5t-25.5 10.5t-10.5 25.5t10.5 25t25.5 10t25 -10t10 -25z" />
    <glyph glyph-name="igrave" unicode="&#xec;" horiz-adv-x="185" 
d="M113 0h-41v477h41v-477zM205 576l-15 -31l-209 77l21 48z" />
    <glyph glyph-name="iacute" unicode="&#xed;" horiz-adv-x="185" 
d="M113 0h-41v477h41v-477zM205 622l-209 -77l-15 31l203 94z" />
    <glyph glyph-name="icircumflex" unicode="&#xee;" horiz-adv-x="185" 
d="M113 0h-41v477h41v-477zM239 580l-19 -30l-127 67l-127 -67l-21 30l148 90z" />
    <glyph glyph-name="idieresis" unicode="&#xef;" horiz-adv-x="185" 
d="M113 0h-41v477h41v-477zM198 609q0 -15 -10 -25.5t-25 -10.5t-25.5 10.5t-10.5 25.5t10.5 25t25.5 10t25 -10t10 -25zM58 609q0 -15 -10 -25.5t-25 -10.5t-25.5 10.5t-10.5 25.5t10.5 25t25.5 10t25 -10t10 -25z" />
    <glyph glyph-name="eth" unicode="&#xf0;" horiz-adv-x="497" 
d="M452 336q0 -160 -54.5 -252t-149.5 -97q-87 -4 -142.5 63.5t-60.5 184.5q-5 114 46.5 183.5t139.5 69.5q81 0 173 -60q-11 132 -101 211l-123 -62l-16 28l110 55q-71 43 -199 46l2 36q145 -1 239 -60l91 46l16 -28l-80 -41q109 -102 109 -323zM408 326q0 2 -1 24t-1 32
q-73 68 -172 68q-69 0 -109 -59.5t-36 -155.5t46.5 -153t109.5 -54q73 3 118 79t45 219z" />
    <glyph glyph-name="ntilde" unicode="&#xf1;" horiz-adv-x="490" 
d="M425 0h-41v286q0 40 -1 58.5t-8 41t-21 36.5q-28 28 -85 28q-70 0 -156 -53v-397h-41v477h41v-41q9 7 26.5 17t57 22.5t76.5 12.5q73 0 111 -38q26 -26 33.5 -56.5t7.5 -88.5v-305zM399 615q-40 -40 -93 -40q-18 0 -55 11t-57 11q-32 0 -64 -22l-25 29q16 14 25 20
t26.5 12.5t37.5 6.5q18 0 56 -12t57 -12q10 0 19.5 1.5t15.5 3.5t12.5 5.5t9 5.5t6.5 5t5 4z" />
    <glyph glyph-name="ograve" unicode="&#xf2;" horiz-adv-x="510" 
d="M465 232q0 -112 -57 -177.5t-154 -65.5q-96 0 -152.5 67t-56.5 183q0 115 56.5 182t156.5 67q96 0 151.5 -67.5t55.5 -188.5zM422 236q0 96 -47.5 156t-119.5 60q-77 0 -122 -58t-45 -154q0 -95 47.5 -154.5t119.5 -59.5q79 0 123 56.5t44 153.5zM361 576l-15 -31
l-209 77l21 48z" />
    <glyph glyph-name="oacute" unicode="&#xf3;" horiz-adv-x="510" 
d="M465 232q0 -112 -57 -177.5t-154 -65.5q-96 0 -152.5 67t-56.5 183q0 115 56.5 182t156.5 67q96 0 151.5 -67.5t55.5 -188.5zM422 236q0 96 -47.5 156t-119.5 60q-77 0 -122 -58t-45 -154q0 -95 47.5 -154.5t119.5 -59.5q79 0 123 56.5t44 153.5zM371 622l-209 -77
l-15 31l203 94z" />
    <glyph glyph-name="ocircumflex" unicode="&#xf4;" horiz-adv-x="510" 
d="M465 232q0 -112 -57 -177.5t-154 -65.5q-96 0 -152.5 67t-56.5 183q0 115 56.5 182t156.5 67q96 0 151.5 -67.5t55.5 -188.5zM422 236q0 96 -47.5 156t-119.5 60q-77 0 -122 -58t-45 -154q0 -95 47.5 -154.5t119.5 -59.5q79 0 123 56.5t44 153.5zM403 580l-19 -30
l-127 67l-127 -67l-21 30l148 90z" />
    <glyph glyph-name="otilde" unicode="&#xf5;" horiz-adv-x="510" 
d="M465 232q0 -112 -57 -177.5t-154 -65.5q-96 0 -152.5 67t-56.5 183q0 115 56.5 182t156.5 67q96 0 151.5 -67.5t55.5 -188.5zM422 236q0 96 -47.5 156t-119.5 60q-77 0 -122 -58t-45 -154q0 -95 47.5 -154.5t119.5 -59.5q79 0 123 56.5t44 153.5zM400 615
q-40 -40 -93 -40q-18 0 -55 11t-57 11q-32 0 -64 -22l-25 29q16 14 25 20t26.5 12.5t37.5 6.5q19 0 57 -12t56 -12q10 0 19.5 1.5t15.5 3.5t12.5 5.5t9 5.5t6.5 5t5 4z" />
    <glyph glyph-name="odieresis" unicode="&#xf6;" horiz-adv-x="510" 
d="M465 232q0 -112 -57 -177.5t-154 -65.5q-96 0 -152.5 67t-56.5 183q0 115 56.5 182t156.5 67q96 0 151.5 -67.5t55.5 -188.5zM422 236q0 96 -47.5 156t-119.5 60q-77 0 -122 -58t-45 -154q0 -95 47.5 -154.5t119.5 -59.5q79 0 123 56.5t44 153.5zM355 609
q0 -15 -10 -25.5t-25 -10.5t-25.5 10.5t-10.5 25.5t10.5 25t25.5 10t25 -10t10 -25zM215 609q0 -15 -10 -25.5t-25 -10.5t-25.5 10.5t-10.5 25.5t10.5 25t25.5 10t25 -10t10 -25z" />
    <glyph glyph-name="divide" unicode="&#xf7;" 
d="M325 468q0 -15 -10 -25.5t-25 -10.5t-25.5 10.5t-10.5 25.5t10.5 25t25.5 10t25 -10t10 -25zM520 232h-460v38h460v-38zM325 38q0 -15 -10 -25.5t-25 -10.5t-25.5 10.5t-10.5 25.5t10.5 25t25.5 10t25 -10t10 -25z" />
    <glyph glyph-name="oslash" unicode="&#xf8;" horiz-adv-x="510" 
d="M465 232q0 -112 -57 -177.5t-154 -65.5q-59 0 -99 23l-34 -57l-33 20l35 59q-78 67 -78 205q0 115 56.5 182t156.5 67q66 0 112 -31l33 57l34 -19l-37 -64q65 -68 65 -199zM422 236q0 93 -46 154l-200 -342q31 -22 79 -22q79 0 123 56.5t44 153.5zM348 419q-41 33 -93 33
q-77 0 -122 -58t-45 -154q0 -51 16.5 -96.5t41.5 -70.5z" />
    <glyph glyph-name="ugrave" unicode="&#xf9;" horiz-adv-x="490" 
d="M418 0h-41v41q-1 0 -7 -4t-11 -7t-14.5 -8.5t-18.5 -9t-22 -8t-26 -7.5t-29 -5t-33 -2q-67 0 -110 43q-27 27 -34 60.5t-7 94.5v289h41v-293v-8q0 -30 1 -45.5t7.5 -36t20.5 -34.5q33 -33 86 -33q15 0 30 2t28 5.5t25.5 8t22.5 9t19.5 9.5t15 8.5t10.5 6.5l5 3v398h41
v-477zM353 576l-15 -31l-209 77l21 48z" />
    <glyph glyph-name="uacute" unicode="&#xfa;" horiz-adv-x="490" 
d="M418 0h-41v41q-1 0 -7 -4t-11 -7t-14.5 -8.5t-18.5 -9t-22 -8t-26 -7.5t-29 -5t-33 -2q-67 0 -110 43q-27 27 -34 60.5t-7 94.5v289h41v-293v-8q0 -30 1 -45.5t7.5 -36t20.5 -34.5q33 -33 86 -33q15 0 30 2t28 5.5t25.5 8t22.5 9t19.5 9.5t15 8.5t10.5 6.5l5 3v398h41
v-477zM354 622l-209 -77l-15 31l203 94z" />
    <glyph glyph-name="ucircumflex" unicode="&#xfb;" horiz-adv-x="490" 
d="M418 0h-41v41q-1 0 -7 -4t-11 -7t-14.5 -8.5t-18.5 -9t-22 -8t-26 -7.5t-29 -5t-33 -2q-67 0 -110 43q-27 27 -34 60.5t-7 94.5v289h41v-293v-8q0 -30 1 -45.5t7.5 -36t20.5 -34.5q33 -33 86 -33q15 0 30 2t28 5.5t25.5 8t22.5 9t19.5 9.5t15 8.5t10.5 6.5l5 3v398h41
v-477zM389 580l-19 -30l-127 67l-127 -67l-21 30l148 90z" />
    <glyph glyph-name="udieresis" unicode="&#xfc;" horiz-adv-x="490" 
d="M418 0h-41v41q-1 0 -7 -4t-11 -7t-14.5 -8.5t-18.5 -9t-22 -8t-26 -7.5t-29 -5t-33 -2q-67 0 -110 43q-27 27 -34 60.5t-7 94.5v289h41v-293v-8q0 -30 1 -45.5t7.5 -36t20.5 -34.5q33 -33 86 -33q15 0 30 2t28 5.5t25.5 8t22.5 9t19.5 9.5t15 8.5t10.5 6.5l5 3v398h41
v-477zM347 609q0 -15 -10 -25.5t-25 -10.5t-25.5 10.5t-10.5 25.5t10.5 25t25.5 10t25 -10t10 -25zM207 609q0 -15 -10 -25.5t-25 -10.5t-25.5 10.5t-10.5 25.5t10.5 25t25.5 10t25 -10t10 -25z" />
    <glyph glyph-name="yacute" unicode="&#xfd;" horiz-adv-x="468" 
d="M441 477l-188 -519q-37 -100 -71 -134q-49 -49 -121 -49q-51 0 -79 14l12 36q38 -11 66 -11q54 0 87 33q9 9 17.5 21t17.5 30.5t12.5 26t13.5 33.5t11 28l-196 491h47l172 -434l154 434h45zM349 622l-209 -77l-15 31l203 94z" />
    <glyph glyph-name="thorn" unicode="&#xfe;" horiz-adv-x="506" 
d="M461 249q0 -114 -64.5 -186t-167.5 -72q-63 0 -116 30v-233h-41v931h41v-276q7 6 21.5 14.5t49 19.5t71.5 11q92 0 149 -65.5t57 -173.5zM418 252q0 88 -45.5 143.5t-121.5 55.5q-15 0 -29.5 -2t-26 -5t-22.5 -7.5t-19 -8.5t-16 -9t-12 -8.5t-8 -6.5l-5 -4v-336
q56 -35 119 -35q84 0 135 61.5t51 161.5z" />
    <glyph glyph-name="ydieresis" unicode="&#xff;" horiz-adv-x="468" 
d="M441 477l-188 -519q-37 -100 -71 -134q-49 -49 -121 -49q-51 0 -79 14l12 36q38 -11 66 -11q54 0 87 33q9 9 17.5 21t17.5 30.5t12.5 26t13.5 33.5t11 28l-196 491h47l172 -434l154 434h45zM345 609q0 -15 -10 -25.5t-25 -10.5t-25.5 10.5t-10.5 25.5t10.5 25t25.5 10
t25 -10t10 -25zM205 609q0 -15 -10 -25.5t-25 -10.5t-25.5 10.5t-10.5 25.5t10.5 25t25.5 10t25 -10t10 -25z" />
    <glyph glyph-name="Idotaccent" unicode="&#x130;" horiz-adv-x="217" 
d="M131 0h-43v667h43v-667zM144 767q0 -15 -10 -25.5t-25 -10.5t-25.5 10.5t-10.5 25.5t10.5 25t25.5 10t25 -10t10 -25z" />
    <glyph glyph-name="dotlessi" unicode="&#x131;" horiz-adv-x="185" 
d="M113 0h-41v477h41v-477z" />
    <glyph glyph-name="Lslash" unicode="&#x141;" horiz-adv-x="480" 
d="M445 0h-338v304l-89 -66l-20 25l109 82v322h43v-299l129 95l20 -25l-149 -109v-289h295v-40z" />
    <glyph glyph-name="lslash" unicode="&#x142;" horiz-adv-x="264" 
d="M266 447l-120 -89v-358h-41v336l-88 -68l-19 25l107 80v346h41v-323l101 76z" />
    <glyph glyph-name="OE" unicode="&#x152;" horiz-adv-x="869" 
d="M810 0h-345q-121 0 -190.5 15t-118.5 64q-99 99 -99 252q0 158 97 255q49 49 109.5 65t159.5 16h379v-39h-295v-258h277v-37h-277v-293h303v-40zM464 39v590h-25q-65 0 -97 -2t-78 -18.5t-80 -50.5q-80 -79 -80 -229q0 -136 83 -219q44 -44 101.5 -57.5t174.5 -13.5h1z
" />
    <glyph glyph-name="oe" unicode="&#x153;" horiz-adv-x="858" 
d="M813 266q0 -8 -2 -30h-350q0 -94 46.5 -149t129.5 -55q37 0 72.5 10t52.5 20l17 11l20 -34q-5 -5 -22.5 -15t-58.5 -21.5t-84 -11.5q-68 0 -117.5 31.5t-73.5 88.5q-25 -58 -73.5 -90t-115.5 -32q-96 0 -152.5 67t-56.5 183q0 115 56.5 182t156.5 67q135 0 184 -123
q54 123 190 123q79 0 130 -59t51 -163zM771 274q0 71 -35.5 124.5t-103.5 53.5t-116.5 -48.5t-52.5 -129.5h308zM422 236q0 96 -47.5 156t-119.5 60q-77 0 -122 -58t-45 -154q0 -95 47.5 -154.5t119.5 -59.5q79 0 123 56.5t44 153.5z" />
    <glyph glyph-name="Scaron" unicode="&#x160;" horiz-adv-x="503" 
d="M440 180q0 -85 -52.5 -138t-151.5 -53q-106 0 -185 69l25 33l6 -4l10 -8t14.5 -10t19 -11t22.5 -10.5t26 -9.5t28.5 -6.5t30.5 -2.5q78 0 120 40.5t42 107.5q0 49 -38 87q-32 32 -124.5 72t-124.5 72q-40 40 -40 105q0 73 51.5 119.5t136.5 46.5q106 0 176 -70l-27 -27
l-5 5q-5 5 -10.5 9.5t-14.5 11t-20.5 12t-25.5 10.5t-32 8t-37 3q-66 0 -108.5 -36t-42.5 -91q0 -45 32 -77q30 -30 123 -68t127 -72q49 -49 49 -117zM408 805l-148 -90l-146 90l19 30l127 -67l127 67z" />
    <glyph glyph-name="scaron" unicode="&#x161;" horiz-adv-x="406" 
d="M354 127q0 -65 -45.5 -101.5t-122.5 -36.5q-41 0 -78.5 10.5t-54 20t-19.5 13.5l19 33q60 -40 129 -40q60 0 94.5 25.5t34.5 71.5q0 35 -27 62q-22 22 -98 48.5t-103 53.5q-31 31 -31 81q0 55 43.5 87.5t107.5 32.5q84 0 135 -38l-19 -32q-51 34 -112 34q-47 0 -80 -22.5
t-33 -60.5q0 -32 22 -54q21 -21 98 -48.5t105 -55.5q35 -35 35 -84zM349 640l-148 -90l-146 90l19 30l127 -67l127 67z" />
    <glyph glyph-name="Ydieresis" unicode="&#x178;" horiz-adv-x="527" 
d="M499 667l-214 -404v-263h-43v263l-214 404h50l188 -359l185 359h48zM371 767q0 -15 -10 -25.5t-25 -10.5t-25.5 10.5t-10.5 25.5t10.5 25t25.5 10t25 -10t10 -25zM231 767q0 -15 -10 -25.5t-25 -10.5t-25.5 10.5t-10.5 25.5t10.5 25t25.5 10t25 -10t10 -25z" />
    <glyph glyph-name="Zcaron" unicode="&#x17d;" horiz-adv-x="538" 
d="M489 0h-441v35l384 593h-363v39h412v-35l-381 -592h389v-40zM417 805l-148 -90l-146 90l19 30l127 -67l127 67z" />
    <glyph glyph-name="zcaron" unicode="&#x17e;" horiz-adv-x="452" 
d="M395 0h-351v34l292 408h-276v35h324v-33l-288 -407h299v-37zM372 640l-148 -90l-146 90l19 30l127 -67l127 67z" />
    <glyph glyph-name="florin" unicode="&#x192;" 
d="M546 659l-15 -34q-27 15 -67 15q-46 0 -73.5 -28.5t-42.5 -100.5l-37 -172h156l-8 -39h-157l-65 -315q-1 -4 -4 -18.5t-4.5 -21t-4.5 -21t-5.5 -23t-6 -21.5t-7.5 -21.5t-8.5 -18t-9.5 -17t-11 -13.5q-35 -35 -93 -35q-40 0 -87 19l15 34q37 -14 71 -14q42 0 61 19
q6 6 12 14.5t10.5 21t8 22t7.5 26.5t5.5 25.5t6 29t5.5 26.5l64 302h-131l8 39h130l34 158q21 105 58 142q40 40 101 40q44 0 84 -20z" />
    <glyph glyph-name="circumflex" unicode="&#x2c6;" horiz-adv-x="370" 
d="M332 580l-19 -30l-127 67l-127 -67l-21 30l148 90z" />
    <glyph glyph-name="caron" unicode="&#x2c7;" horiz-adv-x="370" 
d="M332 640l-148 -90l-146 90l19 30l127 -67l127 67z" />
    <glyph glyph-name="breve" unicode="&#x2d8;" horiz-adv-x="370" 
d="M313 667q-5 -53 -39 -83.5t-90 -30.5t-89.5 30.5t-38.5 83.5h40q5 -31 27.5 -49t60.5 -18t61 18t28 49h40z" />
    <glyph glyph-name="dotaccent" unicode="&#x2d9;" horiz-adv-x="370" 
d="M220 609q0 -15 -10 -25.5t-25 -10.5t-25.5 10.5t-10.5 25.5t10.5 25t25.5 10t25 -10t10 -25z" />
    <glyph glyph-name="ring" unicode="&#x2da;" horiz-adv-x="370" 
d="M280 625q0 -39 -28 -67t-67 -28t-67 28t-28 67q0 41 28 68t67 27q40 0 67.5 -28t27.5 -67zM245 625q0 26 -17.5 43t-42.5 17q-24 0 -41.5 -18t-17.5 -42t17.5 -41.5t41.5 -17.5q25 0 42.5 17.5t17.5 41.5z" />
    <glyph glyph-name="ogonek" unicode="&#x2db;" horiz-adv-x="370" 
d="M282 -189q-3 -3 -13 -8.5t-34 -12.5t-49 -7q-46 0 -72.5 28t-26.5 76q0 34 14 56.5t45 44.5l43 -13q-2 -2 -11 -9t-11.5 -9t-9.5 -8.5t-9.5 -10t-7.5 -10t-6.5 -12.5t-3 -13.5t-1.5 -15.5q0 -30 18 -47.5t48 -17.5q12 0 25 2.5t20.5 5.5l17.5 7l9 4z" />
    <glyph glyph-name="tilde" unicode="&#x2dc;" horiz-adv-x="370" 
d="M332 615q-40 -40 -93 -40q-18 0 -55 11t-57 11q-32 0 -64 -22l-25 29q16 14 25 20t26.5 12.5t37.5 6.5q19 0 57 -12t56 -12q10 0 19.5 1.5t15.5 3.5t12.5 5.5t9 5.5t6.5 5t5 4z" />
    <glyph glyph-name="hungarumlaut" unicode="&#x2dd;" horiz-adv-x="370" 
d="M298 670l-66 -167l-38 12l51 172zM176 670l-64 -167l-39 12l51 172z" />
    <glyph glyph-name="Delta" unicode="&#x394;" horiz-adv-x="687" 
d="M591 0h-495l234 667h32zM535 38l-190 553l-193 -553h383z" />
    <glyph glyph-name="Omega" unicode="&#x3a9;" horiz-adv-x="809" 
d="M713 0h-232v39q53 22 88 57.5t51 79.5t22 82t6 84q0 134 -67.5 217t-176.5 83t-177 -83.5t-68 -216.5q0 -46 6 -84.5t22.5 -81.5t52 -78.5t87.5 -58.5v-39h-231v39h171q-82 43 -118.5 125t-36.5 181q0 146 82.5 240t209.5 94t209 -94.5t82 -239.5q0 -225 -153 -306h171
v-39z" />
    <glyph glyph-name="mu" unicode="&#x3bc;" horiz-adv-x="497" 
d="M425 0h-41v38q-1 -1 -12 -7t-19 -10t-24 -10.5t-30.5 -10.5t-35 -7t-41.5 -3q-66 0 -109 43v-154h-41v598h41v-293v-8q0 -30 1 -45.5t7.5 -36t20.5 -34.5q33 -33 86 -33q15 0 30 2t28 5.5t25.5 8t22.5 9t19.5 9.5t15 8.5t10.5 6.5l5 3v398h41v-477z" />
    <glyph glyph-name="pi" unicode="&#x3c0;" horiz-adv-x="657" 
d="M561 4q-15 -5 -34 -5q-39 0 -66 27q-15 15 -19.5 37.5t-4.5 71.5v304h-227v-439h-41v439h-73v38h459v-38h-77v-293q0 -46 2.5 -64.5t12.5 -28.5q16 -16 43 -16q15 0 25 2v-35z" />
    <glyph glyph-name="figuredash" unicode="&#x2012;" horiz-adv-x="568" 
d="M514 232h-460v38h460v-38z" />
    <glyph glyph-name="endash" unicode="&#x2013;" horiz-adv-x="635" 
d="M548 232h-461v38h461v-38z" />
    <glyph glyph-name="emdash" unicode="&#x2014;" horiz-adv-x="993" 
d="M906 232h-819v38h819v-38z" />
    <glyph glyph-name="quoteleft" unicode="&#x2018;" horiz-adv-x="176" 
d="M139 656q-7 -8 -15.5 -22.5t-20.5 -53t-12 -79.5h-54q0 41 15.5 82t30 62t25.5 32z" />
    <glyph glyph-name="quoteright" unicode="&#x2019;" horiz-adv-x="176" 
d="M139 667q0 -41 -15.5 -82t-30 -62t-25.5 -32l-31 21q7 8 15.5 22.5t20.5 53t12 79.5h54z" />
    <glyph glyph-name="quotesinglbase" unicode="&#x201a;" horiz-adv-x="176" 
d="M139 61q0 -41 -15.5 -82t-30 -62t-25.5 -32l-31 21q7 8 15.5 22.5t20.5 53t12 79.5h54z" />
    <glyph glyph-name="quotedblleft" unicode="&#x201c;" horiz-adv-x="292" 
d="M255 656q-7 -8 -15.5 -22.5t-20.5 -53t-12 -79.5h-54q0 41 15.5 82t30 62t25.5 32zM139 656q-7 -8 -15.5 -22.5t-20.5 -53t-12 -79.5h-54q0 41 15.5 82t30 62t25.5 32z" />
    <glyph glyph-name="quotedblright" unicode="&#x201d;" horiz-adv-x="292" 
d="M255 667q0 -41 -15.5 -82t-30 -62t-25.5 -32l-31 21q7 8 15.5 22.5t20.5 53t12 79.5h54zM139 667q0 -41 -15.5 -82t-30 -62t-25.5 -32l-31 21q7 8 15.5 22.5t20.5 53t12 79.5h54z" />
    <glyph glyph-name="quotedblbase" unicode="&#x201e;" horiz-adv-x="292" 
d="M255 61q0 -41 -15.5 -82t-30 -62t-25.5 -32l-31 21q7 8 15.5 22.5t20.5 53t12 79.5h54zM139 61q0 -41 -15.5 -82t-30 -62t-25.5 -32l-31 21q7 8 15.5 22.5t20.5 53t12 79.5h54z" />
    <glyph glyph-name="dagger" unicode="&#x2020;" horiz-adv-x="540" 
d="M468 371h-175l-5 -492h-34l-6 492h-176v42h175l-3 254h52l-2 -254h174v-42z" />
    <glyph glyph-name="daggerdbl" unicode="&#x2021;" horiz-adv-x="540" 
d="M468 175h-177l-3 -296h-34l-4 296h-178v42h178l-2 154h-176v42h175l-3 254h52l-2 -254h174v-42h-175l-2 -154h177v-42z" />
    <glyph glyph-name="bullet" unicode="&#x2022;" horiz-adv-x="534" 
d="M340 246q0 -30 -21.5 -51.5t-51.5 -21.5t-51.5 21.5t-21.5 51.5t21.5 51.5t51.5 21.5t51.5 -21.5t21.5 -51.5z" />
    <glyph glyph-name="ellipsis" unicode="&#x2026;" horiz-adv-x="600" 
d="M535 27q0 -14 -10.5 -24.5t-24.5 -10.5t-24.5 10.5t-10.5 24.5t10.5 24.5t24.5 10.5t24.5 -10.5t10.5 -24.5zM335 27q0 -14 -10.5 -24.5t-24.5 -10.5t-24.5 10.5t-10.5 24.5t10.5 24.5t24.5 10.5t24.5 -10.5t10.5 -24.5zM135 27q0 -14 -10.5 -24.5t-24.5 -10.5
t-24.5 10.5t-10.5 24.5t10.5 24.5t24.5 10.5t24.5 -10.5t10.5 -24.5z" />
    <glyph glyph-name="perthousand" unicode="&#x2030;" horiz-adv-x="1041" 
d="M326 502q0 -83 -37 -129.5t-105 -46.5q-64 0 -101.5 43.5t-37.5 118.5q0 87 37.5 135t106.5 48q63 0 100 -45.5t37 -123.5zM282 503q0 62 -24 98t-69 36q-49 0 -74.5 -38.5t-25.5 -107.5q0 -61 24.5 -96t70.5 -35t72 36.5t26 106.5zM611 674l-480 -707l-33 21l480 710z
M676 172q0 -83 -37 -129.5t-105 -46.5q-64 0 -101.5 43.5t-37.5 118.5q0 87 37.5 135t106.5 48q63 0 100 -45.5t37 -123.5zM632 173q0 62 -24 98t-69 36q-49 0 -74.5 -38.5t-25.5 -107.5q0 -61 24.5 -96t70.5 -35t72 36.5t26 106.5zM996 172q0 -83 -37 -129.5t-105 -46.5
q-64 0 -101.5 43.5t-37.5 118.5q0 87 37.5 135t106.5 48q63 0 100 -45.5t37 -123.5zM952 173q0 62 -24 98t-69 36q-49 0 -74.5 -38.5t-25.5 -107.5q0 -61 24.5 -96t70.5 -35t72 36.5t26 106.5z" />
    <glyph glyph-name="guilsinglleft" unicode="&#x2039;" horiz-adv-x="301" 
d="M236 81l-34 -23l-137 190l137 186l34 -24l-107 -162z" />
    <glyph glyph-name="guilsinglright" unicode="&#x203a;" horiz-adv-x="301" 
d="M236 248l-137 -190l-34 23l107 167l-107 162l34 24z" />
    <glyph glyph-name="fraction" unicode="&#x2044;" horiz-adv-x="0" 
d="M238 674l-480 -707l-33 21l480 710z" />
    <glyph glyph-name="zerosuperior" unicode="&#x2070;" horiz-adv-x="371" 
d="M326 502q0 -83 -37 -129.5t-105 -46.5q-64 0 -101.5 43.5t-37.5 118.5q0 87 37.5 135t106.5 48q63 0 100 -45.5t37 -123.5zM282 503q0 62 -24 98t-69 36q-49 0 -74.5 -38.5t-25.5 -107.5q0 -61 24.5 -96t70.5 -35t72 36.5t26 106.5z" />
    <glyph glyph-name="foursuperior" unicode="&#x2074;" horiz-adv-x="371" 
d="M307 413h-48v-83h-36v83h-168v28l171 226h33v-223h48v-31zM223 444v170l-128 -170h128z" />
    <glyph glyph-name="fivesuperior" unicode="&#x2075;" horiz-adv-x="371" 
d="M292 437q0 -50 -33.5 -80.5t-84.5 -30.5q-62 0 -96 34l20 27q37 -27 73 -27q37 0 58 20t21 55q0 32 -20.5 54t-57.5 22q-34 0 -59 -19l-20 9v166h182v-35h-144v-100q18 13 49 13q52 0 82 -30t30 -78z" />
    <glyph glyph-name="sixsuperior" unicode="&#x2076;" horiz-adv-x="371" 
d="M301 441q0 -50 -31 -82.5t-81 -32.5q-60 0 -89.5 46.5t-29.5 114.5q0 47 11 86.5t41 68.5t77 29q57 0 91 -34l-19 -25q-33 26 -68 26q-84 0 -90 -135q26 46 84 46q48 0 76 -30.5t28 -77.5zM263 439q0 35 -18 56.5t-51 21.5q-36 0 -55 -24t-19 -59q0 -32 19.5 -53.5
t50.5 -21.5q34 0 53.5 23.5t19.5 56.5z" />
    <glyph glyph-name="sevensuperior" unicode="&#x2077;" horiz-adv-x="371" 
d="M296 638l-134 -308h-42l136 302h-181v35h221v-29z" />
    <glyph glyph-name="eightsuperior" unicode="&#x2078;" horiz-adv-x="371" 
d="M302 422q0 -42 -32.5 -69t-83.5 -27q-52 0 -85 26.5t-33 68.5q0 32 16.5 53.5t41.5 29.5q-48 19 -48 75q0 41 31 66.5t78 25.5t76.5 -25.5t29.5 -65.5q0 -24 -14 -46t-37 -30q60 -17 60 -82zM254 579q0 27 -18.5 44t-48.5 17q-31 0 -50.5 -17t-19.5 -44q0 -30 21 -46
t49 -16q27 0 47 15.5t20 46.5zM262 422q0 30 -21 47.5t-55 17.5q-35 0 -56.5 -17.5t-21.5 -47.5t21 -47t58 -17q34 0 54.5 17t20.5 47z" />
    <glyph glyph-name="ninesuperior" unicode="&#x2079;" horiz-adv-x="371" 
d="M301 511q0 -48 -11 -87t-41.5 -68.5t-77.5 -29.5q-34 0 -59 13t-33 23l20 25q27 -27 69 -27q82 0 92 135q-12 -21 -36 -33t-49 -12q-48 0 -76.5 30.5t-28.5 77.5q0 48 31.5 80.5t79.5 32.5q43 0 71 -25.5t38.5 -59.5t10.5 -75zM252 562q0 33 -20.5 55t-51.5 22
q-34 0 -53 -23t-19 -57q0 -35 17.5 -56.5t50.5 -21.5q34 0 55 22.5t21 58.5z" />
    <glyph glyph-name="parenleftsuperior" unicode="&#x207d;" horiz-adv-x="183" 
d="M45 492q0 144 99 215l19 -22q-74 -65 -74 -191q0 -127 77 -196l-20 -23q-51 34 -76 92t-25 125z" />
    <glyph glyph-name="parenrightsuperior" unicode="&#x207e;" horiz-adv-x="183" 
d="M138 490q0 -144 -99 -215l-19 22q74 65 74 191q0 127 -77 196l20 23q51 -34 76 -92t25 -125z" />
    <glyph glyph-name="zeroinferior" unicode="&#x2080;" horiz-adv-x="371" 
d="M326 172q0 -83 -37 -129.5t-105 -46.5q-64 0 -101.5 43.5t-37.5 118.5q0 87 37.5 135t106.5 48q63 0 100 -45.5t37 -123.5zM282 173q0 62 -24 98t-69 36q-49 0 -74.5 -38.5t-25.5 -107.5q0 -61 24.5 -96t70.5 -35t72 36.5t26 106.5z" />
    <glyph glyph-name="oneinferior" unicode="&#x2081;" horiz-adv-x="371" 
d="M225 0h-38v292l-88 -54l-21 29l114 70h33v-337z" />
    <glyph glyph-name="twoinferior" unicode="&#x2082;" horiz-adv-x="371" 
d="M279 0h-197v31l37.5 37.5l38.5 38.5t31 34t28 36t16 31.5t7 32.5q0 30 -16.5 47t-46.5 17q-35 0 -73 -32l-22 22q38 46 99 46q45 0 73 -27t28 -71q0 -29 -17 -60.5t-33.5 -50t-47.5 -49.5l-51 -49h146v-34z" />
    <glyph glyph-name="threeinferior" unicode="&#x2083;" horiz-adv-x="371" 
d="M285 96q0 -47 -31.5 -73.5t-76.5 -26.5q-65 0 -99 43l24 24q33 -33 70 -33q33 0 52 15.5t19 45.5q0 22 -8.5 36t-25.5 19.5t-28.5 6.5t-31.5 1h-12v36h18q16 0 27 1.5t26 6t23 17.5t8 33q0 25 -16.5 42t-44.5 17q-35 0 -68 -33l-25 23q2 5 12 14.5t33 19.5t50 10
q45 0 73 -25.5t28 -66.5q0 -60 -62 -75q66 -13 66 -78z" />
    <glyph glyph-name="fourinferior" unicode="&#x2084;" horiz-adv-x="371" 
d="M307 83h-48v-83h-36v83h-168v28l171 226h33v-223h48v-31zM223 114v170l-128 -170h128z" />
    <glyph glyph-name="fiveinferior" unicode="&#x2085;" horiz-adv-x="371" 
d="M292 107q0 -50 -33.5 -80.5t-84.5 -30.5q-62 0 -96 34l20 27q37 -27 73 -27q37 0 58 20t21 55q0 32 -20.5 54t-57.5 22q-34 0 -59 -19l-20 9v166h182v-35h-144v-100q18 13 49 13q52 0 82 -30t30 -78z" />
    <glyph glyph-name="sixinferior" unicode="&#x2086;" horiz-adv-x="371" 
d="M301 111q0 -50 -31 -82.5t-81 -32.5q-60 0 -89.5 46.5t-29.5 114.5q0 47 11 86.5t41 68.5t77 29q57 0 91 -34l-19 -25q-33 26 -68 26q-84 0 -90 -135q26 46 84 46q48 0 76 -30.5t28 -77.5zM263 109q0 35 -18 56.5t-51 21.5q-36 0 -55 -24t-19 -59q0 -32 19.5 -53.5
t50.5 -21.5q34 0 53.5 23.5t19.5 56.5z" />
    <glyph glyph-name="seveninferior" unicode="&#x2087;" horiz-adv-x="371" 
d="M296 305l-134 -305h-42l136 299h-181v35h221v-29z" />
    <glyph glyph-name="eightinferior" unicode="&#x2088;" horiz-adv-x="371" 
d="M302 92q0 -42 -32.5 -69t-83.5 -27q-52 0 -85 26.5t-33 68.5q0 32 16.5 53.5t41.5 29.5q-48 19 -48 75q0 41 31 66.5t78 25.5t76.5 -25.5t29.5 -65.5q0 -24 -14 -46t-37 -30q60 -17 60 -82zM254 249q0 27 -18.5 44t-48.5 17q-31 0 -50.5 -17t-19.5 -44q0 -30 21 -46
t49 -16q27 0 47 15.5t20 46.5zM262 92q0 30 -21 47.5t-55 17.5q-35 0 -56.5 -17.5t-21.5 -47.5t21 -47t58 -17q34 0 54.5 17t20.5 47z" />
    <glyph glyph-name="nineinferior" unicode="&#x2089;" horiz-adv-x="371" 
d="M301 181q0 -48 -11 -87t-41.5 -68.5t-77.5 -29.5q-34 0 -59 13t-33 23l20 25q27 -27 69 -27q82 0 92 135q-12 -21 -36 -33t-49 -12q-48 0 -76.5 30.5t-28.5 77.5q0 48 31.5 80.5t79.5 32.5q43 0 71 -25.5t38.5 -59.5t10.5 -75zM252 232q0 33 -20.5 55t-51.5 22
q-34 0 -53 -23t-19 -57q0 -35 17.5 -56.5t50.5 -21.5q34 0 55 22.5t21 58.5z" />
    <glyph glyph-name="parenleftinferior" unicode="&#x208d;" horiz-adv-x="183" 
d="M45 168q0 144 99 215l19 -22q-74 -65 -74 -191q0 -127 77 -196l-20 -23q-51 34 -76 92t-25 125z" />
    <glyph glyph-name="parenrightinferior" unicode="&#x208e;" horiz-adv-x="183" 
d="M138 166q0 -144 -99 -215l-19 22q74 65 74 191q0 127 -77 196l20 23q51 -34 76 -92t25 -125z" />
    <glyph glyph-name="franc" unicode="&#x20a3;" horiz-adv-x="676" 
d="M416 628h-285v-221h256v-37h-256v-370h-43v667h328v-39zM656 413l-10 -36q-24 3 -41 3q-21 0 -40 -5t-33.5 -13.5t-26 -17.5t-20.5 -20t-14.5 -18.5t-9.5 -15.5l-4 -7v-283h-41v407h41v-73q60 86 150 86q28 0 49 -7z" />
    <glyph glyph-name="lira" unicode="&#x20a4;" 
d="M411 260h-187q1 -10 1 -30q0 -145 -73 -192h365v-38h-432v36q48 18 72 51t24 115q0 38 -2 58h-92v38h89q-2 30 -8 71h-81v38h78q-2 20 -2 41q0 107 55.5 168.5t150.5 61.5q43 0 80 -11.5t52.5 -22.5t22.5 -19l-24 -27q-56 42 -127 42q-78 0 -121.5 -49.5t-43.5 -142.5
q0 -17 2 -41h201v-38h-198q0 -3 1.5 -15.5t3 -29.5t2.5 -26h191v-38z" />
    <glyph glyph-name="peseta" unicode="&#x20a7;" horiz-adv-x="1205" 
d="M473 478q0 -87 -57 -144q-50 -50 -164 -50h-121v-284h-43v667h142q69 0 113 -9t76 -41q54 -54 54 -139zM429 481q0 68 -44 112q-25 25 -59 31t-106 6h-89v-309h116q97 0 136 39q46 46 46 121zM795 10q-45 -20 -87 -20q-60 0 -91 31q-6 6 -10.5 13t-7 17t-4.5 17
t-2.5 20.5t-0.5 19v22v19.5v293h-83v35h83v136h41v-136h157v-35h-157v-291v-9q0 -26 0.5 -38.5t4.5 -30t12 -25.5t23.5 -14t38.5 -6q30 0 70 15zM1153 127q0 -65 -45.5 -101.5t-122.5 -36.5q-41 0 -78.5 10.5t-54 20t-19.5 13.5l19 33q60 -40 129 -40q60 0 94.5 25.5
t34.5 71.5q0 35 -27 62q-22 22 -98 48.5t-103 53.5q-31 31 -31 81q0 55 43.5 87.5t107.5 32.5q84 0 135 -38l-19 -32q-51 34 -112 34q-47 0 -80 -22.5t-33 -60.5q0 -32 22 -54q21 -21 98 -48.5t105 -55.5q35 -35 35 -84z" />
    <glyph glyph-name="Euro" unicode="&#x20ac;" 
d="M513 50q-81 -61 -173 -61q-60 0 -106 24t-70 56.5t-40 75t-20.5 68t-5.5 47.5h-65v38h62q-1 24 -1 41q0 10 1 30h-62v38h65q1 14 4.5 34t12.5 53t27.5 63.5t44 59t67 45.5t92.5 17q36 0 71.5 -11.5t51.5 -21.5t21 -15l-23 -32q-57 41 -119 41q-44 0 -79 -15t-56 -41
t-35 -50.5t-21 -55.5t-9 -44t-3 -27h274v-38h-277q-1 -13 -1 -40q0 -9 1 -31h277v-38h-274q2 -17 2.5 -21.5t6.5 -34.5t13.5 -46.5t23 -44t34 -43t48.5 -28t66 -12.5q15 0 30.5 2t28 5t24.5 8t20.5 9t17.5 9t13.5 8l10.5 7l5 4z" />
    <glyph glyph-name="afii61289" unicode="&#x2113;" horiz-adv-x="500" 
d="M249 269q-33 -171 -33 -208q0 -25 18 -25q26 0 51 54q8 18 19 18q13 0 13 -15q0 -23 -26 -60q-37 -47 -76 -47q-31 0 -49 23.5t-18 64.5q0 36 10 127q-41 -38 -49 -38q-5 0 -9.5 5t-4.5 11q0 10 20 27q23 20 50 52q41 216 89 318t108 102q29 0 46 -22t17 -59
q0 -87 -64 -192q-36 -58 -112 -136zM260 333q125 140 125 260q0 44 -23 44q-11 0 -22.5 -12.5t-18.5 -31.5q-31 -86 -61 -260z" />
    <glyph glyph-name="afii61352" unicode="&#x2116;" horiz-adv-x="969" 
d="M532 0h-60l-344 608l1 -608h-41v667h55l349 -617l-1 617h41v-667zM923 487q0 -83 -42 -132t-115 -49q-71 0 -113 50t-42 136q0 85 42 135t116 50q72 0 113 -50.5t41 -139.5zM887 490q0 70 -34 113t-86 43q-55 0 -87.5 -41.5t-32.5 -111.5q0 -69 34 -112t86 -43
q57 0 88.5 41t31.5 111z" />
    <glyph glyph-name="trademark" unicode="&#x2122;" horiz-adv-x="715" 
d="M656 313h-41l-32 279l-102 -279h-30l-101 279l-31 -279h-39l42 354h39l108 -288l104 288h40zM272 635h-101v-322h-38v322h-101v32h240v-32z" />
    <glyph glyph-name="uni2126" unicode="&#x2126;" horiz-adv-x="809" 
d="M713 0h-232v39q53 22 88 57.5t51 79.5t22 82t6 84q0 134 -67.5 217t-176.5 83t-177 -83.5t-68 -216.5q0 -46 6 -84.5t22.5 -81.5t52 -78.5t87.5 -58.5v-39h-231v39h171q-82 43 -118.5 125t-36.5 181q0 146 82.5 240t209.5 94t209 -94.5t82 -239.5q0 -225 -153 -306h171
v-39z" />
    <glyph glyph-name="estimated" unicode="&#x212e;" horiz-adv-x="798" 
d="M769 311h-599q-6 0 -6 -4v-181q0 -10 9 -21q93 -98 227 -98q70 0 131.5 29.5t106.5 80.5h54q-51 -60 -128.5 -95t-164.5 -35q-153 0 -261.5 97.5t-108.5 235.5q0 137 108.5 234.5t261.5 97.5t261.5 -97.5t108.5 -234.5v-9zM634 335v181q0 12 -10 22q-92 94 -224 94
t-226 -97q-10 -10 -10 -23v-177q0 -5 6 -5h459q5 0 5 5z" />
    <glyph glyph-name="onethird" unicode="&#x2153;" horiz-adv-x="721" 
d="M611 674l-480 -707l-33 21l480 710zM225 330h-38v292l-88 -54l-21 29l114 70h33v-337zM635 96q0 -47 -31.5 -73.5t-76.5 -26.5q-65 0 -99 43l24 24q33 -33 70 -33q33 0 52 15.5t19 45.5q0 22 -8.5 36t-25.5 19.5t-28.5 6.5t-31.5 1h-12v36h18q16 0 27 1.5t26 6t23 17.5
t8 33q0 25 -16.5 42t-44.5 17q-35 0 -68 -33l-25 23q2 5 12 14.5t33 19.5t50 10q45 0 73 -25.5t28 -66.5q0 -60 -62 -75q66 -13 66 -78z" />
    <glyph glyph-name="twothirds" unicode="&#x2154;" horiz-adv-x="721" 
d="M611 674l-480 -707l-33 21l480 710zM279 330h-197v31l37.5 37.5l38.5 38.5t31 34t28 36t16 31.5t7 32.5q0 30 -16.5 47t-46.5 17q-35 0 -73 -32l-22 22q38 46 99 46q45 0 73 -27t28 -71q0 -29 -17 -60.5t-33.5 -50t-47.5 -49.5l-51 -49h146v-34zM635 96
q0 -47 -31.5 -73.5t-76.5 -26.5q-65 0 -99 43l24 24q33 -33 70 -33q33 0 52 15.5t19 45.5q0 22 -8.5 36t-25.5 19.5t-28.5 6.5t-31.5 1h-12v36h18q16 0 27 1.5t26 6t23 17.5t8 33q0 25 -16.5 42t-44.5 17q-35 0 -68 -33l-25 23q2 5 12 14.5t33 19.5t50 10q45 0 73 -25.5
t28 -66.5q0 -60 -62 -75q66 -13 66 -78z" />
    <glyph glyph-name="oneeighth" unicode="&#x215b;" horiz-adv-x="721" 
d="M611 674l-480 -707l-33 21l480 710zM225 330h-38v292l-88 -54l-21 29l114 70h33v-337zM649 92q0 -42 -32.5 -69t-83.5 -27q-52 0 -85 26.5t-33 68.5q0 32 16.5 53.5t41.5 29.5q-48 19 -48 75q0 41 31 66.5t78 25.5t76.5 -25.5t29.5 -65.5q0 -24 -14 -46t-37 -30
q60 -17 60 -82zM601 249q0 27 -18.5 44t-48.5 17q-31 0 -50.5 -17t-19.5 -44q0 -30 21 -46t49 -16q27 0 47 15.5t20 46.5zM609 92q0 30 -21 47.5t-55 17.5q-35 0 -56.5 -17.5t-21.5 -47.5t21 -47t58 -17q34 0 54.5 17t20.5 47z" />
    <glyph glyph-name="threeeighths" unicode="&#x215c;" horiz-adv-x="721" 
d="M611 674l-480 -707l-33 21l480 710zM285 426q0 -47 -31.5 -73.5t-76.5 -26.5q-65 0 -99 43l24 24q33 -33 70 -33q33 0 52 15.5t19 45.5q0 22 -8.5 36t-25.5 19.5t-28.5 6.5t-31.5 1h-12v36h18q16 0 27 1.5t26 6t23 17.5t8 33q0 25 -16.5 42t-44.5 17q-35 0 -68 -33
l-25 23q2 5 12 14.5t33 19.5t50 10q45 0 73 -25.5t28 -66.5q0 -60 -62 -75q66 -13 66 -78zM649 92q0 -42 -32.5 -69t-83.5 -27q-52 0 -85 26.5t-33 68.5q0 32 16.5 53.5t41.5 29.5q-48 19 -48 75q0 41 31 66.5t78 25.5t76.5 -25.5t29.5 -65.5q0 -24 -14 -46t-37 -30
q60 -17 60 -82zM601 249q0 27 -18.5 44t-48.5 17q-31 0 -50.5 -17t-19.5 -44q0 -30 21 -46t49 -16q27 0 47 15.5t20 46.5zM609 92q0 30 -21 47.5t-55 17.5q-35 0 -56.5 -17.5t-21.5 -47.5t21 -47t58 -17q34 0 54.5 17t20.5 47z" />
    <glyph glyph-name="fiveeighths" unicode="&#x215d;" horiz-adv-x="721" 
d="M611 674l-480 -707l-33 21l480 710zM649 92q0 -42 -32.5 -69t-83.5 -27q-52 0 -85 26.5t-33 68.5q0 32 16.5 53.5t41.5 29.5q-48 19 -48 75q0 41 31 66.5t78 25.5t76.5 -25.5t29.5 -65.5q0 -24 -14 -46t-37 -30q60 -17 60 -82zM601 249q0 27 -18.5 44t-48.5 17
q-31 0 -50.5 -17t-19.5 -44q0 -30 21 -46t49 -16q27 0 47 15.5t20 46.5zM609 92q0 30 -21 47.5t-55 17.5q-35 0 -56.5 -17.5t-21.5 -47.5t21 -47t58 -17q34 0 54.5 17t20.5 47zM292 437q0 -50 -33.5 -80.5t-84.5 -30.5q-62 0 -96 34l20 27q37 -27 73 -27q37 0 58 20t21 55
q0 32 -20.5 54t-57.5 22q-34 0 -59 -19l-20 9v166h182v-35h-144v-100q18 13 49 13q52 0 82 -30t30 -78z" />
    <glyph glyph-name="seveneighths" unicode="&#x215e;" horiz-adv-x="721" 
d="M296 638l-134 -308h-42l136 302h-181v35h221v-29zM611 674l-480 -707l-33 21l480 710zM649 92q0 -42 -32.5 -69t-83.5 -27q-52 0 -85 26.5t-33 68.5q0 32 16.5 53.5t41.5 29.5q-48 19 -48 75q0 41 31 66.5t78 25.5t76.5 -25.5t29.5 -65.5q0 -24 -14 -46t-37 -30
q60 -17 60 -82zM601 249q0 27 -18.5 44t-48.5 17q-31 0 -50.5 -17t-19.5 -44q0 -30 21 -46t49 -16q27 0 47 15.5t20 46.5zM609 92q0 30 -21 47.5t-55 17.5q-35 0 -56.5 -17.5t-21.5 -47.5t21 -47t58 -17q34 0 54.5 17t20.5 47z" />
    <glyph glyph-name="partialdiff" unicode="&#x2202;" horiz-adv-x="599" 
d="M503 360q0 -174 -57.5 -273t-158.5 -99q-87 0 -139 69.5t-52 187.5q0 114 53 178.5t146 64.5q83 0 159 -63q-12 127 -68.5 196t-137.5 69q-55 0 -114 -32l-21 32q56 41 138 41q113 0 182.5 -102t69.5 -269zM458 353l-1 18q-77 77 -167 77q-70 0 -110 -56t-40 -152
t40 -153.5t107 -57.5q81 0 126 86.5t45 237.5z" />
    <glyph glyph-name="uni2206" unicode="&#x2206;" horiz-adv-x="687" 
d="M591 0h-495l234 667h32zM535 38l-190 553l-193 -553h383z" />
    <glyph glyph-name="product" unicode="&#x220f;" horiz-adv-x="804" 
d="M708 630h-76v-630h-45v630h-370v-630h-45v630h-76v37h612v-37z" />
    <glyph glyph-name="summation" unicode="&#x2211;" horiz-adv-x="537" 
d="M441 0h-345v24l186 318l-186 295v30h345v-37h-293l177 -288l-182 -305h298v-37z" />
    <glyph glyph-name="minus" unicode="&#x2212;" horiz-adv-x="568" 
d="M514 232h-460v38h460v-38z" />
    <glyph glyph-name="radical" unicode="&#x221a;" horiz-adv-x="788" 
d="M692 715l-267 -715h-36l-162 425l-118 -40l-13 36l153 54l160 -415l245 669z" />
    <glyph glyph-name="infinity" unicode="&#x221e;" horiz-adv-x="845" 
d="M749 276q0 -55 -40 -95.5t-95 -40.5q-39 0 -80.5 22t-111.5 89q-69 -67 -111 -89t-80 -22q-55 0 -95 40t-40 96q0 57 38 97t93 40q46 0 90.5 -23.5t104.5 -86.5q105 110 195 110q55 0 93.5 -40t38.5 -97zM713 281q0 40 -28 68.5t-69 28.5q-33 0 -64 -15t-51 -32.5
t-56 -53.5q37 -34 53.5 -48.5t50.5 -32t65 -17.5q40 0 69.5 31t29.5 71zM400 277q-37 37 -56 53.5t-50 32t-64 15.5q-41 0 -69 -29t-28 -68q0 -41 29 -71.5t69 -30.5q30 0 63.5 17t52.5 33t53 48z" />
    <glyph glyph-name="integral" unicode="&#x222b;" horiz-adv-x="631" 
d="M535 704l-18 -35q-38 21 -79 21q-46 0 -69 -23q-33 -33 -33 -107v-617q0 -88 -44 -132q-36 -36 -96 -36q-25 0 -49.5 6.5t-36 12t-14.5 8.5l18 35q38 -21 79 -21q46 0 69 23q33 33 33 107v617q0 88 44 132q36 36 96 36q25 0 49.5 -6.5t36 -12t14.5 -8.5z" />
    <glyph glyph-name="approxequal" unicode="&#x2248;" 
d="M502 324q-47 -60 -108 -60q-39 0 -105 28.5t-98 28.5q-9 0 -17.5 -1t-15.5 -4t-11.5 -5t-10.5 -7t-8 -7l-7.5 -7.5l-6.5 -6.5l-36 26q43 60 113 60q40 0 105 -28.5t98 -28.5q37 0 73 40zM502 194q-47 -60 -108 -60q-39 0 -105 28.5t-98 28.5q-9 0 -17.5 -1t-15.5 -4
t-11.5 -5t-10.5 -7t-8 -7l-7.5 -7.5l-6.5 -6.5l-36 26q43 60 113 60q40 0 105 -28.5t98 -28.5q37 0 73 40z" />
    <glyph glyph-name="notequal" unicode="&#x2260;" horiz-adv-x="584" 
d="M522 175h-251l-93 -143l-34 21l78 122h-160v38h183l47 76h-230v38h255l86 135l33 -21l-72 -114h158v-38h-183l-46 -76h229v-38z" />
    <glyph glyph-name="lessequal" unicode="&#x2264;" 
d="M520 121l-16 -34l-444 218v27l443 218l17 -33l-412 -200zM519 0h-459v38h459v-38z" />
    <glyph glyph-name="greaterequal" unicode="&#x2265;" 
d="M520 305l-444 -218l-16 34l412 196l-412 200l17 33l443 -218v-27zM519 0h-459v38h459v-38z" />
    <glyph glyph-name="lozenge" unicode="&#x25ca;" horiz-adv-x="659" 
d="M563 337l-214 -337h-37l-216 337l216 330h34zM513 337l-184 280l-181 -280l183 -297z" />
    <glyph glyph-name="Euro.fitted" unicode="&#xe002;" horiz-adv-x="540" 
d="M514 50q-81 -61 -173 -61q-60 0 -106 24t-70 56.5t-40 75t-20.5 68t-5.5 47.5h-65v38h62q-1 24 -1 41q0 10 1 30h-62v38h65q1 14 4.5 34t12.5 53t27.5 63.5t44 59t67 45.5t92.5 17q36 0 71.5 -11.5t51.5 -21.5t21 -15l-23 -32q-57 41 -119 41q-44 0 -79 -15t-56 -41
t-35 -50.5t-21 -55.5t-9 -44t-3 -27h274v-38h-277q-1 -13 -1 -40q0 -9 1 -31h277v-38h-274q2 -17 2.5 -21.5t6.5 -34.5t13.5 -46.5t23 -44t34 -43t48.5 -28t66 -12.5q15 0 30.5 2t28 5t24.5 8t20.5 9t17.5 9t13.5 8t9.5 7l6 4z" />
    <glyph glyph-name="Dotaccent" unicode="&#xefed;" horiz-adv-x="370" 
d="M220 767q0 -15 -10 -25.5t-25 -10.5t-25.5 10.5t-10.5 25.5t10.5 25t25.5 10t25 -10t10 -25z" />
    <glyph glyph-name="Breve" unicode="&#xefee;" horiz-adv-x="370" 
d="M273 835h40q-17 -114 -129 -114q-113 0 -128 114h40q12 -67 88 -67q74 0 89 67z" />
    <glyph glyph-name="Ogonek" unicode="&#xeff1;" horiz-adv-x="370" 
d="M282 -189q-3 -3 -13 -8.5t-34 -12.5t-49 -7q-46 0 -72.5 28t-26.5 76q0 34 14 56.5t45 44.5l43 -13q-2 -2 -11 -9t-11.5 -9t-9.5 -8.5t-9.5 -10t-7.5 -10t-6.5 -12.5t-3 -13.5t-1.5 -15.5q0 -30 18 -47.5t48 -17.5q12 0 25 2.5t20.5 5.5l17.5 7l9 4z" />
    <glyph glyph-name="Cedilla" unicode="&#xeff2;" horiz-adv-x="370" 
d="M264 -132q0 -38 -27.5 -61.5t-62.5 -23.5q-37 0 -67 16l12 28q28 -12 47 -12q31 0 44.5 16t13.5 35q0 22 -14 35.5t-36 13.5q-25 0 -42 -13l-21 12l18 86h32l-11 -61q15 9 35 9q36 0 57.5 -22t21.5 -58z" />
    <glyph glyph-name="Tilde" unicode="&#xeff5;" horiz-adv-x="370" 
d="M332 759q-40 -40 -93 -40q-18 0 -55 11t-57 11q-32 0 -64 -22l-25 29q16 14 25 20t26.5 12.5t37.5 6.5q19 0 57 -12t56 -12q10 0 19.5 1.5t15.5 3.5t12.5 5.5t9 5.5t6.5 5t5 4z" />
    <glyph glyph-name="Circumflex" unicode="&#xeff7;" horiz-adv-x="370" 
d="M332 745l-19 -30l-127 67l-127 -67l-21 30l148 90z" />
    <glyph glyph-name="parenleft.dnom" unicode="&#xf62c;" horiz-adv-x="183" 
d="M45 168q0 144 99 215l19 -22q-74 -65 -74 -191q0 -127 77 -196l-20 -23q-51 34 -76 92t-25 125z" />
    <glyph glyph-name="parenright.dnom" unicode="&#xf62d;" horiz-adv-x="183" 
d="M138 166q0 -144 -99 -215l-19 22q74 65 74 191q0 127 -77 196l20 23q51 -34 76 -92t25 -125z" />
    <glyph glyph-name="parenleft.numr" unicode="&#xf631;" horiz-adv-x="183" 
d="M45 492q0 144 99 215l19 -22q-74 -65 -74 -191q0 -127 77 -196l-20 -23q-51 34 -76 92t-25 125z" />
    <glyph glyph-name="parenright.numr" unicode="&#xf632;" horiz-adv-x="183" 
d="M138 490q0 -144 -99 -215l-19 22q74 65 74 191q0 127 -77 196l20 23q51 -34 76 -92t25 -125z" />
    <glyph glyph-name="zero.fitted" unicode="&#xf639;" horiz-adv-x="588" 
d="M531 333q0 -163 -61.5 -253.5t-176.5 -90.5q-116 0 -176 90.5t-60 258.5q0 160 61 250.5t172 90.5q117 0 179 -91t62 -255zM484 333q0 147 -48 227.5t-142 80.5q-190 0 -190 -313q0 -144 48 -222.5t141 -78.5q95 0 143 79t48 227z" />
    <glyph glyph-name="two.fitted" unicode="&#xf63a;" horiz-adv-x="474" 
d="M417 0h-388v40q63 62 112 111q127 127 176 198t49 139q0 72 -39.5 111t-111.5 39q-39 0 -78 -15t-55 -26.5t-22 -17.5l-26 28q4 7 25.5 22.5t67.5 32.5t95 17q89 0 140 -49.5t51 -135.5q0 -43 -15.5 -84.5t-50 -86.5t-61.5 -74.5t-76 -78.5l-130 -130h337v-40z" />
    <glyph glyph-name="three.fitted" unicode="&#xf63b;" horiz-adv-x="487" 
d="M430 181q0 -88 -61 -140t-151 -52q-121 0 -189 68l26 29l4 -4l10 -7.5t15.5 -10.5t22.5 -12t27.5 -11t34 -8t39.5 -3q80 0 128.5 39t48.5 107q0 59 -41 100q-26 26 -64.5 36.5t-111.5 10.5h-15v40h18q61 0 100.5 9.5t70.5 40.5q35 35 35 91q0 60 -41.5 97t-111.5 37
q-84 0 -156 -62l-27 28q4 7 24 23t65.5 34t94.5 18q91 0 143.5 -48t52.5 -127q0 -61 -36.5 -107.5t-101.5 -54.5q67 -5 107 -50t40 -111z" />
    <glyph glyph-name="four.fitted" unicode="&#xf63c;" horiz-adv-x="538" 
d="M494 171h-94v-171h-42v171h-321v38l319 458h44v-458h94v-38zM358 209v390l-274 -390h274z" />
    <glyph glyph-name="five.fitted" unicode="&#xf63d;" horiz-adv-x="499" 
d="M442 206q0 -99 -61.5 -158t-156.5 -59q-53 0 -98 16t-60.5 28t-21.5 19l23 31q5 -5 20.5 -15.5t53.5 -24t76 -13.5q83 0 131.5 46.5t48.5 126.5q0 73 -45.5 123t-130.5 50q-71 0 -124 -35l-27 17v309h345v-39h-302v-238q39 29 113 29q103 0 159.5 -59t56.5 -154z" />
    <glyph glyph-name="six.fitted" unicode="&#xf63e;" horiz-adv-x="529" 
d="M491 215q0 -96 -58 -161t-151 -65q-66 0 -113 30t-70 81.5t-32.5 102.5t-9.5 108q0 53 5.5 100t22 98t42.5 87t70.5 59.5t103.5 23.5q49 0 91 -15.5t58.5 -28.5t21.5 -21l-26 -29q-67 55 -138 55q-62 0 -106 -30t-65.5 -82t-30 -106.5t-7.5 -118.5q0 -15 0.5 -20t0.5 -9
q11 71 66 111.5t129 40.5q93 0 144.5 -59t51.5 -152zM448 212q0 77 -39.5 127.5t-115.5 50.5t-124 -56t-48 -134q0 -73 46 -124t118 -51q76 0 119.5 55.5t43.5 131.5z" />
    <glyph glyph-name="seven.fitted" unicode="&#xf63f;" horiz-adv-x="490" 
d="M456 632l-279 -632h-52l285 626h-381v41h427v-35z" />
    <glyph glyph-name="eight.fitted" unicode="&#xf640;" horiz-adv-x="554" 
d="M497 172q0 -82 -59 -132.5t-156 -50.5q-104 0 -164.5 48.5t-60.5 131.5q0 75 44.5 126t114.5 50q-66 11 -103.5 54.5t-37.5 105.5q0 77 56 125.5t144 48.5q91 0 147 -46.5t56 -122.5q0 -63 -35.5 -108t-99.5 -57q74 -6 114 -52t40 -121zM432 505q0 64 -43.5 102
t-110.5 38q-70 0 -113.5 -37.5t-43.5 -101.5q0 -63 45.5 -103.5t111.5 -40.5q67 0 110.5 39.5t43.5 103.5zM450 175q0 72 -47.5 112.5t-125.5 40.5q-76 0 -124.5 -41.5t-48.5 -110.5q0 -73 47.5 -113t131.5 -40q76 0 121.5 40t45.5 112z" />
    <glyph glyph-name="nine.fitted" unicode="&#xf641;" horiz-adv-x="529" 
d="M472 357q0 -53 -5.5 -100t-22 -98t-42.5 -87t-70.5 -59.5t-103.5 -23.5q-49 0 -91 15.5t-58.5 28.5t-21.5 21l26 29q67 -55 138 -55q62 0 106 30t65.5 82t30 106.5t7.5 118.5q0 15 -0.5 20t-0.5 9q-11 -71 -66 -111.5t-129 -40.5q-93 0 -144.5 59t-51.5 152q0 96 58 161
t151 65q66 0 113 -30t70 -81.5t32.5 -102.5t9.5 -108zM408 468q0 73 -46 124t-118 51q-76 0 -119.5 -55.5t-43.5 -131.5q0 -77 39.5 -127.5t115.5 -50.5t124 56t48 134z" />
    <glyph glyph-name="zero.taboldstyle" unicode="&#xf643;" 
d="M525 257q0 -117 -66 -191.5t-172 -74.5q-98 0 -164.5 73.5t-66.5 184.5q0 119 67 195.5t172 76.5q100 0 165 -74t65 -190zM479 262q0 99 -54 160.5t-137 61.5q-85 0 -135.5 -61t-50.5 -163q0 -101 53.5 -166t134.5 -65q85 0 137 62.5t52 170.5z" />
    <glyph glyph-name="one.taboldstyle" unicode="&#xf644;" 
d="M316 0h-41v462l-125 -81l-25 33l158 100h33v-514z" />
    <glyph glyph-name="two.taboldstyle" unicode="&#xf645;" 
d="M450 0h-328v34q1 1 26.5 24t60.5 55.5t60 58.5q70 72 98.5 114.5t28.5 89.5q0 42 -30 74.5t-87 32.5q-35 0 -67 -12.5t-44 -21.5t-20 -17l-24 25q4 7 20 20.5t56 29.5t86 16q43 0 75 -14.5t48.5 -37t24 -45.5t7.5 -45q0 -51 -23.5 -93.5t-95.5 -115.5q-18 -18 -38.5 -38
t-37.5 -36t-31.5 -29t-24 -21.5t-10.5 -9.5h270v-38z" />
    <glyph glyph-name="three.taboldstyle" unicode="&#xf646;" 
d="M441 59q0 -76 -56.5 -129.5t-134.5 -53.5q-40 0 -74 9t-54.5 22.5t-29.5 21.5t-14 14l24 27l4 -3q3 -3 7 -6.5t11.5 -8.5t15.5 -9.5t19 -9.5t22 -8.5t25.5 -5.5t29.5 -2q73 0 116.5 37.5t43.5 96.5q0 55 -36 93q-27 27 -62 36t-102 9h-5v38h8q112 0 156 46q33 35 33 86
q0 53 -36 89t-101 36q-34 0 -68.5 -14t-48.5 -24.5t-21 -17.5l-24 27q2 5 20.5 20t59 32t83.5 17q83 0 131.5 -47.5t48.5 -117.5q0 -58 -33 -101.5t-89 -49.5q58 -4 94.5 -46t36.5 -103z" />
    <glyph glyph-name="four.taboldstyle" unicode="&#xf647;" 
d="M506 10h-80v-131h-41v131h-313v34l306 470h48v-467h80v-37zM385 47v410l-267 -410h267z" />
    <glyph glyph-name="five.taboldstyle" unicode="&#xf648;" 
d="M472 77q0 -87 -55.5 -143t-144.5 -56q-49 0 -90.5 15.5t-56 27t-19.5 17.5l22 30q68 -51 137 -51q77 0 120 46t43 110q0 73 -46 118.5t-121 45.5q-58 0 -107 -31l-22 15v293h315v-37h-276v-225q36 24 100 24q97 0 149 -54.5t52 -144.5z" />
    <glyph glyph-name="six.taboldstyle" unicode="&#xf649;" 
d="M489 202q0 -90 -53 -150.5t-138 -60.5q-49 0 -87 19.5t-60 49.5t-36 72t-18.5 80t-4.5 80q0 62 9.5 117t32.5 109t69.5 86t111.5 32q96 0 158 -62l-26 -27q-60 50 -125 50q-189 0 -189 -311q0 -6 2 -26q10 62 56.5 101.5t119.5 39.5q85 0 131.5 -55.5t46.5 -143.5z
M448 199q0 72 -35 118.5t-104 46.5q-70 0 -114 -52t-44 -124q0 -67 42 -113.5t108 -46.5q69 0 108 50.5t39 120.5z" />
    <glyph glyph-name="seven.taboldstyle" unicode="&#xf64a;" 
d="M473 478l-256 -599h-47l259 595h-349v40h393v-36z" />
    <glyph glyph-name="eight.taboldstyle" unicode="&#xf64b;" 
d="M487 165q0 -79 -54 -126.5t-143 -47.5q-86 0 -142 47t-56 126q0 40 13 70.5t30.5 46.5t38 26t32 12.5t16.5 2.5q-8 0 -24 6.5t-38 21.5t-38 47.5t-16 75.5q0 72 52 117.5t132 45.5q83 0 133 -43.5t50 -115.5q0 -36 -11.5 -65t-25 -44.5t-32.5 -27t-27 -14t-15 -4.5
q10 -2 17.5 -4t30 -13t37 -26t27.5 -45.5t13 -68.5zM431 474q0 58 -39 92t-101 34q-63 0 -103 -34t-40 -92q0 -57 40 -95.5t103 -38.5q62 0 101 38t39 96zM443 166q0 65 -41 101.5t-112 36.5q-69 0 -111.5 -37t-42.5 -100q0 -66 43 -103t112 -37t110.5 36.5t41.5 102.5z" />
    <glyph glyph-name="nine.taboldstyle" unicode="&#xf64c;" 
d="M488 222q0 -62 -9.5 -117t-32.5 -109t-69.5 -86t-111.5 -32q-96 0 -158 62l26 27q60 -50 125 -50q189 0 189 311q0 6 -2 26q-10 -62 -56.5 -101.5t-119.5 -39.5q-85 0 -131.5 55.5t-46.5 143.5q0 90 53 150.5t138 60.5q49 0 87 -19.5t60 -49.5t36 -72t18.5 -80t4.5 -80z
M429 326q0 67 -42 113.5t-108 46.5q-69 0 -108 -50.5t-39 -120.5q0 -72 35 -118.5t104 -46.5q70 0 114 52t44 124z" />
    <glyph glyph-name="Euro.taboldstyle" unicode="&#xf64e;" 
d="M530 50q-81 -61 -172 -61q-59 0 -104.5 24t-69.5 56.5t-39.5 75t-20 68t-5.5 47.5h-65v38h62q-1 24 -1 41q0 10 1 30h-62v38h65q1 18 5.5 43.5t21 68t41 76.5t71 59t106.5 25q35 0 70.5 -11.5t51.5 -21.5t21 -15l-23 -32q-57 41 -118 41q-37 0 -68.5 -12t-51.5 -29.5
t-35.5 -43t-23.5 -46t-13.5 -46t-6.5 -35.5t-2 -21h272v-38h-275q-1 -13 -1 -40q0 -9 1 -31h275v-38h-272q23 -204 158 -227q16 -3 34 -3q15 0 30.5 2t27.5 5t24 8t21 9t17.5 9t13.5 8t10 7l5 4z" />
    <glyph glyph-name="florin.taboldstyle" unicode="&#xf64f;" 
d="M565 659l-15 -34q-27 15 -67 15q-46 0 -73.5 -28.5t-42.5 -100.5l-37 -172h156l-8 -39h-157l-65 -315q-1 -4 -4 -18.5t-4.5 -21t-4.5 -21t-5.5 -23t-6 -21.5t-7.5 -21.5t-8.5 -18t-9.5 -17t-11 -13.5q-35 -35 -93 -35q-40 0 -87 19l15 34q37 -14 71 -14q42 0 61 19
q6 6 12 14.5t10.5 21t8 22t7.5 26.5t5.5 25.5t6 29t5.5 26.5l64 302h-131l8 39h130l34 158q21 105 58 142q40 40 101 40q44 0 84 -20z" />
    <glyph glyph-name="sterling.taboldstyle" unicode="&#xf651;" 
d="M506 625l-24 -27q-49 42 -124 42q-76 0 -118.5 -49.5t-42.5 -142.5q0 -20 8 -108h190v-39h-186q0 -3 2.5 -29t2.5 -42q0 -145 -72 -192h357v-38h-424v36q47 18 70.5 51t23.5 115q0 43 -4 99h-88v39h84q-9 70 -9 108q0 107 54.5 168.5t147.5 61.5q42 0 78.5 -11.5
t52 -22.5t21.5 -19z" />
    <glyph glyph-name="yen.taboldstyle" unicode="&#xf652;" 
d="M518 667l-195 -329h132v-38h-146v-53h146v-38h-146v-209h-42v209h-144v38h144v53h-144v38h129l-190 329h51l174 -319l182 319h49z" />
    <glyph glyph-name="dollar.taboldstyle" unicode="&#xf653;" 
d="M490 182q0 -76 -46 -127t-131 -58v-91h-38v89q-17 0 -33 2t-29.5 5t-26.5 7t-23 8.5t-20 9.5t-17 9t-14 9l-10.5 7.5t-7.5 5.5l-4 4l25 33l5 -4q6 -4 11.5 -8t15 -9.5t19 -10.5t23 -10t26.5 -9t28.5 -6.5t31.5 -2.5v299q-94 40 -127 72q-41 39 -41 104q0 64 46 108.5
t122 51.5v68h38v-67q104 -4 168 -68l-27 -27q-62 55 -141 58v-268q89 -34 126 -69q51 -48 51 -115zM275 380v252q-57 -7 -91.5 -41.5t-34.5 -82.5q0 -41 31 -72q27 -27 95 -56zM443 179q0 48 -39 85q-31 29 -91 55v-283q63 10 96.5 48t33.5 95z" />
    <glyph glyph-name="cent.taboldstyle" unicode="&#xf654;" 
d="M485 45q-12 -11 -50 -26t-85 -18v-95h-38v95q-91 6 -147 68t-56 167q0 107 55 178t148 81v80h38v-78q35 -1 67 -11.5t45 -19t17 -13.5l-21 -31q-52 32 -108 35v-415q70 5 116 36zM312 42v413q-74 -10 -117 -67t-43 -143q0 -87 44.5 -141.5t115.5 -61.5z" />
    <glyph glyph-name="zero.dnom" unicode="&#xf655;" horiz-adv-x="371" 
d="M326 172q0 -83 -37 -129.5t-105 -46.5q-64 0 -101.5 43.5t-37.5 118.5q0 87 37.5 135t106.5 48q63 0 100 -45.5t37 -123.5zM282 173q0 62 -24 98t-69 36q-49 0 -74.5 -38.5t-25.5 -107.5q0 -61 24.5 -96t70.5 -35t72 36.5t26 106.5z" />
    <glyph glyph-name="one.dnom" unicode="&#xf656;" horiz-adv-x="371" 
d="M225 0h-38v292l-88 -54l-21 29l114 70h33v-337z" />
    <glyph glyph-name="two.dnom" unicode="&#xf657;" horiz-adv-x="371" 
d="M279 0h-197v31l37.5 37.5l38.5 38.5t31 34t28 36t16 31.5t7 32.5q0 30 -16.5 47t-46.5 17q-35 0 -73 -32l-22 22q38 46 99 46q45 0 73 -27t28 -71q0 -29 -17 -60.5t-33.5 -50t-47.5 -49.5l-51 -49h146v-34z" />
    <glyph glyph-name="three.dnom" unicode="&#xf658;" horiz-adv-x="371" 
d="M285 96q0 -47 -31.5 -73.5t-76.5 -26.5q-65 0 -99 43l24 24q33 -33 70 -33q33 0 52 15.5t19 45.5q0 22 -8.5 36t-25.5 19.5t-28.5 6.5t-31.5 1h-12v36h18q16 0 27 1.5t26 6t23 17.5t8 33q0 25 -16.5 42t-44.5 17q-35 0 -68 -33l-25 23q2 5 12 14.5t33 19.5t50 10
q45 0 73 -25.5t28 -66.5q0 -60 -62 -75q66 -13 66 -78z" />
    <glyph glyph-name="four.dnom" unicode="&#xf659;" horiz-adv-x="371" 
d="M307 83h-48v-83h-36v83h-168v28l171 226h33v-223h48v-31zM223 114v170l-128 -170h128z" />
    <glyph glyph-name="five.dnom" unicode="&#xf65a;" horiz-adv-x="371" 
d="M292 107q0 -50 -33.5 -80.5t-84.5 -30.5q-62 0 -96 34l20 27q37 -27 73 -27q37 0 58 20t21 55q0 32 -20.5 54t-57.5 22q-34 0 -59 -19l-20 9v166h182v-35h-144v-100q18 13 49 13q52 0 82 -30t30 -78z" />
    <glyph glyph-name="six.dnom" unicode="&#xf65b;" horiz-adv-x="371" 
d="M301 111q0 -50 -31 -82.5t-81 -32.5q-60 0 -89.5 46.5t-29.5 114.5q0 47 11 86.5t41 68.5t77 29q57 0 91 -34l-19 -25q-33 26 -68 26q-84 0 -90 -135q26 46 84 46q48 0 76 -30.5t28 -77.5zM263 109q0 35 -18 56.5t-51 21.5q-36 0 -55 -24t-19 -59q0 -32 19.5 -53.5
t50.5 -21.5q34 0 53.5 23.5t19.5 56.5z" />
    <glyph glyph-name="seven.dnom" unicode="&#xf65c;" horiz-adv-x="371" 
d="M296 305l-134 -305h-42l136 299h-181v35h221v-29z" />
    <glyph glyph-name="eight.dnom" unicode="&#xf65d;" horiz-adv-x="371" 
d="M302 92q0 -42 -32.5 -69t-83.5 -27q-52 0 -85 26.5t-33 68.5q0 32 16.5 53.5t41.5 29.5q-48 19 -48 75q0 41 31 66.5t78 25.5t76.5 -25.5t29.5 -65.5q0 -24 -14 -46t-37 -30q60 -17 60 -82zM254 249q0 27 -18.5 44t-48.5 17q-31 0 -50.5 -17t-19.5 -44q0 -30 21 -46
t49 -16q27 0 47 15.5t20 46.5zM262 92q0 30 -21 47.5t-55 17.5q-35 0 -56.5 -17.5t-21.5 -47.5t21 -47t58 -17q34 0 54.5 17t20.5 47z" />
    <glyph glyph-name="nine.dnom" unicode="&#xf65e;" horiz-adv-x="371" 
d="M301 181q0 -48 -11 -87t-41.5 -68.5t-77.5 -29.5q-34 0 -59 13t-33 23l20 25q27 -27 69 -27q82 0 92 135q-12 -21 -36 -33t-49 -12q-48 0 -76.5 30.5t-28.5 77.5q0 48 31.5 80.5t79.5 32.5q43 0 71 -25.5t38.5 -59.5t10.5 -75zM252 232q0 33 -20.5 55t-51.5 22
q-34 0 -53 -23t-19 -57q0 -35 17.5 -56.5t50.5 -21.5q34 0 55 22.5t21 58.5z" />
    <glyph glyph-name="zero.numr" unicode="&#xf661;" horiz-adv-x="371" 
d="M326 502q0 -83 -37 -129.5t-105 -46.5q-64 0 -101.5 43.5t-37.5 118.5q0 87 37.5 135t106.5 48q63 0 100 -45.5t37 -123.5zM282 503q0 62 -24 98t-69 36q-49 0 -74.5 -38.5t-25.5 -107.5q0 -61 24.5 -96t70.5 -35t72 36.5t26 106.5z" />
    <glyph glyph-name="one.numr" unicode="&#xf662;" horiz-adv-x="371" 
d="M225 330h-38v292l-88 -54l-21 29l114 70h33v-337z" />
    <glyph glyph-name="two.numr" unicode="&#xf663;" horiz-adv-x="371" 
d="M279 330h-197v31l37.5 37.5l38.5 38.5t31 34t28 36t16 31.5t7 32.5q0 30 -16.5 47t-46.5 17q-35 0 -73 -32l-22 22q38 46 99 46q45 0 73 -27t28 -71q0 -29 -17 -60.5t-33.5 -50t-47.5 -49.5l-51 -49h146v-34z" />
    <glyph glyph-name="three.numr" unicode="&#xf664;" horiz-adv-x="371" 
d="M285 426q0 -47 -31.5 -73.5t-76.5 -26.5q-65 0 -99 43l24 24q33 -33 70 -33q33 0 52 15.5t19 45.5q0 22 -8.5 36t-25.5 19.5t-28.5 6.5t-31.5 1h-12v36h18q16 0 27 1.5t26 6t23 17.5t8 33q0 25 -16.5 42t-44.5 17q-35 0 -68 -33l-25 23q2 5 12 14.5t33 19.5t50 10
q45 0 73 -25.5t28 -66.5q0 -60 -62 -75q66 -13 66 -78z" />
    <glyph glyph-name="four.numr" unicode="&#xf665;" horiz-adv-x="371" 
d="M307 413h-48v-83h-36v83h-168v28l171 226h33v-223h48v-31zM223 444v170l-128 -170h128z" />
    <glyph glyph-name="five.numr" unicode="&#xf666;" horiz-adv-x="371" 
d="M292 437q0 -50 -33.5 -80.5t-84.5 -30.5q-62 0 -96 34l20 27q37 -27 73 -27q37 0 58 20t21 55q0 32 -20.5 54t-57.5 22q-34 0 -59 -19l-20 9v166h182v-35h-144v-100q18 13 49 13q52 0 82 -30t30 -78z" />
    <glyph glyph-name="six.numr" unicode="&#xf667;" horiz-adv-x="371" 
d="M301 441q0 -50 -31 -82.5t-81 -32.5q-60 0 -89.5 46.5t-29.5 114.5q0 47 11 86.5t41 68.5t77 29q57 0 91 -34l-19 -25q-33 26 -68 26q-84 0 -90 -135q26 46 84 46q48 0 76 -30.5t28 -77.5zM263 439q0 35 -18 56.5t-51 21.5q-36 0 -55 -24t-19 -59q0 -32 19.5 -53.5
t50.5 -21.5q34 0 53.5 23.5t19.5 56.5z" />
    <glyph glyph-name="seven.numr" unicode="&#xf668;" horiz-adv-x="371" 
d="M296 638l-134 -308h-42l136 302h-181v35h221v-29z" />
    <glyph glyph-name="eight.numr" unicode="&#xf669;" horiz-adv-x="371" 
d="M302 422q0 -42 -32.5 -69t-83.5 -27q-52 0 -85 26.5t-33 68.5q0 32 16.5 53.5t41.5 29.5q-48 19 -48 75q0 41 31 66.5t78 25.5t76.5 -25.5t29.5 -65.5q0 -24 -14 -46t-37 -30q60 -17 60 -82zM254 579q0 27 -18.5 44t-48.5 17q-31 0 -50.5 -17t-19.5 -44q0 -30 21 -46
t49 -16q27 0 47 15.5t20 46.5zM262 422q0 30 -21 47.5t-55 17.5q-35 0 -56.5 -17.5t-21.5 -47.5t21 -47t58 -17q34 0 54.5 17t20.5 47z" />
    <glyph glyph-name="nine.numr" unicode="&#xf66a;" horiz-adv-x="371" 
d="M301 511q0 -48 -11 -87t-41.5 -68.5t-77.5 -29.5q-34 0 -59 13t-33 23l20 25q27 -27 69 -27q82 0 92 135q-12 -21 -36 -33t-49 -12q-48 0 -76.5 30.5t-28.5 77.5q0 48 31.5 80.5t79.5 32.5q43 0 71 -25.5t38.5 -59.5t10.5 -75zM252 562q0 33 -20.5 55t-51.5 22
q-34 0 -53 -23t-19 -57q0 -35 17.5 -56.5t50.5 -21.5q34 0 55 22.5t21 58.5z" />
    <glyph glyph-name="Acute" unicode="&#xf6c9;" horiz-adv-x="370" 
d="M297 791l-209 -77l-15 31l203 94z" />
    <glyph glyph-name="Caron" unicode="&#xf6ca;" horiz-adv-x="370" 
d="M38 805l19 30l127 -67l127 67l21 -30l-148 -90z" />
    <glyph glyph-name="Dieresis" unicode="&#xf6cb;" horiz-adv-x="370" 
d="M290 767q0 -15 -10 -25.5t-25 -10.5t-25.5 10.5t-10.5 25.5t10.5 25t25.5 10t25 -10t10 -25zM150 767q0 -15 -10 -25.5t-25 -10.5t-25.5 10.5t-10.5 25.5t10.5 25t25.5 10t25 -10t10 -25z" />
    <glyph glyph-name="Grave" unicode="&#xf6ce;" horiz-adv-x="370" 
d="M282 714l-209 77l21 48l203 -94z" />
    <glyph glyph-name="Hungarumlaut" unicode="&#xf6cf;" horiz-adv-x="370" 
d="M298 897l-66 -167l-38 12l51 172zM176 897l-64 -167l-39 12l51 172z" />
    <glyph glyph-name="Macron" unicode="&#xf6d0;" horiz-adv-x="370" 
d="M341 733h-312v38h312v-38z" />
    <glyph glyph-name="one.fitted" unicode="&#xf6dc;" horiz-adv-x="339" 
d="M251 0h-42v616l-170 -115l-25 33l199 133h38v-667z" />
    <glyph glyph-name="Lslashsmall" unicode="&#xf6f9;" horiz-adv-x="412" 
d="M382 0h-277v229l-68 -48l-20 24l88 63v246h42v-223l104 72l18 -24l-122 -86v-215h235v-38z" />
    <glyph glyph-name="OEsmall" unicode="&#xf6fa;" horiz-adv-x="727" 
d="M675 0h-290q-98 0 -157.5 12t-100.5 53q-76 76 -76 190q0 117 73 190q41 41 96.5 55t137.5 14h309v-37h-241v-189h226v-36h-226v-214h249v-38zM384 36v442h-12q-90 0 -135.5 -11.5t-81.5 -47.5q-58 -58 -58 -166q0 -100 56 -156q34 -34 79 -47.5t144 -13.5h8z" />
    <glyph glyph-name="Scaronsmall" unicode="&#xf6fd;" horiz-adv-x="415" 
d="M360 142q0 -66 -42 -108.5t-122 -42.5q-84 0 -154 56l25 33l5 -4q5 -4 10.5 -7.5t14.5 -9t19.5 -10.5t22.5 -9t26.5 -6.5t28.5 -2.5q64 0 94 30.5t30 74.5q0 36 -27 63q-26 26 -101 55.5t-100 54.5q-33 36 -33 84q0 57 42.5 93t111.5 36q90 0 144 -58l-24 -26
q-51 46 -117 46q-51 0 -83.5 -25.5t-32.5 -63.5q0 -34 22 -56q20 -20 95 -48.5t104 -57.5q41 -41 41 -91zM360 664l-148 -90l-146 90l19 30l127 -67l127 67z" />
    <glyph glyph-name="Zcaronsmall" unicode="&#xf6ff;" horiz-adv-x="455" 
d="M405 0h-359v31l303 446h-285v37h334v-31l-300 -445h307v-38zM367 664l-148 -90l-146 90l19 30l127 -67l127 67z" />
    <glyph glyph-name="ampersandsmall" unicode="&#xf726;" horiz-adv-x="561" 
d="M511 0h-8q-32 0 -58 10t-37 19t-30 28q-64 -64 -162 -64q-68 0 -113.5 42.5t-45.5 105.5q0 64 43 105q23 23 72 44q-61 61 -61 119q0 49 37.5 81t95.5 32q55 0 88.5 -28.5t33.5 -74.5q0 -14 -3 -26.5t-8 -23t-13 -20t-14.5 -16.5t-17.5 -14.5t-18 -11.5t-18 -9.5
t-15.5 -7.5t-14.5 -6l-9 -3l143 -160q19 23 35.5 67t16.5 93h42q0 -118 -65 -194q34 -34 54 -42t50 -8v-37zM324 413q0 30 -19 51.5t-62 21.5q-37 0 -63 -21.5t-26 -54.5q0 -37 58 -101q1 0 10.5 4t16 7t18 9t19.5 11t18 13.5t16 17t10 19.5t4 23zM350 89l-154 174
q-62 -28 -83 -68q-13 -25 -13 -52q0 -47 35 -78.5t87 -31.5q72 0 128 56z" />
    <glyph glyph-name="zerooldstyle" unicode="&#xf730;" horiz-adv-x="579" 
d="M524 257q0 -117 -66 -191.5t-172 -74.5q-98 0 -164.5 73.5t-66.5 184.5q0 119 67 195.5t172 76.5q100 0 165 -74t65 -190zM478 262q0 99 -54 160.5t-137 61.5q-85 0 -135.5 -61t-50.5 -163q0 -101 53.5 -166t134.5 -65q85 0 137 62.5t52 170.5z" />
    <glyph glyph-name="oneoldstyle" unicode="&#xf731;" horiz-adv-x="280" 
d="M195 0h-41v462l-125 -81l-25 33l158 100h33v-514z" />
    <glyph glyph-name="twooldstyle" unicode="&#xf732;" horiz-adv-x="397" 
d="M352 0h-328v34q1 1 26.5 24t60.5 55.5t60 58.5q70 72 98.5 114.5t28.5 89.5q0 42 -30 74.5t-87 32.5q-35 0 -67 -12.5t-44 -21.5t-20 -17l-24 25q4 7 20 20.5t56 29.5t86 16q43 0 75 -14.5t48.5 -37t24 -45.5t7.5 -45q0 -51 -23.5 -93.5t-95.5 -115.5q-18 -18 -38.5 -38
t-37.5 -36t-31.5 -29t-24 -21.5t-10.5 -9.5h270v-38z" />
    <glyph glyph-name="threeoldstyle" unicode="&#xf733;" horiz-adv-x="431" 
d="M367 59q0 -76 -56.5 -129.5t-134.5 -53.5q-40 0 -74 9t-54.5 22.5t-29.5 21.5t-14 14l24 27l4 -3q3 -3 7 -6.5t11.5 -8.5t15.5 -9.5t19 -9.5t22 -8.5t25.5 -5.5t29.5 -2q73 0 116.5 37.5t43.5 96.5q0 55 -36 93q-27 27 -62 36t-102 9h-5v38h8q112 0 156 46q33 35 33 86
q0 53 -36 89t-101 36q-34 0 -68.5 -14t-48.5 -24.5t-21 -17.5l-24 27q2 5 20.5 20t59 32t83.5 17q83 0 131.5 -47.5t48.5 -117.5q0 -58 -33 -101.5t-89 -49.5q58 -4 94.5 -46t36.5 -103z" />
    <glyph glyph-name="fouroldstyle" unicode="&#xf734;" horiz-adv-x="465" 
d="M453 10h-80v-131h-41v131h-313v34l306 470h48v-467h80v-37zM332 47v410l-267 -410h267z" />
    <glyph glyph-name="fiveoldstyle" unicode="&#xf735;" horiz-adv-x="473" 
d="M423 77q0 -87 -55.5 -143t-144.5 -56q-49 0 -90.5 15.5t-56 27t-19.5 17.5l22 30q68 -51 137 -51q77 0 120 46t43 110q0 73 -46 118.5t-121 45.5q-58 0 -107 -31l-22 15v293h315v-37h-276v-225q36 24 100 24q97 0 149 -54.5t52 -144.5z" />
    <glyph glyph-name="sixoldstyle" unicode="&#xf736;" horiz-adv-x="507" 
d="M452 202q0 -90 -53 -150.5t-138 -60.5q-49 0 -87 19.5t-60 49.5t-36 72t-18.5 80t-4.5 80q0 62 9.5 117t32.5 109t69.5 86t111.5 32q96 0 158 -62l-26 -27q-60 50 -125 50q-189 0 -189 -311q0 -6 2 -26q10 62 56.5 101.5t119.5 39.5q85 0 131.5 -55.5t46.5 -143.5z
M411 199q0 72 -35 118.5t-104 46.5q-70 0 -114 -52t-44 -124q0 -67 42 -113.5t108 -46.5q69 0 108 50.5t39 120.5z" />
    <glyph glyph-name="sevenoldstyle" unicode="&#xf737;" horiz-adv-x="416" 
d="M392 478l-256 -599h-47l259 595h-349v40h393v-36z" />
    <glyph glyph-name="eightoldstyle" unicode="&#xf738;" horiz-adv-x="505" 
d="M450 165q0 -79 -54 -126.5t-143 -47.5q-86 0 -142 47t-56 126q0 40 13 70.5t30.5 46.5t38 26t32 12.5t16.5 2.5q-8 0 -24 6.5t-38 21.5t-38 47.5t-16 75.5q0 72 52 117.5t132 45.5q83 0 133 -43.5t50 -115.5q0 -36 -11.5 -65t-25 -44.5t-32.5 -27t-27 -14t-15 -4.5
q10 -2 17.5 -4t30 -13t37 -26t27.5 -45.5t13 -68.5zM394 474q0 58 -39 92t-101 34q-63 0 -103 -34t-40 -92q0 -57 40 -95.5t103 -38.5q62 0 101 38t39 96zM406 166q0 65 -41 101.5t-112 36.5q-69 0 -111.5 -37t-42.5 -100q0 -66 43 -103t112 -37t110.5 36.5t41.5 102.5z" />
    <glyph glyph-name="nineoldstyle" unicode="&#xf739;" horiz-adv-x="507" 
d="M452 222q0 -62 -9.5 -117t-32.5 -109t-69.5 -86t-111.5 -32q-96 0 -158 62l26 27q60 -50 125 -50q189 0 189 311q0 6 -2 26q-10 -62 -56.5 -101.5t-119.5 -39.5q-85 0 -131.5 55.5t-46.5 143.5q0 90 53 150.5t138 60.5q49 0 87 -19.5t60 -49.5t36 -72t18.5 -80t4.5 -80z
M393 326q0 67 -42 113.5t-108 46.5q-69 0 -108 -50.5t-39 -120.5q0 -72 35 -118.5t104 -46.5q70 0 114 52t44 124z" />
    <glyph glyph-name="Asmall" unicode="&#xf761;" horiz-adv-x="470" 
d="M457 0h-46l-60 155h-237l-59 -155h-42l198 514h47zM336 193l-104 274l-104 -274h208z" />
    <glyph glyph-name="Bsmall" unicode="&#xf762;" horiz-adv-x="453" 
d="M402 146q0 -56 -39 -97q-30 -31 -69.5 -40t-118.5 -9h-97v514h129q101 0 140 -40q37 -39 37 -95q0 -31 -11 -53.5t-29 -34.5t-31.5 -17t-28.5 -8q18 0 35.5 -5.5t37.5 -17.5t32.5 -37t12.5 -60zM341 381q0 39 -27 66q-14 15 -39 22t-40.5 8t-46.5 1h-69v-198h66
q93 0 131 39q25 25 25 62zM359 143q0 39 -27 67q-16 17 -46.5 25t-48.5 8.5t-60 0.5h-58v-207h82q51 0 80.5 7.5t51.5 30.5q26 26 26 68z" />
    <glyph glyph-name="Csmall" unicode="&#xf763;" horiz-adv-x="476" 
d="M455 38q-11 -13 -57 -30t-106 -17q-104 0 -172.5 70.5t-68.5 190.5q0 125 72 197.5t178 72.5q44 0 80 -10t47.5 -17t17.5 -13l-22 -32q-47 31 -118 31q-93 0 -152 -60t-59 -164t54 -164.5t148 -60.5q18 0 35 2t30 5.5t24.5 7.5t20 8t14.5 7t9 6l4 2z" />
    <glyph glyph-name="Dsmall" unicode="&#xf764;" horiz-adv-x="554" 
d="M503 259q0 -115 -72 -190q-41 -42 -95.5 -55.5t-136.5 -13.5h-121v514h94q98 0 156.5 -12t99.5 -53q75 -77 75 -190zM457 261q0 99 -55 156q-33 34 -77.5 47.5t-143.5 13.5h-60v-442h64q90 0 135 11.5t80 47.5q57 58 57 166z" />
    <glyph glyph-name="Esmall" unicode="&#xf765;" horiz-adv-x="412" 
d="M360 0h-282v514h276v-37h-235v-189h220v-36h-220v-214h241v-38z" />
    <glyph glyph-name="Fsmall" unicode="&#xf766;" horiz-adv-x="390" 
d="M346 477h-226v-189h210v-36h-210v-252h-42v514h268v-37z" />
    <glyph glyph-name="Gsmall" unicode="&#xf767;" horiz-adv-x="521" 
d="M462 37q-64 -46 -165 -46q-111 0 -178.5 70t-67.5 191q0 125 72 197.5t178 72.5q44 0 80 -10t47.5 -17t17.5 -13l-22 -32q-47 31 -118 31q-93 0 -152 -60t-59 -164q0 -106 55 -166t156 -60q80 0 115 26v158h-123v35h164v-213z" />
    <glyph glyph-name="Hsmall" unicode="&#xf768;" horiz-adv-x="520" 
d="M442 0h-42v252h-280v-252h-42v514h42v-225h280v225h42v-514z" />
    <glyph glyph-name="Ismall" unicode="&#xf769;" horiz-adv-x="198" 
d="M120 0h-42v514h42v-514z" />
    <glyph glyph-name="Jsmall" unicode="&#xf76a;" horiz-adv-x="287" 
d="M217 154q0 -39 -1 -57t-8 -39t-21 -35q-32 -32 -77 -32q-37 0 -63.5 11.5t-36.5 21.5l19 32q43 -26 78 -26q31 0 48 17q5 5 8.5 10t5.5 12.5t3.5 11.5t2 13.5t0.5 12.5v14v13v380h42v-360z" />
    <glyph glyph-name="Ksmall" unicode="&#xf76b;" horiz-adv-x="430" 
d="M423 0h-56l-248 243v-243h-41v514h41v-242l242 242h48l-251 -253z" />
    <glyph glyph-name="Lsmall" unicode="&#xf76c;" horiz-adv-x="383" 
d="M353 0h-275v514h42v-476h233v-38z" />
    <glyph glyph-name="Msmall" unicode="&#xf76d;" horiz-adv-x="698" 
d="M638 0h-45l-56 451l-173 -451h-35l-175 451l-54 -451h-40l66 514h48l176 -453l173 453h48z" />
    <glyph glyph-name="Nsmall" unicode="&#xf76e;" horiz-adv-x="521" 
d="M443 0h-50l-276 454l3 -454h-42v514h49l278 -459l-3 459h41v-514z" />
    <glyph glyph-name="Osmall" unicode="&#xf76f;" horiz-adv-x="571" 
d="M520 257q0 -117 -66 -191.5t-172 -74.5q-98 0 -164.5 73.5t-66.5 184.5q0 119 67 195.5t172 76.5q100 0 165 -74t65 -190zM474 262q0 99 -54 160.5t-137 61.5q-85 0 -135.5 -61t-50.5 -163q0 -101 53.5 -166t134.5 -65q85 0 137 62.5t52 170.5z" />
    <glyph glyph-name="Psmall" unicode="&#xf770;" horiz-adv-x="439" 
d="M391 367q0 -65 -44 -109q-7 -7 -15 -12.5t-14.5 -10t-17 -7.5t-16 -5.5t-17.5 -4t-17 -2t-18.5 -1t-17 -0.5h-18.5h-17h-59v-215h-42v514h117q56 0 91 -7.5t62 -34.5q43 -43 43 -105zM349 369q0 48 -32 80q-28 29 -118 29h-79v-227h56q69 0 96.5 7t43.5 24q33 33 33 87z
" />
    <glyph glyph-name="Qsmall" unicode="&#xf771;" horiz-adv-x="571" 
d="M520 257q0 -113 -62 -187t-163 -79q53 -64 166 -64q18 0 34 2t17 2l5 -33q-25 -7 -68 -7q-136 0 -199 102q-81 10 -140 79.5t-59 176.5q0 119 67 195.5t172 76.5q100 0 165 -74t65 -190zM474 261q0 99 -54 160.5t-137 61.5q-85 0 -135.5 -61t-50.5 -163q0 -101 53.5 -166
t134.5 -65q85 0 137 62.5t52 170.5z" />
    <glyph glyph-name="Rsmall" unicode="&#xf772;" horiz-adv-x="449" 
d="M423 0h-44l-74 156q-24 51 -46 63t-92 12h-47v-231h-42v514h102q44 0 61.5 -0.5t49.5 -10.5t53 -31q41 -41 41 -99q0 -51 -34 -85t-88 -42q31 -2 44.5 -15.5t32.5 -54.5zM342 376q0 43 -28 71q-6 6 -13.5 11t-14 8.5t-16.5 5.5t-15.5 3.5t-17.5 2t-16 0.5h-18h-16h-67
v-210h38q37 0 59 1.5t50.5 11t46.5 27.5q28 28 28 68z" />
    <glyph glyph-name="Ssmall" unicode="&#xf773;" horiz-adv-x="415" 
d="M360 142q0 -66 -42 -108.5t-122 -42.5q-84 0 -154 56l25 33l5 -4q5 -4 10.5 -7.5t14.5 -9t19.5 -10.5t22.5 -9t26.5 -6.5t28.5 -2.5q64 0 94 30.5t30 74.5q0 36 -27 63q-26 26 -101 55.5t-100 54.5q-33 36 -33 84q0 57 42.5 93t111.5 36q90 0 144 -58l-24 -26
q-51 46 -117 46q-51 0 -83.5 -25.5t-32.5 -63.5q0 -34 22 -56q20 -20 95 -48.5t104 -57.5q41 -41 41 -91z" />
    <glyph glyph-name="Tsmall" unicode="&#xf774;" horiz-adv-x="434" 
d="M403 477h-165v-477h-42v477h-165v37h372v-37z" />
    <glyph glyph-name="Usmall" unicode="&#xf775;" horiz-adv-x="503" 
d="M433 211q0 -49 -1 -67.5t-11.5 -49.5t-33.5 -54q-49 -49 -135 -49q-90 0 -140 52q-27 28 -34.5 59.5t-7.5 92.5v319h41v-343q0 -70 32 -103q39 -39 111 -39q66 0 100 34q19 19 27.5 42t9.5 40t1 56v313h41v-303z" />
    <glyph glyph-name="Vsmall" unicode="&#xf776;" horiz-adv-x="478" 
d="M456 514l-190 -514h-57l-187 514h47l171 -479l175 479h41z" />
    <glyph glyph-name="Wsmall" unicode="&#xf777;" horiz-adv-x="731" 
d="M692 514l-135 -514h-64l-127 481l-128 -481h-64l-135 514h47l122 -482l127 482h66l127 -482l121 482h43z" />
    <glyph glyph-name="Xsmall" unicode="&#xf778;" horiz-adv-x="450" 
d="M425 0h-51l-152 234l-148 -234h-49l171 268l-159 246h50l135 -212l133 212h50l-159 -248z" />
    <glyph glyph-name="Ysmall" unicode="&#xf779;" horiz-adv-x="435" 
d="M411 514l-174 -312v-202h-40v202l-173 312h48l148 -270l146 270h45z" />
    <glyph glyph-name="Zsmall" unicode="&#xf77a;" horiz-adv-x="455" 
d="M405 0h-359v31l303 446h-285v37h334v-31l-300 -445h307v-38z" />
    <glyph glyph-name="Agravesmall" unicode="&#xf7e0;" horiz-adv-x="470" 
d="M457 0h-46l-60 155h-237l-59 -155h-42l198 514h47zM336 193l-104 274l-104 -274h208zM347 594l-15 -31l-209 77l21 48z" />
    <glyph glyph-name="Aacutesmall" unicode="&#xf7e1;" horiz-adv-x="470" 
d="M457 0h-46l-60 155h-237l-59 -155h-42l198 514h47zM336 193l-104 274l-104 -274h208zM335 640l-209 -77l-15 31l203 94z" />
    <glyph glyph-name="Acircumflexsmall" unicode="&#xf7e2;" horiz-adv-x="470" 
d="M457 0h-46l-60 155h-237l-59 -155h-42l198 514h47zM336 193l-104 274l-104 -274h208zM380 598l-19 -30l-127 67l-127 -67l-21 30l148 90z" />
    <glyph glyph-name="Atildesmall" unicode="&#xf7e3;" horiz-adv-x="470" 
d="M457 0h-46l-60 155h-237l-59 -155h-42l198 514h47zM336 193l-104 274l-104 -274h208zM380 633q-40 -40 -93 -40q-18 0 -55 11t-57 11q-32 0 -64 -22l-25 29q16 14 25 20t26.5 12.5t37.5 6.5q19 0 57 -12t56 -12q10 0 19.5 1.5t15.5 3.5t12.5 5.5t9 5.5t6.5 5t5 4z" />
    <glyph glyph-name="Adieresissmall" unicode="&#xf7e4;" horiz-adv-x="470" 
d="M457 0h-46l-60 155h-237l-59 -155h-42l198 514h47zM336 193l-104 274l-104 -274h208zM341 627q0 -15 -10 -25.5t-25 -10.5t-25.5 10.5t-10.5 25.5t10.5 25t25.5 10t25 -10t10 -25zM201 627q0 -15 -10 -25.5t-25 -10.5t-25.5 10.5t-10.5 25.5t10.5 25t25.5 10t25 -10
t10 -25z" />
    <glyph glyph-name="Aringsmall" unicode="&#xf7e5;" horiz-adv-x="470" 
d="M457 0h-46l-60 155h-237l-59 -155h-42l198 514h47zM336 193l-104 274l-104 -274h208zM330 645q0 -39 -28 -67t-67 -28t-67 28t-28 67q0 41 28 68t67 27q40 0 67.5 -28t27.5 -67zM295 645q0 26 -17.5 43t-42.5 17q-24 0 -41.5 -18t-17.5 -42t17.5 -41.5t41.5 -17.5
q25 0 42.5 17.5t17.5 41.5z" />
    <glyph glyph-name="AEsmall" unicode="&#xf7e6;" horiz-adv-x="680" 
d="M628 0h-284v154h-194l-89 -154h-48l310 514h299v-37h-237v-189h222v-36h-222v-214h243v-38zM344 191v290l-173 -290h173z" />
    <glyph glyph-name="Ccedillasmall" unicode="&#xf7e7;" horiz-adv-x="476" 
d="M459 38q-11 -13 -57.5 -30t-107.5 -17h-4l-9 -52q15 9 35 9q36 0 57.5 -22t21.5 -58q0 -38 -27.5 -61.5t-62.5 -23.5q-37 0 -67 16l12 28q28 -12 47 -12q31 0 44.5 16t13.5 35q0 22 -14 35.5t-36 13.5q-25 0 -42 -13l-21 12l17 79q-93 12 -150.5 80.5t-57.5 178.5
q0 125 72.5 197.5t179.5 72.5q45 0 81 -10t48 -17t18 -13l-22 -32q-47 31 -119 31q-94 0 -154 -60t-60 -164t54.5 -164.5t149.5 -60.5q18 0 35 2t30.5 5.5t25 7.5t20 8t14.5 7t10 6l4 2z" />
    <glyph glyph-name="Egravesmall" unicode="&#xf7e8;" horiz-adv-x="412" 
d="M360 0h-282v514h276v-37h-235v-189h220v-36h-220v-214h241v-38zM328 594l-15 -31l-209 77l21 48z" />
    <glyph glyph-name="Eacutesmall" unicode="&#xf7e9;" horiz-adv-x="412" 
d="M360 0h-282v514h276v-37h-235v-189h220v-36h-220v-214h241v-38zM327 640l-209 -77l-15 31l203 94z" />
    <glyph glyph-name="Ecircumflexsmall" unicode="&#xf7ea;" horiz-adv-x="424" 
d="M367 0h-282v514h276v-37h-235v-189h220v-36h-220v-214h241v-38zM372 598l-19 -30l-127 67l-127 -67l-21 30l148 90z" />
    <glyph glyph-name="Edieresissmall" unicode="&#xf7eb;" horiz-adv-x="412" 
d="M360 0h-282v514h276v-37h-235v-189h220v-36h-220v-214h241v-38zM321 627q0 -15 -10 -25.5t-25 -10.5t-25.5 10.5t-10.5 25.5t10.5 25t25.5 10t25 -10t10 -25zM181 627q0 -15 -10 -25.5t-25 -10.5t-25.5 10.5t-10.5 25.5t10.5 25t25.5 10t25 -10t10 -25z" />
    <glyph glyph-name="Igravesmall" unicode="&#xf7ec;" horiz-adv-x="198" 
d="M125 0h-42v514h42v-514zM211 594l-15 -31l-209 77l21 48z" />
    <glyph glyph-name="Iacutesmall" unicode="&#xf7ed;" horiz-adv-x="198" 
d="M124 0h-42v514h42v-514zM211 640l-209 -77l-15 31l203 94z" />
    <glyph glyph-name="Icircumflexsmall" unicode="&#xf7ee;" horiz-adv-x="198" 
d="M122 0h-42v514h42v-514zM246 598l-19 -30l-127 67l-127 -67l-21 30l148 90z" />
    <glyph glyph-name="Idieresissmall" unicode="&#xf7ef;" horiz-adv-x="198" 
d="M125 0h-42v514h42v-514zM205 627q0 -15 -10 -25.5t-25 -10.5t-25.5 10.5t-10.5 25.5t10.5 25t25.5 10t25 -10t10 -25zM65 627q0 -15 -10 -25.5t-25 -10.5t-25.5 10.5t-10.5 25.5t10.5 25t25.5 10t25 -10t10 -25z" />
    <glyph glyph-name="Ethsmall" unicode="&#xf7f0;" horiz-adv-x="592" 
d="M541 259q0 -117 -73 -190q-41 -41 -96.5 -55t-137.5 -14h-122v251h-82v39h82v224h95q98 0 157.5 -12t100.5 -53q76 -76 76 -190zM495 261q0 100 -56 156q-34 34 -79 47.5t-144 13.5h-61v-188h173v-39h-173v-215h65q90 0 135.5 11.5t81.5 47.5q58 58 58 166z" />
    <glyph glyph-name="Ntildesmall" unicode="&#xf7f1;" horiz-adv-x="521" 
d="M443 0h-50l-276 454l3 -454h-42v514h49l278 -459l-3 459h41v-514zM401 633q-40 -40 -93 -40q-18 0 -55 11t-57 11q-32 0 -64 -22l-25 29q16 14 25 20t26.5 12.5t37.5 6.5q18 0 56 -12t57 -12q10 0 19.5 1.5t15.5 3.5t12.5 5.5t9 5.5t6.5 5t5 4z" />
    <glyph glyph-name="Ogravesmall" unicode="&#xf7f2;" horiz-adv-x="571" 
d="M520 257q0 -117 -66 -191.5t-172 -74.5q-98 0 -164.5 73.5t-66.5 184.5q0 119 67 195.5t172 76.5q100 0 165 -74t65 -190zM474 262q0 99 -54 160.5t-137 61.5q-85 0 -135.5 -61t-50.5 -163q0 -101 53.5 -166t134.5 -65q85 0 137 62.5t52 170.5zM401 594l-15 -31l-209 77
l21 48z" />
    <glyph glyph-name="Oacutesmall" unicode="&#xf7f3;" horiz-adv-x="571" 
d="M520 257q0 -117 -66 -191.5t-172 -74.5q-98 0 -164.5 73.5t-66.5 184.5q0 119 67 195.5t172 76.5q100 0 165 -74t65 -190zM474 262q0 99 -54 160.5t-137 61.5q-85 0 -135.5 -61t-50.5 -163q0 -101 53.5 -166t134.5 -65q85 0 137 62.5t52 170.5zM389 640l-209 -77l-15 31
l203 94z" />
    <glyph glyph-name="Ocircumflexsmall" unicode="&#xf7f4;" horiz-adv-x="571" 
d="M520 257q0 -117 -66 -191.5t-172 -74.5q-98 0 -164.5 73.5t-66.5 184.5q0 119 67 195.5t172 76.5q100 0 165 -74t65 -190zM474 262q0 99 -54 160.5t-137 61.5q-85 0 -135.5 -61t-50.5 -163q0 -101 53.5 -166t134.5 -65q85 0 137 62.5t52 170.5zM427 598l-19 -30l-127 67
l-127 -67l-21 30l148 90z" />
    <glyph glyph-name="Otildesmall" unicode="&#xf7f5;" horiz-adv-x="571" 
d="M520 257q0 -117 -66 -191.5t-172 -74.5q-98 0 -164.5 73.5t-66.5 184.5q0 119 67 195.5t172 76.5q100 0 165 -74t65 -190zM474 262q0 99 -54 160.5t-137 61.5q-85 0 -135.5 -61t-50.5 -163q0 -101 53.5 -166t134.5 -65q85 0 137 62.5t52 170.5zM434 633q-40 -40 -93 -40
q-18 0 -55 11t-57 11q-32 0 -64 -22l-25 29q16 14 25 20t26.5 12.5t37.5 6.5q18 0 56.5 -12t56.5 -12q10 0 19.5 1.5t15.5 3.5t12.5 5.5t9 5.5t6.5 5t5 4z" />
    <glyph glyph-name="Odieresissmall" unicode="&#xf7f6;" horiz-adv-x="571" 
d="M520 257q0 -117 -66 -191.5t-172 -74.5q-98 0 -164.5 73.5t-66.5 184.5q0 119 67 195.5t172 76.5q100 0 165 -74t65 -190zM474 262q0 99 -54 160.5t-137 61.5q-85 0 -135.5 -61t-50.5 -163q0 -101 53.5 -166t134.5 -65q85 0 137 62.5t52 170.5zM390 627q0 -15 -10 -25.5
t-25 -10.5t-25.5 10.5t-10.5 25.5t10.5 25t25.5 10t25 -10t10 -25zM250 627q0 -15 -10 -25.5t-25 -10.5t-25.5 10.5t-10.5 25.5t10.5 25t25.5 10t25 -10t10 -25z" />
    <glyph glyph-name="Oslashsmall" unicode="&#xf7f8;" horiz-adv-x="571" 
d="M520 257q0 -117 -66 -191.5t-172 -74.5q-59 0 -111 30l-44 -73l-34 20l47 75q-89 76 -89 206q0 119 67 195.5t172 76.5q69 0 121 -36l48 80l34 -22l-51 -82q78 -78 78 -204zM474 262q0 99 -55 162l-227 -368q40 -27 93 -27q85 0 137 62.5t52 170.5zM390 451
q-43 33 -107 33q-85 0 -135.5 -61t-50.5 -163q0 -114 66 -180z" />
    <glyph glyph-name="Ugravesmall" unicode="&#xf7f9;" horiz-adv-x="503" 
d="M433 211q0 -49 -1 -67.5t-11.5 -49.5t-33.5 -54q-49 -49 -135 -49q-90 0 -140 52q-27 28 -34.5 59.5t-7.5 92.5v319h41v-343q0 -70 32 -103q39 -39 111 -39q66 0 100 34q19 19 27.5 42t9.5 40t1 56v313h41v-303zM364 594l-15 -31l-209 77l21 48z" />
    <glyph glyph-name="Uacutesmall" unicode="&#xf7fa;" horiz-adv-x="503" 
d="M433 211q0 -49 -1 -67.5t-11.5 -49.5t-33.5 -54q-49 -49 -135 -49q-90 0 -140 52q-27 28 -34.5 59.5t-7.5 92.5v319h41v-343q0 -70 32 -103q39 -39 111 -39q66 0 100 34q19 19 27.5 42t9.5 40t1 56v313h41v-303zM366 640l-209 -77l-15 31l203 94z" />
    <glyph glyph-name="Ucircumflexsmall" unicode="&#xf7fb;" horiz-adv-x="503" 
d="M433 211q0 -49 -1 -67.5t-11.5 -49.5t-33.5 -54q-49 -49 -135 -49q-90 0 -140 52q-27 28 -34.5 59.5t-7.5 92.5v319h41v-343q0 -70 32 -103q39 -39 111 -39q66 0 100 34q19 19 27.5 42t9.5 40t1 56v313h41v-303zM395 598l-19 -30l-127 67l-127 -67l-21 30l148 90z" />
    <glyph glyph-name="Udieresissmall" unicode="&#xf7fc;" horiz-adv-x="503" 
d="M433 211q0 -49 -1 -67.5t-11.5 -49.5t-33.5 -54q-49 -49 -135 -49q-90 0 -140 52q-27 28 -34.5 59.5t-7.5 92.5v319h41v-343q0 -70 32 -103q39 -39 111 -39q66 0 100 34q19 19 27.5 42t9.5 40t1 56v313h41v-303zM354 627q0 -15 -10 -25.5t-25 -10.5t-25.5 10.5
t-10.5 25.5t10.5 25t25.5 10t25 -10t10 -25zM214 627q0 -15 -10 -25.5t-25 -10.5t-25.5 10.5t-10.5 25.5t10.5 25t25.5 10t25 -10t10 -25z" />
    <glyph glyph-name="Yacutesmall" unicode="&#xf7fd;" horiz-adv-x="435" 
d="M411 514l-174 -312v-202h-40v202l-173 312h48l148 -270l146 270h45zM335 640l-209 -77l-15 31l203 94z" />
    <glyph glyph-name="Thornsmall" unicode="&#xf7fe;" horiz-adv-x="443" 
d="M395 266q0 -64 -45 -109q-7 -7 -15 -12.5t-15 -10t-17.5 -7.5t-16.5 -5.5t-18.5 -4t-18 -2t-19.5 -1t-17.5 -0.5h-19h-17.5h-56v-114h-42v514h42v-101h77q37 0 59.5 -2t49 -11.5t45.5 -28.5q44 -44 44 -105zM353 268q0 47 -32 79q-30 30 -122 30h-79v-227h54q70 0 99.5 7
t46.5 24q33 33 33 87z" />
    <glyph glyph-name="Ydieresissmall" unicode="&#xf7ff;" horiz-adv-x="435" 
d="M411 514l-174 -312v-202h-40v202l-173 312h48l148 -270l146 270h45zM329 627q0 -15 -10 -25.5t-25 -10.5t-25.5 10.5t-10.5 25.5t10.5 25t25.5 10t25 -10t10 -25zM189 627q0 -15 -10 -25.5t-25 -10.5t-25.5 10.5t-10.5 25.5t10.5 25t25.5 10t25 -10t10 -25z" />
    <glyph glyph-name="Foundry" unicode="&#xf8ff;" horiz-adv-x="912" 
d="M862 388q0 -167 -117.5 -284.5t-288.5 -117.5t-288.5 118t-117.5 284q0 168 118.5 285.5t287.5 117.5q171 0 288.5 -118t117.5 -285zM815 387q0 148 -105 253t-254 105t-254 -105t-105 -253q0 -138 87.5 -234.5t198.5 -116.5v285h-87v35h87v101q0 85 43 128q35 35 94 35
q54 0 90 -26l-17 -31q-29 19 -71 19q-44 0 -68 -24q-30 -30 -30 -102v-100h155v-35h-155v-292q11 -1 32 -1q148 0 253.5 105t105.5 254z" />
    <glyph glyph-name="Ring" unicode="&#xfff3;" horiz-adv-x="370" 
d="M185 908q39 0 67 -28t28 -66q0 -40 -28 -68t-67 -28t-67 28t-28 67q0 40 27.5 67.5t67.5 27.5zM185 873q-24 0 -41.5 -18t-17.5 -42t17.5 -41.5t41.5 -17.5q25 0 42.5 17t17.5 42t-17.5 42.5t-42.5 17.5z" />
    <glyph glyph-name="CR" horiz-adv-x="504" 
 />
    <glyph glyph-name="dotlessismall" horiz-adv-x="197" 
d="M119 0h-41v477h41v-477z" />
    <glyph glyph-name="germandblssmall" horiz-adv-x="766" 
d="M711 142q0 -66 -42.5 -108.5t-123.5 -42.5q-86 0 -156 56l26 33l5 -4q5 -4 10.5 -7.5t14.5 -9t19.5 -10.5t23 -9t26.5 -6.5t29 -2.5q64 0 94.5 30.5t30.5 74.5q0 36 -27 63q-26 26 -102 55.5t-101 54.5q-33 33 -33 84q0 57 43 93t112 36q92 0 146 -58l-25 -26
q-51 46 -118 46q-51 0 -84 -25.5t-33 -63.5q0 -34 22 -56q20 -20 96 -48.5t105 -57.5q42 -42 42 -91zM364 142q0 -66 -42.5 -108.5t-123.5 -42.5q-86 0 -156 56l26 33l5 -4q5 -4 10.5 -7.5t14.5 -9t19.5 -10.5t23 -9t26.5 -6.5t29 -2.5q64 0 94.5 30.5t30.5 74.5
q0 36 -27 63q-26 26 -102 55.5t-101 54.5q-33 33 -33 84q0 57 43 93t112 36q92 0 146 -58l-25 -26q-51 46 -118 46q-51 0 -84 -25.5t-33 -63.5q0 -34 22 -56q20 -20 96 -48.5t105 -57.5q42 -42 42 -91z" />
    <glyph glyph-name="germandbls.small" horiz-adv-x="766" 
d="M711 142q0 -66 -42.5 -108.5t-123.5 -42.5q-86 0 -156 56l26 33l5 -4q5 -4 10.5 -7.5t14.5 -9t19.5 -10.5t23 -9t26.5 -6.5t29 -2.5q64 0 94.5 30.5t30.5 74.5q0 36 -27 63q-26 26 -102 55.5t-101 54.5q-33 33 -33 84q0 57 43 93t112 36q92 0 146 -58l-25 -26
q-51 46 -118 46q-51 0 -84 -25.5t-33 -63.5q0 -34 22 -56q20 -20 96 -48.5t105 -57.5q42 -42 42 -91zM364 142q0 -66 -42.5 -108.5t-123.5 -42.5q-86 0 -156 56l26 33l5 -4q5 -4 10.5 -7.5t14.5 -9t19.5 -10.5t23 -9t26.5 -6.5t29 -2.5q64 0 94.5 30.5t30.5 74.5
q0 36 -27 63q-26 26 -102 55.5t-101 54.5q-33 33 -33 84q0 57 43 93t112 36q92 0 146 -58l-25 -26q-51 46 -118 46q-51 0 -84 -25.5t-33 -63.5q0 -34 22 -56q20 -20 96 -48.5t105 -57.5q42 -42 42 -91z" />
    <glyph glyph-name="Eurooldstyle" horiz-adv-x="587" 
d="M533 50q-81 -61 -172 -61q-59 0 -104.5 24t-69.5 56.5t-39.5 75t-20 68t-5.5 47.5h-65v38h62q-1 24 -1 41q0 10 1 30h-62v38h65q1 18 5.5 43.5t21 68t41 76.5t71 59t106.5 25q35 0 70.5 -11.5t51.5 -21.5t21 -15l-23 -32q-57 41 -118 41q-37 0 -68.5 -12t-51.5 -29.5
t-35.5 -43t-23.5 -46t-13.5 -46t-6.5 -35.5t-2 -21h272v-38h-275q-1 -13 -1 -40q0 -9 1 -31h275v-38h-272q23 -204 158 -227q16 -3 34 -3q15 0 30.5 2t27.5 5t24 8t21 9t17.5 9t13.5 8t10 7l5 4z" />
    <glyph glyph-name="dollaroldstyle" horiz-adv-x="510" 
d="M455 182q0 -76 -46 -127t-131 -58v-91h-38v89q-17 0 -33 2t-29.5 5t-26.5 7t-23 8.5t-20 9.5t-17 9t-14 9l-10.5 7.5t-7.5 5.5l-4 4l25 33l6 -4q5 -4 10.5 -8t15 -9.5t19 -10.5t23 -10t26.5 -9t28.5 -6.5t31.5 -2.5v299q-94 40 -127 72q-41 39 -41 104q0 64 46 108.5
t122 51.5v68h38v-67q104 -4 168 -68l-27 -27q-62 55 -141 58v-268q89 -34 126 -69q51 -48 51 -115zM240 380v252q-57 -7 -91.5 -41.5t-34.5 -82.5q0 -41 31 -72q27 -27 95 -56zM408 179q0 48 -39 85q-31 29 -91 55v-283q63 10 96.5 48t33.5 95z" />
    <glyph glyph-name="centoldstyle" horiz-adv-x="583" 
d="M487 45q-12 -11 -50 -26t-85 -18v-95h-38v95q-91 6 -147 68t-56 167q0 107 55 178t148 81v80h38v-78q35 -1 67 -11.5t45 -19t17 -13.5l-21 -31q-52 32 -108 35v-415q70 5 116 36zM314 42v413q-74 -10 -117 -67t-43 -143q0 -87 44.5 -141.5t115.5 -61.5z" />
    <glyph glyph-name="sterlingoldstyle" horiz-adv-x="529" 
d="M480 625l-24 -27q-49 42 -124 42q-76 0 -118.5 -49.5t-42.5 -142.5q0 -20 8 -108h190v-39h-186q0 -3 2.5 -29t2.5 -42q0 -145 -72 -192h357v-38h-424v36q47 18 70.5 51t23.5 115q0 43 -4 99h-88v39h84q-9 70 -9 108q0 107 54.5 168.5t147.5 61.5q42 0 78.5 -11.5
t52 -22.5t21.5 -19z" />
    <glyph glyph-name="florinoldstyle" horiz-adv-x="558" 
d="M554 659l-15 -34q-27 15 -67 15q-46 0 -73.5 -28.5t-42.5 -100.5l-37 -172h156l-8 -39h-157l-65 -315q-1 -4 -4 -18.5t-4.5 -21t-4.5 -21t-5.5 -23t-6 -21.5t-7.5 -21.5t-8.5 -18t-9.5 -17t-11 -13.5q-35 -35 -93 -35q-39 0 -87 19l15 34q37 -14 71 -14q42 0 61 19
q6 6 12 14.5t10.5 21t8 22t7.5 26.5t5.5 25.5t6 29t5.5 26.5l64 302h-131l8 39h130l34 158q21 105 58 142q40 40 101 40q44 0 84 -20z" />
    <glyph glyph-name="yenoldstyle" horiz-adv-x="554" 
d="M505 667l-195 -329h132v-38h-146v-53h146v-38h-146v-209h-42v209h-144v38h144v53h-144v38h129l-190 329h51l174 -319l182 319h49z" />
    <glyph glyph-name="dollar.fitted" horiz-adv-x="514" 
d="M451 182q0 -76 -46 -127t-131 -58v-91h-38v89q-17 0 -33 2t-29.5 5t-26.5 7t-23 8.5t-20 9.5t-17 9t-14 9l-10.5 7.5t-7.5 5.5l-4 4l25 33l6 -4q5 -4 10.5 -8t15 -9.5t19 -10.5t23 -10t26.5 -9t28.5 -6.5t31.5 -2.5v299q-94 40 -127 72q-41 39 -41 104q0 64 46 108.5
t122 51.5v68h38v-67q104 -4 168 -68l-27 -27q-62 55 -141 58v-268q89 -34 126 -69q51 -48 51 -115zM236 380v252q-57 -7 -91.5 -41.5t-34.5 -82.5q0 -41 31 -72q27 -27 95 -56zM404 179q0 48 -39 85q-31 29 -91 55v-283q63 10 96.5 48t33.5 95z" />
    <glyph glyph-name="cent.fitted" horiz-adv-x="453" 
d="M421 45q-12 -11 -50 -26t-85 -18v-95h-38v95q-91 6 -147 68t-56 167q0 107 55 178t148 81v80h38v-78q35 -1 67 -11.5t45 -19t17 -13.5l-21 -31q-52 32 -108 35v-415q70 5 116 36zM248 42v413q-74 -10 -117 -67t-43 -143q0 -87 44.5 -141.5t115.5 -61.5z" />
    <glyph glyph-name="sterling.fitted" horiz-adv-x="499" 
d="M473 625l-24 -27q-56 42 -127 42q-78 0 -121.5 -49.5t-43.5 -142.5q0 -20 8 -108h195v-39h-191q0 -3 2.5 -29t2.5 -42q0 -145 -73 -192h365v-38h-432v36q48 18 72 51t24 115q0 29 -5 99h-89v39h85q-9 59 -9 108q0 107 55.5 168.5t150.5 61.5q43 0 80 -11.5t52.5 -22.5
t22.5 -19z" />
    <glyph glyph-name="florin.fitted" horiz-adv-x="514" 
d="M512 659l-15 -34q-27 15 -67 15q-46 0 -73.5 -28.5t-42.5 -100.5l-37 -172h156l-8 -39h-157l-65 -315q-1 -4 -4 -18.5t-4.5 -21t-4.5 -21t-5.5 -23t-6 -21.5t-7.5 -21.5t-8.5 -18t-9.5 -17t-11 -13.5q-35 -35 -93 -35q-40 0 -87 19l15 34q37 -14 71 -14q42 0 61 19
q6 6 12 14.5t10.5 21t8 22t7.5 26.5t5.5 25.5t6 29t5.5 26.5l64 302h-131l8 39h130l34 158q21 105 58 142q40 40 101 40q44 0 84 -20z" />
    <glyph glyph-name="yen.fitted" horiz-adv-x="512" 
d="M484 667l-195 -329h132v-38h-146v-53h146v-38h-146v-209h-42v209h-144v38h144v53h-144v38h129l-190 329h51l174 -319l182 319h49z" />
    <glyph glyph-name="commaaccent" horiz-adv-x="370" 
d="M181 -66h54q1 -44 -18.5 -92t-52.5 -84l-31 21q48 63 48 155z" />
    <glyph glyph-name="Commaaccent" horiz-adv-x="370" 
d="M181 -66h54q1 -44 -18.5 -92t-52.5 -84l-31 21q48 63 48 155z" />
    </font>
</defs>
</svg>
